999
dxflib 3.26.4.0
  0
SECTION
  2
HEADER
  9
$ACADVER
  1
AC1015
  9
$HANDSEED
  5
FFFF
  9
$DIMADEC
 70
0
  9
$DIMASZ
 40
2.5
  9
$DIMATFIT
 70
0
  9
$DIMAUNIT
 70
0
  9
$DIMAZIN
 70
2
  9
$DIMBLK
  1

  9
$DIMDEC
 70
4
  9
$DIMDLI
 40
5.0
  9
$DIMDSEP
 70
46
  9
$DIMEXE
 40
1.25
  9
$DIMEXO
 40
0.625
  9
$DIMGAP
 40
0.625
  9
$DIMLFAC
 40
1.0
  9
$DIMLUNIT
 70
2
  9
$DIMSCALE
 40
1.0
  9
$DIMTAD
 70
1
  9
$DIMTIH
 70
0
  9
$DIMTSZ
 40
0.0
  9
$DIMTXT
 40
2.5
  9
$DIMZIN
 70
8
  9
$DWGCODEPAGE
  3
ANSI_1252
  9
$INSUNITS
 70
5
  9
$LTSCALE
 40
1.0
  9
$MAXACTVP
 70
64
  9
$MEASUREMENT
 70
1
  9
$MIRRTEXT
 70
0
  9
$PDMODE
 70
0
  9
$PDSIZE
 40
0.0
  0
ENDSEC
  0
SECTION
  2
TABLES
  0
TABLE
  2
VPORT
  5
8
100
AcDbSymbolTable
 70
1
  0
VPORT
  5
30
100
AcDbSymbolTableRecord
100
AcDbViewportTableRecord
  2
*Active
 70
0
 10
0.0
 20
0.0
 11
1.0
 21
1.0
 12
286.3055555555554861
 22
148.5
 13
0.0
 23
0.0
 14
10.0
 24
10.0
 15
10.0
 25
10.0
 16
0.0
 26
0.0
 36
1.0
 17
0.0
 27
0.0
 37
0.0
 40
297.0
 41
1.92798353909465
 42
50.0
 43
0.0
 44
0.0
 50
0.0
 51
0.0
 71
0
 72
100
 73
1
 74
3
 75
1
 76
1
 77
0
 78
0
281
0
 65
1
110
0.0
120
0.0
130
0.0
111
1.0
121
0.0
131
0.0
112
0.0
122
1.0
132
0.0
 79
0
146
0.0
  0
ENDTAB
  0
TABLE
  2
LTYPE
  5
5
100
AcDbSymbolTable
 70
41
  0
LTYPE
  5
16
100
AcDbSymbolTableRecord
100
AcDbLinetypeTableRecord
  2
Continuous
 70
0
  3
Solid line
 72
65
 73
0
 40
0.0
  0
LTYPE
  5
31
100
AcDbSymbolTableRecord
100
AcDbLinetypeTableRecord
  2
ACAD_ISO09W100
 70
0
  3
ISO long-dash double-short-dash ____ __ __ ____
 72
65
 73
6
 40
45.0
 49
24.0
 74
0
 49
-3.0
 74
0
 49
6.0
 74
0
 49
-3.0
 74
0
 49
6.0
 74
0
 49
-3.0
 74
0
  0
LTYPE
  5
32
100
AcDbSymbolTableRecord
100
AcDbLinetypeTableRecord
  2
ACAD_ISO03W100
 70
0
  3
ISO dash space __    __    __    __    __    __
 72
65
 73
2
 40
30.0
 49
12.0
 74
0
 49
-18.0
 74
0
  0
LTYPE
  5
33
100
AcDbSymbolTableRecord
100
AcDbLinetypeTableRecord
  2
ACAD_ISO06W100
 70
0
  3
ISO long-dash triple-dot ____ ... ____ ... ____
 72
65
 73
8
 40
36.0
 49
24.0
 74
0
 49
-3.0
 74
0
 49
0.0
 74
0
 49
-3.0
 74
0
 49
0.0
 74
0
 49
-3.0
 74
0
 49
0.0
 74
0
 49
-3.0
 74
0
  0
LTYPE
  5
34
100
AcDbSymbolTableRecord
100
AcDbLinetypeTableRecord
  2
ACAD_ISO04W100
 70
0
  3
ISO long-dash dot ____ . ____ . ____ . ____ . _
 72
65
 73
4
 40
30.0
 49
24.0
 74
0
 49
-3.0
 74
0
 49
0.0
 74
0
 49
-3.0
 74
0
  0
LTYPE
  5
35
100
AcDbSymbolTableRecord
100
AcDbLinetypeTableRecord
  2
ACAD_ISO07W100
 70
0
  3
ISO dot . . . . . . . . . . . . . . . . . . . . 
 72
65
 73
2
 40
3.0
 49
0.0
 74
0
 49
-3.0
 74
0
  0
LTYPE
  5
14
100
AcDbSymbolTableRecord
100
AcDbLinetypeTableRecord
  2
BYBLOCK
 70
0
  3

 72
65
 73
0
 40
0.0
  0
LTYPE
  5
36
100
AcDbSymbolTableRecord
100
AcDbLinetypeTableRecord
  2
ACAD_ISO13W100
 70
0
  3
ISO double-dash double-dot __ __ . . __ __ . . _
 72
65
 73
8
 40
36.0
 49
12.0
 74
0
 49
-3.0
 74
0
 49
12.0
 74
0
 49
-3.0
 74
0
 49
0.0
 74
0
 49
-3.0
 74
0
 49
0.0
 74
0
 49
-3.0
 74
0
  0
LTYPE
  5
37
100
AcDbSymbolTableRecord
100
AcDbLinetypeTableRecord
  2
CENTERX2
 70
0
  3
Center (2x) ________  __  ________  __  _____
 72
65
 73
4
 40
101.6000000000000085
 49
63.5
 74
0
 49
-12.6999999999999993
 74
0
 49
12.6999999999999993
 74
0
 49
-12.6999999999999993
 74
0
  0
LTYPE
  5
38
100
AcDbSymbolTableRecord
100
AcDbLinetypeTableRecord
  2
DASHDOT2
 70
0
  3
Dash dot (.5x) _._._._._._._._._._._._._._._.
 72
65
 73
4
 40
12.6999999999999993
 49
6.3499999999999996
 74
0
 49
-3.1749999999999998
 74
0
 49
0.0
 74
0
 49
-3.1749999999999998
 74
0
  0
LTYPE
  5
39
100
AcDbSymbolTableRecord
100
AcDbLinetypeTableRecord
  2
ACAD_ISO08W100
 70
0
  3
ISO long-dash short-dash ____ __ ____ __ ____ _
 72
65
 73
4
 40
36.0
 49
24.0
 74
0
 49
-3.0
 74
0
 49
6.0
 74
0
 49
-3.0
 74
0
  0
LTYPE
  5
3A
100
AcDbSymbolTableRecord
100
AcDbLinetypeTableRecord
  2
ACAD_ISO05W100
 70
0
  3
ISO long-dash double-dot ____ .. ____ .. ____ . 
 72
65
 73
6
 40
33.0
 49
24.0
 74
0
 49
-3.0
 74
0
 49
0.0
 74
0
 49
-3.0
 74
0
 49
0.0
 74
0
 49
-3.0
 74
0
  0
LTYPE
  5
15
100
AcDbSymbolTableRecord
100
AcDbLinetypeTableRecord
  2
BYLAYER
 70
0
  3

 72
65
 73
0
 40
0.0
  0
LTYPE
  5
3B
100
AcDbSymbolTableRecord
100
AcDbLinetypeTableRecord
  2
DASHDOT
 70
0
  3
Dash dot __ . __ . __ . __ . __ . __ . __ . __
 72
65
 73
4
 40
25.3999999999999986
 49
12.6999999999999993
 74
0
 49
-6.3499999999999996
 74
0
 49
0.0
 74
0
 49
-6.3499999999999996
 74
0
  0
LTYPE
  5
3C
100
AcDbSymbolTableRecord
100
AcDbLinetypeTableRecord
  2
PHANTOMX2
 70
0
  3
Phantom (2x) ____________    ____    ____   _
 72
65
 73
6
 40
127.0000000000000142
 49
63.5
 74
0
 49
-12.6999999999999993
 74
0
 49
12.6999999999999993
 74
0
 49
-12.6999999999999993
 74
0
 49
12.6999999999999993
 74
0
 49
-12.6999999999999993
 74
0
  0
LTYPE
  5
3D
100
AcDbSymbolTableRecord
100
AcDbLinetypeTableRecord
  2
DIVIDEX2
 70
0
  3
Divide (2x) ________  .  .  ________  .  .  _
 72
65
 73
6
 40
63.5
 49
25.3999999999999986
 74
0
 49
-12.6999999999999993
 74
0
 49
0.0
 74
0
 49
-12.6999999999999993
 74
0
 49
0.0
 74
0
 49
-12.6999999999999993
 74
0
  0
LTYPE
  5
3E
100
AcDbSymbolTableRecord
100
AcDbLinetypeTableRecord
  2
CENTER2
 70
0
  3
Center (.5x) ___ _ ___ _ ___ _ ___ _ ___ _ ___
 72
65
 73
4
 40
28.5750000000000028
 49
19.0500000000000007
 74
0
 49
-3.1749999999999998
 74
0
 49
3.1749999999999998
 74
0
 49
-3.1749999999999998
 74
0
  0
LTYPE
  5
3F
100
AcDbSymbolTableRecord
100
AcDbLinetypeTableRecord
  2
DOT
 70
0
  3
Dot . . . . . . . . . . . . . . . . . . . . . . . .
 72
65
 73
2
 40
6.3499999999999996
 49
0.0
 74
0
 49
-6.3499999999999996
 74
0
  0
LTYPE
  5
40
100
AcDbSymbolTableRecord
100
AcDbLinetypeTableRecord
  2
BORDER2
 70
0
  3
Border (.5x) __.__.__.__.__.__.__.__.__.__.__.
 72
65
 73
6
 40
22.2249999999999979
 49
6.3499999999999996
 74
0
 49
-3.1749999999999998
 74
0
 49
6.3499999999999996
 74
0
 49
-3.1749999999999998
 74
0
 49
0.0
 74
0
 49
-3.1749999999999998
 74
0
  0
LTYPE
  5
41
100
AcDbSymbolTableRecord
100
AcDbLinetypeTableRecord
  2
DIVIDE
 70
0
  3
Divide ____ . . ____ . . ____ . . ____ . . ____
 72
65
 73
6
 40
31.75
 49
12.6999999999999993
 74
0
 49
-6.3499999999999996
 74
0
 49
0.0
 74
0
 49
-6.3499999999999996
 74
0
 49
0.0
 74
0
 49
-6.3499999999999996
 74
0
  0
LTYPE
  5
42
100
AcDbSymbolTableRecord
100
AcDbLinetypeTableRecord
  2
ACAD_ISO11W100
 70
0
  3
ISO double-dash dot __ __ . __ __ . __ __ . __ _
 72
65
 73
6
 40
33.0
 49
12.0
 74
0
 49
-3.0
 74
0
 49
12.0
 74
0
 49
-3.0
 74
0
 49
0.0
 74
0
 49
-3.0
 74
0
  0
LTYPE
  5
43
100
AcDbSymbolTableRecord
100
AcDbLinetypeTableRecord
  2
DOTX2
 70
0
  3
Dot (2x) .  .  .  .  .  .  .  .  .  .  .  .  .  .
 72
65
 73
2
 40
12.6999999999999993
 49
0.0
 74
0
 49
-12.6999999999999993
 74
0
  0
LTYPE
  5
44
100
AcDbSymbolTableRecord
100
AcDbLinetypeTableRecord
  2
HIDDENX2
 70
0
  3
Hidden (2x) ____ ____ ____ ____ ____ ____ ____ 
 72
65
 73
2
 40
19.0499999999999972
 49
12.6999999999999993
 74
0
 49
-6.3499999999999996
 74
0
  0
LTYPE
  5
45
100
AcDbSymbolTableRecord
100
AcDbLinetypeTableRecord
  2
HIDDEN
 70
0
  3
Hidden __ __ __ __ __ __ __ __ __ __ __ __ __ __
 72
65
 73
2
 40
9.5249999999999986
 49
6.3499999999999996
 74
0
 49
-3.1749999999999998
 74
0
  0
LTYPE
  5
46
100
AcDbSymbolTableRecord
100
AcDbLinetypeTableRecord
  2
ACAD_ISO15W100
 70
0
  3
ISO double-dash triple-dot __ __ . . . __ __ . .
 72
65
 73
10
 40
39.0
 49
12.0
 74
0
 49
-3.0
 74
0
 49
12.0
 74
0
 49
-3.0
 74
0
 49
0.0
 74
0
 49
-3.0
 74
0
 49
0.0
 74
0
 49
-3.0
 74
0
 49
0.0
 74
0
 49
-3.0
 74
0
  0
LTYPE
  5
47
100
AcDbSymbolTableRecord
100
AcDbLinetypeTableRecord
  2
DIVIDE2
 70
0
  3
Divide (.5x) __..__..__..__..__..__..__..__.._
 72
65
 73
6
 40
15.875
 49
6.3499999999999996
 74
0
 49
-3.1749999999999998
 74
0
 49
0.0
 74
0
 49
-3.1749999999999998
 74
0
 49
0.0
 74
0
 49
-3.1749999999999998
 74
0
  0
LTYPE
  5
48
100
AcDbSymbolTableRecord
100
AcDbLinetypeTableRecord
  2
ACAD_ISO14W100
 70
0
  3
ISO dash triple-dot __ . . . __ . . . __ . . . _
 72
65
 73
8
 40
24.0
 49
12.0
 74
0
 49
-3.0
 74
0
 49
0.0
 74
0
 49
-3.0
 74
0
 49
0.0
 74
0
 49
-3.0
 74
0
 49
0.0
 74
0
 49
-3.0
 74
0
  0
LTYPE
  5
49
100
AcDbSymbolTableRecord
100
AcDbLinetypeTableRecord
  2
CENTER
 70
0
  3
Center ____ _ ____ _ ____ _ ____ _ ____ _ ____
 72
65
 73
4
 40
50.8000000000000043
 49
31.75
 74
0
 49
-6.3499999999999996
 74
0
 49
6.3499999999999996
 74
0
 49
-6.3499999999999996
 74
0
  0
LTYPE
  5
4A
100
AcDbSymbolTableRecord
100
AcDbLinetypeTableRecord
  2
HIDDEN2
 70
0
  3
Hidden (.5x) _ _ _ _ _ _ _ _ _ _ _ _ _ _ _ _ _ 
 72
65
 73
2
 40
4.7624999999999993
 49
3.1749999999999998
 74
0
 49
-1.5874999999999999
 74
0
  0
LTYPE
  5
4B
100
AcDbSymbolTableRecord
100
AcDbLinetypeTableRecord
  2
ACAD_ISO10W100
 70
0
  3
ISO dash dot __ . __ . __ . __ . __ . __ . __ . 
 72
65
 73
4
 40
18.0
 49
12.0
 74
0
 49
-3.0
 74
0
 49
0.0
 74
0
 49
-3.0
 74
0
  0
LTYPE
  5
4C
100
AcDbSymbolTableRecord
100
AcDbLinetypeTableRecord
  2
ACAD_ISO12W100
 70
0
  3
ISO dash double-dot __ . . __ . . __ . . __ . . 
 72
65
 73
6
 40
21.0
 49
12.0
 74
0
 49
-3.0
 74
0
 49
0.0
 74
0
 49
-3.0
 74
0
 49
0.0
 74
0
 49
-3.0
 74
0
  0
LTYPE
  5
4D
100
AcDbSymbolTableRecord
100
AcDbLinetypeTableRecord
  2
PHANTOM
 70
0
  3
Phantom ______  __  __  ______  __  __  ______ 
 72
65
 73
6
 40
63.5000000000000071
 49
31.75
 74
0
 49
-6.3499999999999996
 74
0
 49
6.3499999999999996
 74
0
 49
-6.3499999999999996
 74
0
 49
6.3499999999999996
 74
0
 49
-6.3499999999999996
 74
0
  0
LTYPE
  5
4E
100
AcDbSymbolTableRecord
100
AcDbLinetypeTableRecord
  2
DASHED
 70
0
  3
Dashed __ __ __ __ __ __ __ __ __ __ __ __ __ _
 72
65
 73
2
 40
19.0499999999999972
 49
12.6999999999999993
 74
0
 49
-6.3499999999999996
 74
0
  0
LTYPE
  5
4F
100
AcDbSymbolTableRecord
100
AcDbLinetypeTableRecord
  2
DASHDOTX2
 70
0
  3
Dash dot (2x) ____  .  ____  .  ____  .  ___
 72
65
 73
4
 40
50.7999999999999972
 49
25.3999999999999986
 74
0
 49
-12.6999999999999993
 74
0
 49
0.0
 74
0
 49
-12.6999999999999993
 74
0
  0
LTYPE
  5
50
100
AcDbSymbolTableRecord
100
AcDbLinetypeTableRecord
  2
BORDERX2
 70
0
  3
Border (2x) ____  ____  .  ____  ____  .  ___
 72
65
 73
6
 40
88.8999999999999915
 49
25.3999999999999986
 74
0
 49
-12.6999999999999993
 74
0
 49
25.3999999999999986
 74
0
 49
-12.6999999999999993
 74
0
 49
0.0
 74
0
 49
-12.6999999999999993
 74
0
  0
LTYPE
  5
51
100
AcDbSymbolTableRecord
100
AcDbLinetypeTableRecord
  2
PHANTOM2
 70
0
  3
Phantom (.5x) ___ _ _ ___ _ _ ___ _ _ ___ _ _
 72
65
 73
6
 40
31.7500000000000036
 49
15.875
 74
0
 49
-3.1749999999999998
 74
0
 49
3.1749999999999998
 74
0
 49
-3.1749999999999998
 74
0
 49
3.1749999999999998
 74
0
 49
-3.1749999999999998
 74
0
  0
LTYPE
  5
52
100
AcDbSymbolTableRecord
100
AcDbLinetypeTableRecord
  2
BORDER
 70
0
  3
Border __ __ . __ __ . __ __ . __ __ . __ __ .
 72
65
 73
6
 40
44.4499999999999957
 49
12.6999999999999993
 74
0
 49
-6.3499999999999996
 74
0
 49
12.6999999999999993
 74
0
 49
-6.3499999999999996
 74
0
 49
0.0
 74
0
 49
-6.3499999999999996
 74
0
  0
LTYPE
  5
53
100
AcDbSymbolTableRecord
100
AcDbLinetypeTableRecord
  2
ACAD_ISO02W100
 70
0
  3
ISO dash __ __ __ __ __ __ __ __ __ __ __ __ __
 72
65
 73
2
 40
15.0
 49
12.0
 74
0
 49
-3.0
 74
0
  0
LTYPE
  5
54
100
AcDbSymbolTableRecord
100
AcDbLinetypeTableRecord
  2
DASHEDX2
 70
0
  3
Dashed (2x) ____  ____  ____  ____  ____  ___
 72
65
 73
2
 40
38.0999999999999943
 49
25.3999999999999986
 74
0
 49
-12.6999999999999993
 74
0
  0
LTYPE
  5
55
100
AcDbSymbolTableRecord
100
AcDbLinetypeTableRecord
  2
DASHED2
 70
0
  3
Dashed (.5x) _ _ _ _ _ _ _ _ _ _ _ _ _ _ _ _ _ 
 72
65
 73
2
 40
9.5249999999999986
 49
6.3499999999999996
 74
0
 49
-3.1749999999999998
 74
0
  0
LTYPE
  5
56
100
AcDbSymbolTableRecord
100
AcDbLinetypeTableRecord
  2
DOT2
 70
0
  3
Dot (.5x) ........................................
 72
65
 73
2
 40
3.1749999999999998
 49
0.0
 74
0
 49
-3.1749999999999998
 74
0
  0
ENDTAB
  0
TABLE
  2
LAYER
  5
2
100
AcDbSymbolTable
 70
1
  0
LAYER
  5
10
100
AcDbSymbolTableRecord
100
AcDbLayerTableRecord
  2
0
 70
0
 62
7
420
16777215
  6
Continuous
370
25
390
F
  0
ENDTAB
  0
TABLE
  2
STYLE
  5
3
100
AcDbSymbolTable
 70
1
  0
STYLE
  5
57
100
AcDbSymbolTableRecord
100
AcDbTextStyleTableRecord
  2
Standard
 70
0
 40
0.0
 41
1.0
 50
0.0
 71
0
 42
2.5
  3

  4

1001
ACAD
1000
txt
1071
0
  0
ENDTAB
  0
TABLE
  2
VIEW
  5
6
100
AcDbSymbolTable
 70
0
  0
ENDTAB
  0
TABLE
  2
UCS
  5
7
100
AcDbSymbolTable
 70
0
  0
ENDTAB
  0
TABLE
  2
APPID
  5
9
100
AcDbSymbolTable
 70
1
  0
APPID
  5
12
100
AcDbSymbolTableRecord
100
AcDbRegAppTableRecord
  2
ACAD
 70
0
  0
APPID
  5
58
100
AcDbSymbolTableRecord
100
AcDbRegAppTableRecord
  2
QCAD
 70
0
  0
ENDTAB
  0
TABLE
  2
DIMSTYLE
  5
A
100
AcDbSymbolTable
 70
1
100
AcDbDimStyleTable
 71
0
  0
DIMSTYLE
105
27
100
AcDbSymbolTableRecord
100
AcDbDimStyleTableRecord
  2
Standard
 41
2.5
 42
0.625
 43
3.75
 44
1.25
 70
0
 73
0
 74
0
 77
1
 78
8
140
2.5
141
2.5
143
0.03937007874016
147
0.625
171
3
172
1
271
2
272
2
274
3
278
44
283
0
284
8
340
57
  0
ENDTAB
  0
TABLE
  2
BLOCK_RECORD
  5
1
100
AcDbSymbolTable
 70
1
  0
BLOCK_RECORD
  5
1F
100
AcDbSymbolTableRecord
100
AcDbBlockTableRecord
  2
*Model_Space
340
22
  0
BLOCK_RECORD
  5
1B
100
AcDbSymbolTableRecord
100
AcDbBlockTableRecord
  2
*Paper_Space
340
1E
  0
BLOCK_RECORD
  5
23
100
AcDbSymbolTableRecord
100
AcDbBlockTableRecord
  2
*Paper_Space0
340
26
  0
ENDTAB
  0
ENDSEC
  0
SECTION
  2
BLOCKS
  0
BLOCK
  5
20
100
AcDbEntity
  8
0
100
AcDbBlockBegin
  2
*Model_Space
 70
0
 10
0.0
 20
0.0
 30
0.0
  3
*Model_Space
  1

  0
ENDBLK
  5
21
100
AcDbEntity
  8
0
100
AcDbBlockEnd
  0
BLOCK
  5
1C
100
AcDbEntity
 67
1
  8
0
100
AcDbBlockBegin
  2
*Paper_Space
 70
0
 10
0.0
 20
0.0
 30
0.0
  3
*Paper_Space
  1

  0
ENDBLK
  5
1D
100
AcDbEntity
 67
1
  8
0
100
AcDbBlockEnd
  0
BLOCK
  5
24
100
AcDbEntity
  8
0
100
AcDbBlockBegin
  2
*Paper_Space0
 70
0
 10
0.0
 20
0.0
 30
0.0
  3
*Paper_Space0
  1

  0
ENDBLK
  5
25
100
AcDbEntity
  8
0
100
AcDbBlockEnd
  0
ENDSEC
  0
SECTION
  2
ENTITIES
  0
LINE
  5
59
100
AcDbEntity
  8
0
 62
256
370
-1
 48
1.0
  6
BYLAYER
100
AcDbLine
 10
0.0
 20
0.0
 30
0.0
 11
103.9230484541326263
 21
-60.0
 31
0.0
  0
LINE
  5
5A
100
AcDbEntity
  8
0
 62
256
370
-1
 48
1.0
  6
BYLAYER
100
AcDbLine
 10
103.9230484541326263
 20
-60.0
 30
0.0
 11
103.9230484541326263
 21
-50.0
 31
0.0
  0
LINE
  5
5B
100
AcDbEntity
  8
0
 62
256
370
-1
 48
1.0
  6
BYLAYER
100
AcDbLine
 10
103.9230484541326263
 20
-50.0
 30
0.0
 11
0.0
 21
10.0
 31
0.0
  0
LINE
  5
5C
100
AcDbEntity
  8
0
 62
256
370
-1
 48
1.0
  6
BYLAYER
100
AcDbLine
 10
0.0
 20
10.0
 30
0.0
 11
0.0
 21
0.0
 31
0.0
  0
LINE
  5
5D
100
AcDbEntity
  8
0
 62
256
370
-1
 48
1.0
  6
BYLAYER
100
AcDbLine
 10
0.0
 20
0.0
 30
0.0
 11
8.6602540378443855
 21
5.0
 31
0.0
  0
LINE
  5
5E
100
AcDbEntity
  8
0
 62
256
370
-1
 48
1.0
  6
BYLAYER
100
AcDbLine
 10
8.6602540378443855
 20
5.0
 30
0.0
 11
8.6602540378443855
 21
-5.0
 31
0.0
  0
LINE
  5
5F
100
AcDbEntity
  8
0
 62
256
370
-1
 48
1.0
  6
BYLAYER
100
AcDbLine
 10
8.6602540378443855
 20
-5.0
 30
0.0
 11
17.320508075688771
 21
0.0
 31
0.0
  0
LINE
  5
60
100
AcDbEntity
  8
0
 62
256
370
-1
 48
1.0
  6
BYLAYER
100
AcDbLine
 10
17.320508075688771
 20
0.0
 30
0.0
 11
17.320508075688771
 21
-10.0
 31
0.0
  0
LINE
  5
61
100
AcDbEntity
  8
0
 62
256
370
-1
 48
1.0
  6
BYLAYER
100
AcDbLine
 10
17.320508075688771
 20
-10.0
 30
0.0
 11
25.9807621135331566
 21
-5.0
 31
0.0
  0
LINE
  5
62
100
AcDbEntity
  8
0
 62
256
370
-1
 48
1.0
  6
BYLAYER
100
AcDbLine
 10
25.9807621135331566
 20
-5.0
 30
0.0
 11
25.9807621135331566
 21
-15.0
 31
0.0
  0
LINE
  5
63
100
AcDbEntity
  8
0
 62
256
370
-1
 48
1.0
  6
BYLAYER
100
AcDbLine
 10
25.9807621135331566
 20
-15.0
 30
0.0
 11
34.6410161513775421
 21
-10.0
 31
0.0
  0
LINE
  5
64
100
AcDbEntity
  8
0
 62
256
370
-1
 48
1.0
  6
BYLAYER
100
AcDbLine
 10
34.6410161513775421
 20
-10.0
 30
0.0
 11
34.6410161513775421
 21
-20.0
 31
0.0
  0
LINE
  5
65
100
AcDbEntity
  8
0
 62
256
370
-1
 48
1.0
  6
BYLAYER
100
AcDbLine
 10
34.6410161513775421
 20
-20.0
 30
0.0
 11
43.3012701892219241
 21
-15.0
 31
0.0
  0
LINE
  5
66
100
AcDbEntity
  8
0
 62
256
370
-1
 48
1.0
  6
BYLAYER
100
AcDbLine
 10
43.3012701892219241
 20
-15.0
 30
0.0
 11
43.3012701892219241
 21
-25.0
 31
0.0
  0
LINE
  5
67
100
AcDbEntity
  8
0
 62
256
370
-1
 48
1.0
  6
BYLAYER
100
AcDbLine
 10
43.3012701892219241
 20
-25.0
 30
0.0
 11
51.9615242270663131
 21
-20.0
 31
0.0
  0
LINE
  5
68
100
AcDbEntity
  8
0
 62
256
370
-1
 48
1.0
  6
BYLAYER
100
AcDbLine
 10
51.9615242270663131
 20
-20.0
 30
0.0
 11
51.9615242270663131
 21
-30.0
 31
0.0
  0
LINE
  5
69
100
AcDbEntity
  8
0
 62
256
370
-1
 48
1.0
  6
BYLAYER
100
AcDbLine
 10
51.9615242270663131
 20
-30.0
 30
0.0
 11
60.6217782649107022
 21
-25.0
 31
0.0
  0
LINE
  5
6A
100
AcDbEntity
  8
0
 62
256
370
-1
 48
1.0
  6
BYLAYER
100
AcDbLine
 10
60.6217782649107022
 20
-25.0
 30
0.0
 11
60.6217782649107022
 21
-35.0
 31
0.0
  0
LINE
  5
6B
100
AcDbEntity
  8
0
 62
256
370
-1
 48
1.0
  6
BYLAYER
100
AcDbLine
 10
60.6217782649107022
 20
-35.0
 30
0.0
 11
69.2820323027550842
 21
-30.0
 31
0.0
  0
LINE
  5
6C
100
AcDbEntity
  8
0
 62
256
370
-1
 48
1.0
  6
BYLAYER
100
AcDbLine
 10
69.2820323027550842
 20
-30.0
 30
0.0
 11
69.2820323027550842
 21
-40.0
 31
0.0
  0
LINE
  5
6D
100
AcDbEntity
  8
0
 62
256
370
-1
 48
1.0
  6
BYLAYER
100
AcDbLine
 10
69.2820323027550842
 20
-40.0
 30
0.0
 11
77.9422863405994661
 21
-35.0
 31
0.0
  0
LINE
  5
6E
100
AcDbEntity
  8
0
 62
256
370
-1
 48
1.0
  6
BYLAYER
100
AcDbLine
 10
77.9422863405994661
 20
-35.0
 30
0.0
 11
77.9422863405994661
 21
-45.0
 31
0.0
  0
LINE
  5
6F
100
AcDbEntity
  8
0
 62
256
370
-1
 48
1.0
  6
BYLAYER
100
AcDbLine
 10
77.9422863405994661
 20
-45.0
 30
0.0
 11
86.6025403784438481
 21
-40.0
 31
0.0
  0
LINE
  5
70
100
AcDbEntity
  8
0
 62
256
370
-1
 48
1.0
  6
BYLAYER
100
AcDbLine
 10
86.6025403784438481
 20
-40.0
 30
0.0
 11
86.6025403784438481
 21
-50.0
 31
0.0
  0
LINE
  5
71
100
AcDbEntity
  8
0
 62
256
370
-1
 48
1.0
  6
BYLAYER
100
AcDbLine
 10
86.6025403784438481
 20
-50.0
 30
0.0
 11
95.2627944162882443
 21
-45.0
 31
0.0
  0
LINE
  5
72
100
AcDbEntity
  8
0
 62
256
370
-1
 48
1.0
  6
BYLAYER
100
AcDbLine
 10
95.2627944162882443
 20
-45.0
 30
0.0
 11
95.2627944162882443
 21
-55.0
 31
0.0
  0
LINE
  5
73
100
AcDbEntity
  8
0
 62
256
370
-1
 48
1.0
  6
BYLAYER
100
AcDbLine
 10
95.2627944162882443
 20
-55.0
 30
0.0
 11
103.9230484541326263
 21
-50.0
 31
0.0
  0
CIRCLE
  5
74
100
AcDbEntity
  8
0
 62
256
370
-1
 48
1.0
  6
BYLAYER
100
AcDbCircle
 10
-0.0
 20
0.0
 30
0.0
 40
1.0
  0
CIRCLE
  5
75
100
AcDbEntity
  8
0
 62
256
370
-1
 48
1.0
  6
BYLAYER
100
AcDbCircle
 10
8.6602540378443873
 20
5.0000000000000009
 30
0.0
 40
0.9999999999999986
  0
CIRCLE
  5
76
100
AcDbEntity
  8
0
 62
256
370
-1
 48
1.0
  6
BYLAYER
100
AcDbCircle
 10
17.320508075688771
 20
-10.0
 30
0.0
 40
0.9999999999999986
  0
CIRCLE
  5
77
100
AcDbEntity
  8
0
 62
256
370
-1
 48
1.0
  6
BYLAYER
100
AcDbCircle
 10
25.9807621135331566
 20
-4.9999999999999982
 30
0.0
 40
0.9999999999999986
  0
CIRCLE
  5
78
100
AcDbEntity
  8
0
 62
256
370
-1
 48
1.0
  6
BYLAYER
100
AcDbCircle
 10
25.9807621135331601
 20
-15.0
 30
0.0
 40
0.9999999999999986
  0
CIRCLE
  5
79
100
AcDbEntity
  8
0
 62
256
370
-1
 48
1.0
  6
BYLAYER
100
AcDbCircle
 10
34.6410161513775421
 20
-9.9999999999999982
 30
0.0
 40
0.9999999999999986
  0
CIRCLE
  5
7A
100
AcDbEntity
  8
0
 62
256
370
-1
 48
1.0
  6
BYLAYER
100
AcDbCircle
 10
34.641016151377535
 20
-20.0
 30
0.0
 40
0.9999999999999986
  0
CIRCLE
  5
7B
100
AcDbEntity
  8
0
 62
256
370
-1
 48
1.0
  6
BYLAYER
100
AcDbCircle
 10
43.3012701892219241
 20
-15.0
 30
0.0
 40
0.9999999999999986
  0
CIRCLE
  5
7C
100
AcDbEntity
  8
0
 62
256
370
-1
 48
1.0
  6
BYLAYER
100
AcDbCircle
 10
43.3012701892219312
 20
-25.0
 30
0.0
 40
0.9999999999999986
  0
CIRCLE
  5
7D
100
AcDbEntity
  8
0
 62
256
370
-1
 48
1.0
  6
BYLAYER
100
AcDbCircle
 10
51.9615242270663202
 20
-20.0
 30
0.0
 40
0.9999999999999986
  0
CIRCLE
  5
7E
100
AcDbEntity
  8
0
 62
256
370
-1
 48
1.0
  6
BYLAYER
100
AcDbCircle
 10
51.9615242270663131
 20
-30.0
 30
0.0
 40
0.9999999999999986
  0
CIRCLE
  5
7F
100
AcDbEntity
  8
0
 62
256
370
-1
 48
1.0
  6
BYLAYER
100
AcDbCircle
 10
60.6217782649107022
 20
-25.0000000000000036
 30
0.0
 40
0.9999999999999986
  0
CIRCLE
  5
80
100
AcDbEntity
  8
0
 62
256
370
-1
 48
1.0
  6
BYLAYER
100
AcDbCircle
 10
60.6217782649106951
 20
-35.0000000000000071
 30
0.0
 40
0.9999999999999986
  0
CIRCLE
  5
81
100
AcDbEntity
  8
0
 62
256
370
-1
 48
1.0
  6
BYLAYER
100
AcDbCircle
 10
69.28203230275507
 20
-30.0000000000000071
 30
0.0
 40
0.9999999999999986
  0
CIRCLE
  5
82
100
AcDbEntity
  8
0
 62
256
370
-1
 48
1.0
  6
BYLAYER
100
AcDbCircle
 10
69.28203230275507
 20
-40.0
 30
0.0
 40
0.9999999999999986
  0
CIRCLE
  5
83
100
AcDbEntity
  8
0
 62
256
370
-1
 48
1.0
  6
BYLAYER
100
AcDbCircle
 10
77.9422863405994661
 20
-35.0
 30
0.0
 40
0.9999999999999986
  0
CIRCLE
  5
84
100
AcDbEntity
  8
0
 62
256
370
-1
 48
1.0
  6
BYLAYER
100
AcDbCircle
 10
77.9422863405994661
 20
-45.0000000000000071
 30
0.0
 40
0.9999999999999986
  0
CIRCLE
  5
85
100
AcDbEntity
  8
0
 62
256
370
-1
 48
1.0
  6
BYLAYER
100
AcDbCircle
 10
86.6025403784438481
 20
-39.9999999999999929
 30
0.0
 40
0.9999999999999986
  0
CIRCLE
  5
86
100
AcDbEntity
  8
0
 62
256
370
-1
 48
1.0
  6
BYLAYER
100
AcDbCircle
 10
86.6025403784438481
 20
-49.9999999999999929
 30
0.0
 40
0.9999999999999986
  0
CIRCLE
  5
87
100
AcDbEntity
  8
0
 62
256
370
-1
 48
1.0
  6
BYLAYER
100
AcDbCircle
 10
95.2627944162882301
 20
-45.0
 30
0.0
 40
0.9999999999999986
  0
CIRCLE
  5
88
100
AcDbEntity
  8
0
 62
256
370
-1
 48
1.0
  6
BYLAYER
100
AcDbCircle
 10
95.2627944162882443
 20
-55.0
 30
0.0
 40
0.9999999999999986
  0
CIRCLE
  5
89
100
AcDbEntity
  8
0
 62
256
370
-1
 48
1.0
  6
BYLAYER
100
AcDbCircle
 10
103.9230484541326121
 20
-49.9999999999999929
 30
0.0
 40
0.9999999999999986
  0
CIRCLE
  5
8A
100
AcDbEntity
  8
0
 62
256
370
-1
 48
1.0
  6
BYLAYER
100
AcDbCircle
 10
51.9615242270663131
 20
29.9999999999999964
 30
0.0
 40
0.9999999999999986
  0
CIRCLE
  5
8B
100
AcDbEntity
  8
0
 62
256
370
-1
 48
1.0
  6
BYLAYER
100
AcDbCircle
 10
60.6217782649106951
 20
35.0
 30
0.0
 40
0.9999999999999986
  0
CIRCLE
  5
8C
100
AcDbEntity
  8
0
 62
256
370
-1
 48
1.0
  6
BYLAYER
100
AcDbCircle
 10
60.621778264910688
 20
24.9999999999999893
 30
0.0
 40
0.9999999999999986
  0
CIRCLE
  5
8D
100
AcDbEntity
  8
0
 62
256
370
-1
 48
1.0
  6
BYLAYER
100
AcDbCircle
 10
69.28203230275507
 20
29.9999999999999964
 30
0.0
 40
0.9999999999999986
  0
CIRCLE
  5
8E
100
AcDbEntity
  8
0
 62
256
370
-1
 48
1.0
  6
BYLAYER
100
AcDbCircle
 10
69.28203230275507
 20
20.0
 30
0.0
 40
0.9999999999999986
  0
CIRCLE
  5
8F
100
AcDbEntity
  8
0
 62
256
370
-1
 48
1.0
  6
BYLAYER
100
AcDbCircle
 10
77.9422863405994661
 20
25.0000000000000036
 30
0.0
 40
0.9999999999999986
  0
CIRCLE
  5
90
100
AcDbEntity
  8
0
 62
256
370
-1
 48
1.0
  6
BYLAYER
100
AcDbCircle
 10
77.9422863405994519
 20
14.9999999999999964
 30
0.0
 40
0.9999999999999986
  0
CIRCLE
  5
91
100
AcDbEntity
  8
0
 62
256
370
-1
 48
1.0
  6
BYLAYER
100
AcDbCircle
 10
86.6025403784438481
 20
20.0000000000000107
 30
0.0
 40
0.9999999999999986
  0
CIRCLE
  5
92
100
AcDbEntity
  8
0
 62
256
370
-1
 48
1.0
  6
BYLAYER
100
AcDbCircle
 10
86.6025403784438623
 20
9.9999999999999982
 30
0.0
 40
0.9999999999999986
  0
CIRCLE
  5
93
100
AcDbEntity
  8
0
 62
256
370
-1
 48
1.0
  6
BYLAYER
100
AcDbCircle
 10
95.2627944162882301
 20
15.0000000000000089
 30
0.0
 40
0.9999999999999986
  0
CIRCLE
  5
94
100
AcDbEntity
  8
0
 62
256
370
-1
 48
1.0
  6
BYLAYER
100
AcDbCircle
 10
95.2627944162882301
 20
4.9999999999999973
 30
0.0
 40
0.9999999999999986
  0
CIRCLE
  5
95
100
AcDbEntity
  8
0
 62
256
370
-1
 48
1.0
  6
BYLAYER
100
AcDbCircle
 10
103.9230484541326405
 20
10.0
 30
0.0
 40
0.9999999999999986
  0
CIRCLE
  5
96
100
AcDbEntity
  8
0
 62
256
370
-1
 48
1.0
  6
BYLAYER
100
AcDbCircle
 10
103.9230484541326405
 20
-0.000000000000007
 30
0.0
 40
0.9999999999999986
  0
CIRCLE
  5
97
100
AcDbEntity
  8
0
 62
256
370
-1
 48
1.0
  6
BYLAYER
100
AcDbCircle
 10
112.5833024919770082
 20
5.0000000000000009
 30
0.0
 40
0.9999999999999986
  0
CIRCLE
  5
98
100
AcDbEntity
  8
0
 62
256
370
-1
 48
1.0
  6
BYLAYER
100
AcDbCircle
 10
112.5833024919770224
 20
-5.0000000000000115
 30
0.0
 40
0.9999999999999986
  0
CIRCLE
  5
99
100
AcDbEntity
  8
0
 62
256
370
-1
 48
1.0
  6
BYLAYER
100
AcDbCircle
 10
121.2435565298213902
 20
0.0
 30
0.0
 40
0.9999999999999986
  0
CIRCLE
  5
9A
100
AcDbEntity
  8
0
 62
256
370
-1
 48
1.0
  6
BYLAYER
100
AcDbCircle
 10
121.2435565298214044
 20
-10.0000000000000018
 30
0.0
 40
0.9999999999999986
  0
CIRCLE
  5
9B
100
AcDbEntity
  8
0
 62
256
370
-1
 48
1.0
  6
BYLAYER
100
AcDbCircle
 10
129.9038105676657722
 20
-4.9999999999999911
 30
0.0
 40
0.9999999999999986
  0
CIRCLE
  5
9C
100
AcDbEntity
  8
0
 62
256
370
-1
 48
1.0
  6
BYLAYER
100
AcDbCircle
 10
129.9038105676657722
 20
-15.0000000000000089
 30
0.0
 40
0.9999999999999986
  0
CIRCLE
  5
9D
100
AcDbEntity
  8
0
 62
256
370
-1
 48
1.0
  6
BYLAYER
100
AcDbCircle
 10
138.5640646055101399
 20
-10.0000000000000018
 30
0.0
 40
0.9999999999999986
  0
CIRCLE
  5
9E
100
AcDbEntity
  8
0
 62
256
370
-1
 48
1.0
  6
BYLAYER
100
AcDbCircle
 10
138.5640646055101683
 20
-20.0000000000000036
 30
0.0
 40
0.9999999999999986
  0
CIRCLE
  5
9F
100
AcDbEntity
  8
0
 62
256
370
-1
 48
1.0
  6
BYLAYER
100
AcDbCircle
 10
147.224318643354593
 20
-14.9999999999999964
 30
0.0
 40
0.9999999999999986
  0
CIRCLE
  5
A0
100
AcDbEntity
  8
0
 62
256
370
-1
 48
1.0
  6
BYLAYER
100
AcDbCircle
 10
147.2243186433545645
 20
-25.0000000000000178
 30
0.0
 40
0.9999999999999986
  0
CIRCLE
  5
A1
100
AcDbEntity
  8
0
 62
256
370
-1
 48
1.0
  6
BYLAYER
100
AcDbCircle
 10
155.8845726811989607
 20
-20.0000000000000142
 30
0.0
 40
0.9999999999999986
  0
CIRCLE
  5
A2
100
AcDbEntity
  8
0
 62
256
370
-1
 48
1.0
  6
BYLAYER
100
AcDbCircle
 10
8.6602540378443855
 20
-5.0
 30
0.0
 40
1.0000000000000004
  0
CIRCLE
  5
A3
100
AcDbEntity
  8
0
 62
256
370
-1
 48
1.0
  6
BYLAYER
100
AcDbCircle
 10
17.320508075688771
 20
-0.0
 30
0.0
 40
1.000000000000002
  0
LINE
  5
A4
100
AcDbEntity
  8
0
 62
256
370
-1
 48
1.0
  6
BYLAYER
100
AcDbLine
 10
18.1865334794732121
 20
1.5
 30
0.0
 11
35.5070415551619831
 21
-8.5
 31
0.0
  0
LINE
  5
A5
100
AcDbEntity
  8
0
 62
256
370
-1
 48
1.0
  6
BYLAYER
100
AcDbLine
 10
106.5211246654859423
 20
-48.5
 30
0.0
 11
103.9230484541326405
 21
-49.9999999999999929
 31
0.0
  0
LINE
  5
A6
100
AcDbEntity
  8
0
 62
256
370
-1
 48
1.0
  6
BYLAYER
100
AcDbLine
 10
5.1961524227063496
 20
10.0000000000001616
 30
0.0
 11
19.9185842870420871
 21
1.5
 31
0.0
  0
LINE
  5
A7
100
AcDbEntity
  8
0
 62
256
370
-1
 48
1.0
  6
BYLAYER
100
AcDbLine
 10
103.9230484541326263
 20
-47.0
 30
0.0
 11
89.2006165897971783
 21
-38.5
 31
0.0
  0
LINE
  5
A8
100
AcDbEntity
  8
0
 62
256
370
-1
 48
1.0
  6
BYLAYER
100
AcDbLine
 10
0.0
 20
10.0000000000000018
 30
0.0
 11
2.598076211353316
 21
11.5
 31
0.0
  0
LINE
  5
A9
100
AcDbEntity
  8
0
 62
256
370
-1
 48
1.0
  6
BYLAYER
100
AcDbLine
 10
89.2006165897971783
 20
-39.5
 30
0.0
 11
71.0140831103239663
 21
-29.0
 31
0.0
  0
LINE
  5
AA
100
AcDbEntity
  8
0
 62
256
370
-1
 48
1.0
  6
BYLAYER
100
AcDbLine
 10
33.7749907475931082
 20
-8.5
 30
0.0
 11
71.0140831103239663
 21
-30.0
 31
0.0
  0
LINE
  5
AB
100
AcDbEntity
  8
0
 62
256
370
-1
 48
1.0
  6
BYLAYER
100
AcDbLine
 10
19.9185842870420871
 20
1.5
 30
0.0
 11
17.320508075688771
 21
-0.0
 31
0.0
  0
LINE
  5
AC
100
AcDbEntity
  8
0
 62
256
370
-1
 48
1.0
  6
BYLAYER
100
AcDbLine
 10
18.1865334794732121
 20
1.5
 30
0.0
 11
16.4544826719025252
 21
0.5000000000010445
 31
0.0
  0
LINE
  5
AD
100
AcDbEntity
  8
0
 62
256
370
-1
 48
1.0
  6
BYLAYER
100
AcDbLine
 10
103.9230484541335358
 20
-45.2939538456428679
 30
0.0
 11
102.1909976465628489
 21
-46.2939538456418234
 31
0.0
  0
LINE
  5
AE
100
AcDbEntity
  8
0
 62
256
370
-1
 48
1.0
  6
BYLAYER
100
AcDbLine
 10
149.82239485470879
 20
-18.7939538456428643
 30
0.0
 11
148.0903440471381032
 21
-19.7939538456418198
 31
0.0
  0
LINE
  5
AF
100
AcDbEntity
  8
0
 62
256
370
-1
 48
1.0
  6
BYLAYER
100
AcDbLine
 10
35.5070415551619831
 20
-8.5
 30
0.0
 11
33.7749907475930939
 21
-9.5
 31
0.0
  0
LINE
  5
B0
100
AcDbEntity
  8
0
 62
256
370
-1
 48
1.0
  6
BYLAYER
100
AcDbLine
 10
33.7749907475931082
 20
-8.5
 30
0.0
 11
32.9089653438086671
 21
-9.0
 31
0.0
  0
LINE
  5
B1
100
AcDbEntity
  8
0
 62
256
370
-1
 48
1.0
  6
BYLAYER
100
AcDbLine
 10
71.0140831103239663
 20
-29.0
 30
0.0
 11
69.28203230275507
 21
-30.0000000000000071
 31
0.0
  0
LINE
  5
B2
100
AcDbEntity
  8
0
 62
256
370
-1
 48
1.0
  6
BYLAYER
100
AcDbLine
 10
71.0140831103239663
 20
-30.0
 30
0.0
 11
70.1480577065395181
 21
-30.4999999999999964
 31
0.0
  0
LINE
  5
B3
100
AcDbEntity
  8
0
 62
256
370
-1
 48
1.0
  6
BYLAYER
100
AcDbLine
 10
89.2006165897971783
 20
-39.5
 30
0.0
 11
87.4685657822283389
 21
-40.5000000000000284
 31
0.0
  0
LINE
  5
B4
100
AcDbEntity
  8
0
 62
256
370
-1
 48
1.0
  6
BYLAYER
100
AcDbLine
 10
89.2006165897971783
 20
-38.5
 30
0.0
 11
86.6025403784438765
 21
-40.0
 31
0.0
  0
LINE
  5
B5
100
AcDbEntity
  8
0
 62
256
370
-1
 48
1.0
  6
BYLAYER
100
AcDbLine
 10
5.1961524227066311
 20
0.0
 30
0.0
 11
103.9230484541326263
 21
-57.0
 31
0.0
  0
LINE
  5
B6
100
AcDbEntity
  8
0
 62
256
370
-1
 48
1.0
  6
BYLAYER
100
AcDbLine
 10
103.9230484541326263
 20
-60.0
 30
0.0
 11
106.5211246654859423
 21
-58.5
 31
0.0
  0
LINE
  5
B7
100
AcDbEntity
  8
0
 62
256
370
-1
 48
1.0
  6
BYLAYER
100
AcDbLine
 10
106.5211246654859423
 20
-58.5
 30
0.0
 11
106.5211246654859423
 21
-48.5000000000000071
 31
0.0
  0
LINE
  5
B8
100
AcDbEntity
  8
0
 62
256
370
-1
 48
1.0
  6
BYLAYER
100
AcDbLine
 10
2.5980762113533156
 20
11.5000000000000018
 30
0.0
 11
49.3634480157129971
 21
38.5
 31
0.0
  0
LINE
  5
B9
100
AcDbEntity
  8
0
 62
256
370
-1
 48
1.0
  6
BYLAYER
100
AcDbLine
 10
153.2864964698456447
 20
-21.5
 30
0.0
 11
106.5211246654859565
 21
-48.4999999999999929
 31
0.0
  0
LINE
  5
BA
100
AcDbEntity
  8
0
 62
256
370
-1
 48
1.0
  6
BYLAYER
100
AcDbLine
 10
153.2864964698456447
 20
-21.5000000000000036
 30
0.0
 11
155.8845726811989607
 21
-20.0
 31
0.0
  0
LINE
  5
BB
100
AcDbEntity
  8
0
 62
256
370
-1
 48
1.0
  6
BYLAYER
100
AcDbLine
 10
155.8845726811989607
 20
-20.0
 30
0.0
 11
155.8845726811989607
 21
-30.0
 31
0.0
  0
LINE
  5
BC
100
AcDbEntity
  8
0
 62
256
370
-1
 48
1.0
  6
BYLAYER
100
AcDbLine
 10
155.8845726811989607
 20
-30.0
 30
0.0
 11
106.5211246654859565
 21
-58.5
 31
0.0
  0
LINE
  5
BD
100
AcDbEntity
  8
0
 62
256
370
-1
 48
1.0
  6
BYLAYER
100
AcDbLine
 10
51.9615242270663131
 20
40.0
 30
0.0
 11
155.8845726811989607
 21
-20.0
 31
0.0
  0
LINE
  5
BE
100
AcDbEntity
  8
0
 62
256
370
-1
 48
1.0
  6
BYLAYER
100
AcDbLine
 10
51.9615242270663131
 20
40.0
 30
0.0
 11
51.9615242270663131
 21
30.0
 31
0.0
  0
LINE
  5
BF
100
AcDbEntity
  8
0
 62
256
370
-1
 48
1.0
  6
BYLAYER
100
AcDbLine
 10
51.9615242270663131
 20
30.0
 30
0.0
 11
155.8845726811989607
 21
-30.0000000000000142
 31
0.0
  0
LINE
  5
C0
100
AcDbEntity
  8
0
 62
256
370
-1
 48
1.0
  6
BYLAYER
100
AcDbLine
 10
51.9615242270663131
 20
29.9999999999999964
 30
0.0
 11
60.6217782649107022
 21
35.0
 31
0.0
  0
LINE
  5
C1
100
AcDbEntity
  8
0
 62
256
370
-1
 48
1.0
  6
BYLAYER
100
AcDbLine
 10
60.6217782649107022
 20
35.0
 30
0.0
 11
60.6217782649107022
 21
25.0
 31
0.0
  0
LINE
  5
C2
100
AcDbEntity
  8
0
 62
256
370
-1
 48
1.0
  6
BYLAYER
100
AcDbLine
 10
60.6217782649107022
 20
25.0
 30
0.0
 11
69.2820323027550842
 21
30.0
 31
0.0
  0
LINE
  5
C3
100
AcDbEntity
  8
0
 62
256
370
-1
 48
1.0
  6
BYLAYER
100
AcDbLine
 10
69.2820323027550842
 20
30.0
 30
0.0
 11
69.2820323027550842
 21
20.0
 31
0.0
  0
LINE
  5
C4
100
AcDbEntity
  8
0
 62
256
370
-1
 48
1.0
  6
BYLAYER
100
AcDbLine
 10
69.2820323027550842
 20
20.0
 30
0.0
 11
77.9422863405994661
 21
25.0
 31
0.0
  0
LINE
  5
C5
100
AcDbEntity
  8
0
 62
256
370
-1
 48
1.0
  6
BYLAYER
100
AcDbLine
 10
77.9422863405994661
 20
25.0
 30
0.0
 11
77.9422863405994661
 21
15.0
 31
0.0
  0
LINE
  5
C6
100
AcDbEntity
  8
0
 62
256
370
-1
 48
1.0
  6
BYLAYER
100
AcDbLine
 10
77.9422863405994661
 20
14.9999999999999964
 30
0.0
 11
86.6025403784438481
 21
20.0
 31
0.0
  0
LINE
  5
C7
100
AcDbEntity
  8
0
 62
256
370
-1
 48
1.0
  6
BYLAYER
100
AcDbLine
 10
86.6025403784438481
 20
20.0
 30
0.0
 11
86.6025403784438481
 21
10.0
 31
0.0
  0
LINE
  5
C8
100
AcDbEntity
  8
0
 62
256
370
-1
 48
1.0
  6
BYLAYER
100
AcDbLine
 10
86.6025403784438481
 20
10.0
 30
0.0
 11
95.2627944162882443
 21
15.0
 31
0.0
  0
LINE
  5
C9
100
AcDbEntity
  8
0
 62
256
370
-1
 48
1.0
  6
BYLAYER
100
AcDbLine
 10
95.2627944162882443
 20
15.0
 30
0.0
 11
95.2627944162882443
 21
5.0
 31
0.0
  0
LINE
  5
CA
100
AcDbEntity
  8
0
 62
256
370
-1
 48
1.0
  6
BYLAYER
100
AcDbLine
 10
95.2627944162882301
 20
4.9999999999999938
 30
0.0
 11
103.9230484541326405
 21
10.0
 31
0.0
  0
LINE
  5
CB
100
AcDbEntity
  8
0
 62
256
370
-1
 48
1.0
  6
BYLAYER
100
AcDbLine
 10
103.9230484541326405
 20
10.0
 30
0.0
 11
103.9230484541326405
 21
-0.0000000000000071
 31
0.0
  0
LINE
  5
CC
100
AcDbEntity
  8
0
 62
256
370
-1
 48
1.0
  6
BYLAYER
100
AcDbLine
 10
103.9230484541326405
 20
-0.0000000000000071
 30
0.0
 11
112.5833024919770082
 21
5.0
 31
0.0
  0
LINE
  5
CD
100
AcDbEntity
  8
0
 62
256
370
-1
 48
1.0
  6
BYLAYER
100
AcDbLine
 10
112.5833024919770082
 20
5.0
 30
0.0
 11
112.5833024919770082
 21
-5.0
 31
0.0
  0
LINE
  5
CE
100
AcDbEntity
  8
0
 62
256
370
-1
 48
1.0
  6
BYLAYER
100
AcDbLine
 10
112.5833024919770082
 20
-5.0
 30
0.0
 11
121.2435565298214044
 21
0.0
 31
0.0
  0
LINE
  5
CF
100
AcDbEntity
  8
0
 62
256
370
-1
 48
1.0
  6
BYLAYER
100
AcDbLine
 10
121.2435565298214044
 20
0.0
 30
0.0
 11
121.2435565298214044
 21
-10.0
 31
0.0
  0
LINE
  5
D0
100
AcDbEntity
  8
0
 62
256
370
-1
 48
1.0
  6
BYLAYER
100
AcDbLine
 10
121.2435565298214044
 20
-10.0
 30
0.0
 11
129.9038105676657722
 21
-5.0
 31
0.0
  0
LINE
  5
D1
100
AcDbEntity
  8
0
 62
256
370
-1
 48
1.0
  6
BYLAYER
100
AcDbLine
 10
129.9038105676657722
 20
-5.0
 30
0.0
 11
129.9038105676657722
 21
-15.0
 31
0.0
  0
LINE
  5
D2
100
AcDbEntity
  8
0
 62
256
370
-1
 48
1.0
  6
BYLAYER
100
AcDbLine
 10
129.9038105676657722
 20
-15.0
 30
0.0
 11
138.5640646055101683
 21
-10.0
 31
0.0
  0
LINE
  5
D3
100
AcDbEntity
  8
0
 62
256
370
-1
 48
1.0
  6
BYLAYER
100
AcDbLine
 10
138.5640646055101683
 20
-10.0
 30
0.0
 11
138.5640646055101683
 21
-20.0
 31
0.0
  0
LINE
  5
D4
100
AcDbEntity
  8
0
 62
256
370
-1
 48
1.0
  6
BYLAYER
100
AcDbLine
 10
138.5640646055101683
 20
-20.0
 30
0.0
 11
147.2243186433545645
 21
-15.0
 31
0.0
  0
LINE
  5
D5
100
AcDbEntity
  8
0
 62
256
370
-1
 48
1.0
  6
BYLAYER
100
AcDbLine
 10
147.2243186433545645
 20
-15.0
 30
0.0
 11
147.2243186433545645
 21
-25.0000000000000142
 31
0.0
  0
LINE
  5
D6
100
AcDbEntity
  8
0
 62
256
370
-1
 48
1.0
  6
BYLAYER
100
AcDbLine
 10
147.2243186433545645
 20
-25.0000000000000142
 30
0.0
 11
155.8845726811989607
 21
-20.0
 31
0.0
  0
LINE
  5
D7
100
AcDbEntity
  8
0
 62
256
370
-1
 48
1.0
  6
BYLAYER
100
AcDbLine
 10
51.9615242270663131
 20
36.9812871585252623
 30
0.0
 11
66.6839560914017682
 21
28.5
 31
0.0
  0
LINE
  5
D8
100
AcDbEntity
  8
0
 62
256
370
-1
 48
1.0
  6
BYLAYER
100
AcDbLine
 10
66.6839560914017682
 20
29.5
 30
0.0
 11
84.0044641670905463
 21
19.5
 31
0.0
  0
LINE
  5
D9
100
AcDbEntity
  8
0
 62
256
370
-1
 48
1.0
  6
BYLAYER
100
AcDbLine
 10
84.0044641670905463
 20
20.5
 30
0.0
 11
104.7890738579170744
 21
8.5
 31
0.0
  0
LINE
  5
DA
100
AcDbEntity
  8
0
 62
256
370
-1
 48
1.0
  6
BYLAYER
100
AcDbLine
 10
103.0570230503481923
 20
8.5
 30
0.0
 11
121.2435565298214044
 21
-2.0
 31
0.0
  0
LINE
  5
DB
100
AcDbEntity
  8
0
 62
256
370
-1
 48
1.0
  6
BYLAYER
100
AcDbLine
 10
119.5115057222525223
 20
-2.0
 30
0.0
 11
150.6884202584923571
 21
-20.0000000000000107
 31
0.0
  0
LINE
  5
DC
100
AcDbEntity
  8
0
 62
256
370
-1
 48
1.0
  6
BYLAYER
100
AcDbLine
 10
66.6839560914017824
 20
28.5
 30
0.0
 11
69.28203230275507
 21
30.0000000000000036
 31
0.0
  0
LINE
  5
DD
100
AcDbEntity
  8
0
 62
256
370
-1
 48
1.0
  6
BYLAYER
100
AcDbLine
 10
65.8179306876173342
 20
29.0
 30
0.0
 11
65.8179306876173342
 21
29.0
 31
0.0
  0
LINE
  5
DE
100
AcDbEntity
  8
0
 62
256
370
-1
 48
1.0
  6
BYLAYER
100
AcDbLine
 10
68.4160068989705792
 20
30.5000000000000355
 30
0.0
 11
66.6839560914017682
 21
29.5
 31
0.0
  0
LINE
  5
DF
100
AcDbEntity
  8
0
 62
256
370
-1
 48
1.0
  6
BYLAYER
100
AcDbLine
 10
84.0044641670905463
 20
19.5
 30
0.0
 11
85.7365149746595137
 21
20.4999999999999432
 31
0.0
  0
LINE
  5
E0
100
AcDbEntity
  8
0
 62
256
370
-1
 48
1.0
  6
BYLAYER
100
AcDbLine
 10
84.0044641670905463
 20
20.5
 30
0.0
 11
84.8704895708749802
 21
21.0
 31
0.0
  0
LINE
  5
E1
100
AcDbEntity
  8
0
 62
256
370
-1
 48
1.0
  6
BYLAYER
100
AcDbLine
 10
103.9230484541326263
 20
8.9999999999999947
 30
0.0
 11
104.7890738579170886
 21
9.4999999999999964
 31
0.0
  0
LINE
  5
E2
100
AcDbEntity
  8
0
 62
256
370
-1
 48
1.0
  6
BYLAYER
100
AcDbLine
 10
103.0570230503481923
 20
8.5
 30
0.0
 11
104.7890738579170744
 21
9.4999999999999858
 31
0.0
  0
LINE
  5
E3
100
AcDbEntity
  8
0
 62
256
370
-1
 48
1.0
  6
BYLAYER
100
AcDbLine
 10
104.7890738579170744
 20
8.5
 30
0.0
 11
105.6550992617015083
 21
9.0
 31
0.0
  0
LINE
  5
E4
100
AcDbEntity
  8
0
 62
256
370
-1
 48
1.0
  6
BYLAYER
100
AcDbLine
 10
119.5115057222525223
 20
-2.0
 30
0.0
 11
122.1095819336058526
 21
-0.5
 31
0.0
  0
LINE
  5
E5
100
AcDbEntity
  8
0
 62
256
370
-1
 48
1.0
  6
BYLAYER
100
AcDbLine
 10
121.2435565298214044
 20
-1.9999999999999887
 30
0.0
 11
122.9756073373902865
 21
-1.0
 31
0.0
  0
LINE
  5
E6
100
AcDbEntity
  8
0
 62
256
370
-1
 48
1.0
  6
BYLAYER
100
AcDbLine
 10
-0.0
 20
0.0
 30
0.0
 11
51.9615242270663202
 21
30.0000000000000036
 31
0.0
  0
LINE
  5
E7
100
AcDbEntity
  8
0
 62
256
370
-1
 48
1.0
  6
BYLAYER
100
AcDbLine
 10
2.5980762113533156
 20
11.5000000000000018
 30
0.0
 11
51.9615242270663131
 21
40.0
 31
0.0
  0
ARC
  5
E8
100
AcDbEntity
  8
0
 62
256
370
-1
 48
1.0
  6
BYLAYER
100
AcDbCircle
 10
0.0309294787067807
 20
72.9464285714282994
 30
0.0
 40
63.1579955188506048
100
AcDbArc
 50
274.6910350636686644
 51
325.3089649363312788
  0
ARC
  5
E9
100
AcDbEntity
  8
0
 62
256
370
-1
 48
1.0
  6
BYLAYER
100
AcDbCircle
 10
5.3900959153731627
 20
7.4004076912855581
 30
0.0
 40
2.0116846174288847
100
AcDbArc
 50
36.1783906951826921
 51
203.821609304817315
  0
ARC
  5
EA
100
AcDbEntity
  8
0
 62
256
370
-1
 48
1.0
  6
BYLAYER
100
AcDbCircle
 10
53.8875185273017294
 20
36.4004076912855581
 30
0.0
 40
2.0116846174288847
100
AcDbArc
 50
36.1783906951826921
 51
203.821609304817315
  0
ARC
  5
EB
100
AcDbEntity
  8
0
 62
256
370
-1
 48
1.0
  6
BYLAYER
100
AcDbCircle
 10
54.7535439310861634
 20
35.9004076912855581
 30
0.0
 40
2.0116846174288847
100
AcDbArc
 50
36.1783906951826921
 51
203.821609304817315
  0
ARC
  5
EC
100
AcDbEntity
  8
0
 62
256
370
-1
 48
1.0
  6
BYLAYER
100
AcDbCircle
 10
55.6195693348706044
 20
35.4004076912855581
 30
0.0
 40
2.0116846174288847
100
AcDbArc
 50
36.1783906951826921
 51
203.821609304817315
  0
ARC
  5
ED
100
AcDbEntity
  8
0
 62
256
370
-1
 48
1.0
  6
BYLAYER
100
AcDbCircle
 10
56.4855947386550454
 20
34.9004076912855581
 30
0.0
 40
2.0116846174288847
100
AcDbArc
 50
36.1783906951826921
 51
203.821609304817315
  0
ARC
  5
EE
100
AcDbEntity
  8
0
 62
256
370
-1
 48
1.0
  6
BYLAYER
100
AcDbCircle
 10
57.3516201424394794
 20
34.4004076912855581
 30
0.0
 40
2.0116846174288847
100
AcDbArc
 50
36.1783906951826921
 51
203.821609304817315
  0
ARC
  5
EF
100
AcDbEntity
  8
0
 62
256
370
-1
 48
1.0
  6
BYLAYER
100
AcDbCircle
 10
58.2176455462239204
 20
33.9004076912855581
 30
0.0
 40
2.0116846174288847
100
AcDbArc
 50
36.1783906951826921
 51
203.821609304817315
  0
ARC
  5
F0
100
AcDbEntity
  8
0
 62
256
370
-1
 48
1.0
  6
BYLAYER
100
AcDbCircle
 10
59.0836709500083614
 20
33.4004076912855581
 30
0.0
 40
2.0116846174288847
100
AcDbArc
 50
36.1783906951826921
 51
203.821609304817315
  0
ARC
  5
F1
100
AcDbEntity
  8
0
 62
256
370
-1
 48
1.0
  6
BYLAYER
100
AcDbCircle
 10
59.9496963537927954
 20
32.9004076912855581
 30
0.0
 40
2.0116846174288847
100
AcDbArc
 50
36.1783906951826921
 51
203.821609304817315
  0
ARC
  5
F2
100
AcDbEntity
  8
0
 62
256
370
-1
 48
1.0
  6
BYLAYER
100
AcDbCircle
 10
60.8157217575772364
 20
32.4004076912855581
 30
0.0
 40
2.0116846174288847
100
AcDbArc
 50
36.1783906951826921
 51
203.821609304817315
  0
ARC
  5
F3
100
AcDbEntity
  8
0
 62
256
370
-1
 48
1.0
  6
BYLAYER
100
AcDbCircle
 10
61.6817471613616775
 20
31.9004076912855581
 30
0.0
 40
2.0116846174288847
100
AcDbArc
 50
36.1783906951826921
 51
203.821609304817315
  0
ARC
  5
F4
100
AcDbEntity
  8
0
 62
256
370
-1
 48
1.0
  6
BYLAYER
100
AcDbCircle
 10
62.5477725651461114
 20
31.4004076912855581
 30
0.0
 40
2.0116846174288847
100
AcDbArc
 50
36.1783906951826921
 51
203.821609304817315
  0
ARC
  5
F5
100
AcDbEntity
  8
0
 62
256
370
-1
 48
1.0
  6
BYLAYER
100
AcDbCircle
 10
63.4137979689305524
 20
30.9004076912855581
 30
0.0
 40
2.0116846174288847
100
AcDbArc
 50
36.1783906951826921
 51
203.821609304817315
  0
ARC
  5
F6
100
AcDbEntity
  8
0
 62
256
370
-1
 48
1.0
  6
BYLAYER
100
AcDbCircle
 10
64.2798233727149864
 20
30.4004076912855581
 30
0.0
 40
2.0116846174288847
100
AcDbArc
 50
36.1783906951826921
 51
203.821609304817315
  0
ARC
  5
F7
100
AcDbEntity
  8
0
 62
256
370
-1
 48
1.0
  6
BYLAYER
100
AcDbCircle
 10
65.1458487764994345
 20
29.9004076912855581
 30
0.0
 40
2.0116846174288847
100
AcDbArc
 50
36.1783906951826921
 51
203.821609304817315
  0
ARC
  5
F8
100
AcDbEntity
  8
0
 62
256
370
-1
 48
1.0
  6
BYLAYER
100
AcDbCircle
 10
66.0118741802838684
 20
29.4004076912855581
 30
0.0
 40
2.0116846174288847
100
AcDbArc
 50
36.1783906951826921
 51
203.821609304817315
  0
ARC
  5
F9
100
AcDbEntity
  8
0
 62
256
370
-1
 48
1.0
  6
BYLAYER
100
AcDbCircle
 10
6.2561213191576019
 20
6.9004076912855581
 30
0.0
 40
2.0116846174288847
100
AcDbArc
 50
36.1783906951826921
 51
203.821609304817315
  0
ARC
  5
FA
100
AcDbEntity
  8
0
 62
256
370
-1
 48
1.0
  6
BYLAYER
100
AcDbCircle
 10
7.1221467229420394
 20
6.4004076912855581
 30
0.0
 40
2.0116846174288847
100
AcDbArc
 50
36.1783906951826921
 51
203.821609304817315
  0
ARC
  5
FB
100
AcDbEntity
  8
0
 62
256
370
-1
 48
1.0
  6
BYLAYER
100
AcDbCircle
 10
7.9881721267264787
 20
5.9004076912855581
 30
0.0
 40
2.0116846174288847
100
AcDbArc
 50
36.1783906951826921
 51
203.821609304817315
  0
ARC
  5
FC
100
AcDbEntity
  8
0
 62
256
370
-1
 48
1.0
  6
BYLAYER
100
AcDbCircle
 10
8.854197530510918
 20
5.4004076912855572
 30
0.0
 40
2.0116846174288847
100
AcDbArc
 50
36.1783906951826921
 51
203.821609304817315
  0
ARC
  5
FD
100
AcDbEntity
  8
0
 62
256
370
-1
 48
1.0
  6
BYLAYER
100
AcDbCircle
 10
9.720222934295359
 20
4.9004076912855599
 30
0.0
 40
2.0116846174288847
100
AcDbArc
 50
36.1783906951826921
 51
203.821609304817315
  0
ARC
  5
FE
100
AcDbEntity
  8
0
 62
256
370
-1
 48
1.0
  6
BYLAYER
100
AcDbCircle
 10
10.5862483380797947
 20
4.4004076912855581
 30
0.0
 40
2.0116846174288847
100
AcDbArc
 50
36.1783906951826921
 51
203.821609304817315
  0
ARC
  5
FF
100
AcDbEntity
  8
0
 62
256
370
-1
 48
1.0
  6
BYLAYER
100
AcDbCircle
 10
11.4522737418642322
 20
3.9004076912855581
 30
0.0
 40
2.0116846174288847
100
AcDbArc
 50
36.1783906951826921
 51
203.821609304817315
  0
ARC
  5
100
100
AcDbEntity
  8
0
 62
256
370
-1
 48
1.0
  6
BYLAYER
100
AcDbCircle
 10
12.3182991456486715
 20
3.4004076912855581
 30
0.0
 40
2.0116846174288847
100
AcDbArc
 50
36.1783906951826921
 51
203.821609304817315
  0
ARC
  5
101
100
AcDbEntity
  8
0
 62
256
370
-1
 48
1.0
  6
BYLAYER
100
AcDbCircle
 10
13.1843245494331089
 20
2.9004076912855581
 30
0.0
 40
2.0116846174288847
100
AcDbArc
 50
36.1783906951826921
 51
203.821609304817315
  0
ARC
  5
102
100
AcDbEntity
  8
0
 62
256
370
-1
 48
1.0
  6
BYLAYER
100
AcDbCircle
 10
14.0503499532175482
 20
2.4004076912855581
 30
0.0
 40
2.0116846174288847
100
AcDbArc
 50
36.1783906951826921
 51
203.821609304817315
  0
ARC
  5
103
100
AcDbEntity
  8
0
 62
256
370
-1
 48
1.0
  6
BYLAYER
100
AcDbCircle
 10
14.9163753570019875
 20
1.9004076912855581
 30
0.0
 40
2.0116846174288847
100
AcDbArc
 50
36.1783906951826921
 51
203.821609304817315
  0
ARC
  5
104
100
AcDbEntity
  8
0
 62
256
370
-1
 48
1.0
  6
BYLAYER
100
AcDbCircle
 10
15.782400760786425
 20
1.4004076912855581
 30
0.0
 40
2.0116846174288847
100
AcDbArc
 50
36.1783906951826921
 51
203.821609304817315
  0
ARC
  5
105
100
AcDbEntity
  8
0
 62
256
370
-1
 48
1.0
  6
BYLAYER
100
AcDbCircle
 10
15.782400760786425
 20
1.4004076912855581
 30
0.0
 40
2.0116846174288847
100
AcDbArc
 50
36.1783906951826921
 51
203.821609304817315
  0
ARC
  5
106
100
AcDbEntity
  8
0
 62
256
370
-1
 48
1.0
  6
BYLAYER
100
AcDbCircle
 10
16.6484261645708642
 20
0.9004076912855581
 30
0.0
 40
2.0116846174288847
100
AcDbArc
 50
36.1783906951826921
 51
203.821609304817315
  0
ARC
  5
107
100
AcDbEntity
  8
0
 62
256
370
-1
 48
1.0
  6
BYLAYER
100
AcDbCircle
 10
17.5144515683534969
 20
0.4004076912855599
 30
0.0
 40
2.0116846174288847
100
AcDbArc
 50
36.1783906951826921
 51
203.821609304817315
  0
ARC
  5
108
100
AcDbEntity
  8
0
 62
256
370
-1
 48
1.0
  6
BYLAYER
100
AcDbCircle
 10
91.1266108900334899
 20
-39.3935461543573098
 30
0.0
 40
2.0116846174288847
100
AcDbArc
 50
36.1783906951826921
 51
203.821609304817315
  0
ARC
  5
109
100
AcDbEntity
  8
0
 62
256
370
-1
 48
1.0
  6
BYLAYER
100
AcDbCircle
 10
91.9926362938179238
 20
-39.8935461543573098
 30
0.0
 40
2.0116846174288847
100
AcDbArc
 50
36.1783906951826921
 51
203.821609304817315
  0
ARC
  5
10A
100
AcDbEntity
  8
0
 62
256
370
-1
 48
1.0
  6
BYLAYER
100
AcDbCircle
 10
92.858661697602372
 20
-40.3935461543573098
 30
0.0
 40
2.0116846174288847
100
AcDbArc
 50
36.1783906951826921
 51
203.821609304817315
  0
ARC
  5
10B
100
AcDbEntity
  8
0
 62
256
370
-1
 48
1.0
  6
BYLAYER
100
AcDbCircle
 10
93.7246871013868059
 20
-40.8935461543573098
 30
0.0
 40
2.0116846174288847
100
AcDbArc
 50
36.1783906951826921
 51
203.821609304817315
  0
ARC
  5
10C
100
AcDbEntity
  8
0
 62
256
370
-1
 48
1.0
  6
BYLAYER
100
AcDbCircle
 10
94.5907125051712399
 20
-41.3935461543573098
 30
0.0
 40
2.0116846174288847
100
AcDbArc
 50
36.1783906951826921
 51
203.821609304817315
  0
ARC
  5
10D
100
AcDbEntity
  8
0
 62
256
370
-1
 48
1.0
  6
BYLAYER
100
AcDbCircle
 10
95.456737908955688
 20
-41.8935461543573027
 30
0.0
 40
2.0116846174288847
100
AcDbArc
 50
36.1783906951826921
 51
203.821609304817315
  0
ARC
  5
10E
100
AcDbEntity
  8
0
 62
256
370
-1
 48
1.0
  6
BYLAYER
100
AcDbCircle
 10
96.3227633127401219
 20
-42.3935461543573098
 30
0.0
 40
2.0116846174288847
100
AcDbArc
 50
36.1783906951826921
 51
203.821609304817315
  0
ARC
  5
10F
100
AcDbEntity
  8
0
 62
256
370
-1
 48
1.0
  6
BYLAYER
100
AcDbCircle
 10
97.1887887165245559
 20
-42.8935461543573098
 30
0.0
 40
2.0116846174288847
100
AcDbArc
 50
36.1783906951826921
 51
203.821609304817315
  0
ARC
  5
110
100
AcDbEntity
  8
0
 62
256
370
-1
 48
1.0
  6
BYLAYER
100
AcDbCircle
 10
98.054814120309004
 20
-43.3935461543573098
 30
0.0
 40
2.0116846174288847
100
AcDbArc
 50
36.1783906951826921
 51
203.821609304817315
  0
ARC
  5
111
100
AcDbEntity
  8
0
 62
256
370
-1
 48
1.0
  6
BYLAYER
100
AcDbCircle
 10
98.9208395240934379
 20
-43.8935461543573098
 30
0.0
 40
2.0116846174288847
100
AcDbArc
 50
36.1783906951826921
 51
203.821609304817315
  0
ARC
  5
112
100
AcDbEntity
  8
0
 62
256
370
-1
 48
1.0
  6
BYLAYER
100
AcDbCircle
 10
99.7868649278778719
 20
-44.3935461543573098
 30
0.0
 40
2.0116846174288847
100
AcDbArc
 50
36.1783906951826921
 51
203.821609304817315
  0
ARC
  5
113
100
AcDbEntity
  8
0
 62
256
370
-1
 48
1.0
  6
BYLAYER
100
AcDbCircle
 10
100.65289033166232
 20
-44.8935461543573098
 30
0.0
 40
2.0116846174288847
100
AcDbArc
 50
36.1783906951826921
 51
203.821609304817315
  0
ARC
  5
114
100
AcDbEntity
  8
0
 62
256
370
-1
 48
1.0
  6
BYLAYER
100
AcDbCircle
 10
101.518915735446754
 20
-45.3935461543573098
 30
0.0
 40
2.0116846174288847
100
AcDbArc
 50
36.1783906951826921
 51
203.821609304817315
  0
ARC
  5
115
100
AcDbEntity
  8
0
 62
256
370
-1
 48
1.0
  6
BYLAYER
100
AcDbCircle
 10
101.518915735446754
 20
-45.3935461543573098
 30
0.0
 40
2.0116846174288847
100
AcDbArc
 50
36.1783906951826921
 51
203.821609304817315
  0
ARC
  5
116
100
AcDbEntity
  8
0
 62
256
370
-1
 48
1.0
  6
BYLAYER
100
AcDbCircle
 10
102.3849411392311879
 20
-45.8935461543573098
 30
0.0
 40
2.0116846174288847
100
AcDbArc
 50
36.1783906951826921
 51
203.821609304817315
  0
ARC
  5
117
100
AcDbEntity
  8
0
 62
256
370
-1
 48
1.0
  6
BYLAYER
100
AcDbCircle
 10
103.250966543013817
 20
-46.3935461543573027
 30
0.0
 40
2.0116846174288847
100
AcDbArc
 50
36.1783906951826921
 51
203.821609304817315
  0
ARC
  5
118
100
AcDbEntity
  8
0
 62
256
370
-1
 48
1.0
  6
BYLAYER
100
AcDbCircle
 10
137.0259572906087442
 20
-12.8935461543573062
 30
0.0
 40
2.0116846174288847
100
AcDbArc
 50
36.1783906951826921
 51
203.821609304817315
  0
ARC
  5
119
100
AcDbEntity
  8
0
 62
256
370
-1
 48
1.0
  6
BYLAYER
100
AcDbCircle
 10
137.8919826943931923
 20
-13.3935461543573062
 30
0.0
 40
2.0116846174288847
100
AcDbArc
 50
36.1783906951826921
 51
203.821609304817315
  0
ARC
  5
11A
100
AcDbEntity
  8
0
 62
256
370
-1
 48
1.0
  6
BYLAYER
100
AcDbCircle
 10
138.7580080981776121
 20
-13.8935461543573062
 30
0.0
 40
2.0116846174288847
100
AcDbArc
 50
36.1783906951826921
 51
203.821609304817315
  0
ARC
  5
11B
100
AcDbEntity
  8
0
 62
256
370
-1
 48
1.0
  6
BYLAYER
100
AcDbCircle
 10
139.6240335019620602
 20
-14.3935461543573062
 30
0.0
 40
2.0116846174288847
100
AcDbArc
 50
36.1783906951826921
 51
203.821609304817315
  0
ARC
  5
11C
100
AcDbEntity
  8
0
 62
256
370
-1
 48
1.0
  6
BYLAYER
100
AcDbCircle
 10
140.4900589057465083
 20
-14.893546154357308
 30
0.0
 40
2.0116846174288847
100
AcDbArc
 50
36.1783906951826921
 51
203.821609304817315
  0
ARC
  5
11D
100
AcDbEntity
  8
0
 62
256
370
-1
 48
1.0
  6
BYLAYER
100
AcDbCircle
 10
141.3560843095309281
 20
-15.3935461543573062
 30
0.0
 40
2.0116846174288847
100
AcDbArc
 50
36.1783906951826921
 51
203.821609304817315
  0
ARC
  5
11E
100
AcDbEntity
  8
0
 62
256
370
-1
 48
1.0
  6
BYLAYER
100
AcDbCircle
 10
142.2221097133153762
 20
-15.8935461543573062
 30
0.0
 40
2.0116846174288847
100
AcDbArc
 50
36.1783906951826921
 51
203.821609304817315
  0
ARC
  5
11F
100
AcDbEntity
  8
0
 62
256
370
-1
 48
1.0
  6
BYLAYER
100
AcDbCircle
 10
143.0881351170998244
 20
-16.3935461543573062
 30
0.0
 40
2.0116846174288847
100
AcDbArc
 50
36.1783906951826921
 51
203.821609304817315
  0
ARC
  5
120
100
AcDbEntity
  8
0
 62
256
370
-1
 48
1.0
  6
BYLAYER
100
AcDbCircle
 10
143.9541605208842441
 20
-16.8935461543573062
 30
0.0
 40
2.0116846174288847
100
AcDbArc
 50
36.1783906951826921
 51
203.821609304817315
  0
ARC
  5
121
100
AcDbEntity
  8
0
 62
256
370
-1
 48
1.0
  6
BYLAYER
100
AcDbCircle
 10
144.8201859246686922
 20
-17.3935461543573062
 30
0.0
 40
2.0116846174288847
100
AcDbArc
 50
36.1783906951826921
 51
203.821609304817315
  0
ARC
  5
122
100
AcDbEntity
  8
0
 62
256
370
-1
 48
1.0
  6
BYLAYER
100
AcDbCircle
 10
145.6862113284531404
 20
-17.8935461543573062
 30
0.0
 40
2.0116846174288847
100
AcDbArc
 50
36.1783906951826921
 51
203.821609304817315
  0
ARC
  5
123
100
AcDbEntity
  8
0
 62
256
370
-1
 48
1.0
  6
BYLAYER
100
AcDbCircle
 10
146.5522367322375601
 20
-18.3935461543573062
 30
0.0
 40
2.0116846174288847
100
AcDbArc
 50
36.1783906951826921
 51
203.821609304817315
  0
ARC
  5
124
100
AcDbEntity
  8
0
 62
256
370
-1
 48
1.0
  6
BYLAYER
100
AcDbCircle
 10
147.4182621360220082
 20
-18.8935461543573062
 30
0.0
 40
2.0116846174288847
100
AcDbArc
 50
36.1783906951826921
 51
203.821609304817315
  0
ARC
  5
125
100
AcDbEntity
  8
0
 62
256
370
-1
 48
1.0
  6
BYLAYER
100
AcDbCircle
 10
147.4182621360220082
 20
-18.8935461543573062
 30
0.0
 40
2.0116846174288847
100
AcDbArc
 50
36.1783906951826921
 51
203.821609304817315
  0
ARC
  5
126
100
AcDbEntity
  8
0
 62
256
370
-1
 48
1.0
  6
BYLAYER
100
AcDbCircle
 10
148.2842875398064564
 20
-19.3935461543573062
 30
0.0
 40
2.0116846174288847
100
AcDbArc
 50
36.1783906951826921
 51
203.821609304817315
  0
ARC
  5
127
100
AcDbEntity
  8
0
 62
256
370
-1
 48
1.0
  6
BYLAYER
100
AcDbCircle
 10
149.1503129435890855
 20
-19.8935461543573062
 30
0.0
 40
2.0116846174288847
100
AcDbArc
 50
36.1783906951826921
 51
203.821609304817315
  0
ARC
  5
128
100
AcDbEntity
  8
0
 62
256
370
-1
 48
1.0
  6
BYLAYER
100
AcDbCircle
 10
129.0155793842967853
 20
107.461538461537998
 30
0.0
 40
157.5753850459722969
100
AcDbArc
 50
218.2072171518730386
 51
261.7927828481268762
  0
ARC
  5
129
100
AcDbEntity
  8
0
 62
256
370
-1
 48
1.0
  6
BYLAYER
100
AcDbCircle
 10
174.8519862496000883
 20
133.6537789845112627
 30
0.0
 40
155.5421541500164722
100
AcDbArc
 50
218.0666275335164528
 51
261.0628699032519648
  0
ARC
  5
12A
100
AcDbEntity
  8
0
 62
256
370
-1
 48
1.0
  6
BYLAYER
100
AcDbCircle
 10
108.4552480672703041
 20
-0.8499999999976159
 30
0.0
 40
46.3720102360633533
100
AcDbArc
 50
264.3912047151231945
 51
335.6087952848768055
  0
LINE
  5
12B
100
AcDbEntity
  8
0
 62
256
370
-1
 48
1.0
  6
BYLAYER
100
AcDbLine
 10
5.1961524227063416
 20
10.000000000000167
 30
0.0
 11
51.9615242270663202
 21
37.0000000000000142
 31
0.0
  0
LINE
  5
12C
100
AcDbEntity
  8
0
 62
256
370
-1
 48
1.0
  6
BYLAYER
100
AcDbLine
 10
5.1961524227063487
 20
10.0000000000001705
 30
0.0
 11
5.1961524227066311
 21
0.0
 31
0.0
  0
LINE
  5
12D
100
AcDbEntity
  8
0
 62
256
370
-1
 48
1.0
  6
BYLAYER
100
AcDbLine
 10
90.9326673973666715
 20
-36.7939538456426973
 30
0.0
 11
90.9326673973669557
 21
-46.7939538456428679
 31
0.0
  0
LINE
  5
12E
100
AcDbEntity
  8
0
 62
256
370
-1
 48
1.0
  6
BYLAYER
100
AcDbLine
 10
136.8320137979419258
 20
-10.2939538456426938
 30
0.0
 11
136.83201379794221
 21
-20.2939538456428643
 31
0.0
  0
LINE
  5
12F
100
AcDbEntity
  8
0
 62
256
370
-1
 48
1.0
  6
BYLAYER
100
AcDbLine
 10
51.9615242270663131
 20
26.9999999999999964
 30
0.0
 11
150.6884202584923287
 21
-30.0
 31
0.0
  0
LINE
  5
130
100
AcDbEntity
  8
0
 62
256
370
-1
 48
1.0
  6
BYLAYER
100
AcDbLine
 10
5.196152422706632
 20
-0.0000000000000005
 30
0.0
 11
51.9615242270663131
 21
26.9999999999999964
 31
0.0
  0
LINE
  5
131
100
AcDbEntity
  8
0
 62
256
370
-1
 48
1.0
  6
BYLAYER
100
AcDbLine
 10
51.9615242270663131
 20
36.9812871585252623
 30
0.0
 11
51.9615242270663131
 21
26.9999999999999964
 31
0.0
  0
LINE
  5
132
100
AcDbEntity
  8
0
 62
256
370
-1
 48
1.0
  6
BYLAYER
100
AcDbLine
 10
103.9230484541326263
 20
-47.0
 30
0.0
 11
150.6884202584923287
 21
-20.0
 31
0.0
  0
LINE
  5
133
100
AcDbEntity
  8
0
 62
256
370
-1
 48
1.0
  6
BYLAYER
100
AcDbLine
 10
103.9230484541326121
 20
-57.0
 30
0.0
 11
150.6884202584923287
 21
-30.0
 31
0.0
  0
LINE
  5
134
100
AcDbEntity
  8
0
 62
256
370
-1
 48
1.0
  6
BYLAYER
100
AcDbLine
 10
150.6884202584930676
 20
-20.0000000000004192
 30
0.0
 11
150.6884202584923287
 21
-30.0
 31
0.0
  0
LINE
  5
135
100
AcDbEntity
  8
0
 62
256
370
-1
 48
1.0
  6
BYLAYER
100
AcDbLine
 10
103.9230484541326263
 20
-47.0000000000000071
 30
0.0
 11
103.9230484541326121
 21
-57.0
 31
0.0
  0
ARC
  5
136
100
AcDbEntity
  8
0
 62
256
370
-1
 48
1.0
  6
BYLAYER
100
AcDbCircle
 10
9.9592921435210435
 20
13.0
 30
0.0
 40
2.3848480035423645
100
AcDbArc
 50
335.2087191028551274
 51
123.0044915988830923
  0
ARC
  5
137
100
AcDbEntity
  8
0
 62
256
370
-1
 48
1.0
  6
BYLAYER
100
AcDbCircle
 10
43.5899453238167496
 20
32.5
 30
0.0
 40
2.5166114784235782
100
AcDbArc
 50
336.5867755536294226
 51
96.5867755536295931
  0
LINE
  5
138
100
AcDbEntity
  8
0
 62
256
370
-1
 48
1.0
  6
BYLAYER
100
AcDbLine
 10
12.1243556529821408
 20
12.0
 30
0.0
 11
45.8993464005752472
 21
31.5
 31
0.0
  0
ARC
  5
139
100
AcDbEntity
  8
0
 62
256
370
-1
 48
1.0
  6
BYLAYER
100
AcDbCircle
 10
40.992518851662453
 20
1.9746061165428295
 30
0.0
 40
36.6849669006356081
100
AcDbArc
 50
72.6021214999792051
 51
167.3634827740052629
  0
ARC
  5
13A
100
AcDbEntity
  8
0
 62
256
370
-1
 48
1.0
  6
BYLAYER
100
AcDbCircle
 10
38.071410724942055
 20
7.1838312362449388
 30
0.0
 40
32.8758822321490385
100
AcDbArc
 50
65.0073737408521168
 51
180.352994153934759
  0
LINE
  5
13B
100
AcDbEntity
  8
0
 62
256
370
-1
 48
1.0
  6
BYLAYER
100
AcDbLine
 10
19.9185842870420871
 20
8.5
 30
0.0
 11
118.6454803184680884
 21
-48.5
 31
0.0
  0
LINE
  5
13C
100
AcDbEntity
  8
0
 62
256
370
-1
 48
1.0
  6
BYLAYER
100
AcDbLine
 10
45.8993464005752472
 20
23.5
 30
0.0
 11
144.6262424320012485
 21
-33.5
 31
0.0
  0
LINE
  5
13D
100
AcDbEntity
  8
0
 62
256
370
-1
 48
1.0
  6
BYLAYER
100
AcDbLine
 10
23.3826859021798406
 20
10.5
 30
0.0
 11
122.1095819336058383
 21
-46.5
 31
0.0
  0
LINE
  5
13E
100
AcDbEntity
  8
0
 62
256
370
-1
 48
1.0
  6
BYLAYER
100
AcDbLine
 10
42.4352447854374901
 20
21.5
 30
0.0
 11
141.1621408168634844
 21
-35.5
 31
0.0
  0
LINE
  5
13F
100
AcDbEntity
  8
0
 62
256
370
-1
 48
1.0
  6
BYLAYER
100
AcDbLine
 10
104.7748642771892946
 20
-60.70427486696844
 30
0.0
 11
104.7890738579170744
 21
-89.5
 31
0.0
  0
LINE
  5
140
100
AcDbEntity
  8
0
 62
256
370
-1
 48
1.0
  6
BYLAYER
100
AcDbLine
 10
155.0043376966867186
 20
-31.3356758803069724
 30
0.0
 11
155.0185472774145126
 21
-60.1314010133385324
 31
0.0
  0
LINE
  5
141
100
AcDbEntity
  8
0
 62
256
370
-1
 48
1.0
  6
BYLAYER
100
AcDbLine
 10
103.0428134696204268
 20
-60.70427486696844
 30
0.0
 11
103.0428134696204268
 21
-88.7042748669684329
 31
0.0
  0
LINE
  5
142
100
AcDbEntity
  8
0
 62
256
370
-1
 48
1.0
  6
BYLAYER
100
AcDbLine
 10
153.2722868891178791
 20
-31.3356758803069724
 30
0.0
 11
153.2722868891178791
 21
-59.3356758803069653
 31
0.0
  0
ELLIPSE
  5
143
100
AcDbEntity
  8
0
 62
256
370
-1
 48
1.0
  6
BYLAYER
100
AcDbEllipse
 10
103.9230530101558259
 20
-60.7542802354511338
 30
0.0
 11
0.8660254037844339
 21
0.0
 31
0.0
 40
0.3200114019855587
 41
0.0
 42
6.2831853071795862
  0
ELLIPSE
  5
144
100
AcDbEntity
  8
0
 62
256
370
-1
 48
1.0
  6
BYLAYER
100
AcDbEllipse
 10
103.9230480675613961
 20
-60.654278121345726
 30
0.0
 11
0.8660254037844339
 21
0.0
 31
0.0
 40
0.3200114019855587
 41
0.0
 42
6.2831853071795862
  0
ELLIPSE
  5
145
100
AcDbEntity
  8
0
 62
256
370
-1
 48
1.0
  6
BYLAYER
100
AcDbEllipse
 10
103.9230480675613961
 20
-60.5542781213457317
 30
0.0
 11
0.8660254037844339
 21
0.0
 31
0.0
 40
0.3200114019855587
 41
0.0
 42
6.2831853071795862
  0
ELLIPSE
  5
146
100
AcDbEntity
  8
0
 62
256
370
-1
 48
1.0
  6
BYLAYER
100
AcDbEllipse
 10
103.9230480675613961
 20
-60.4771401177255683
 30
0.0
 11
0.8660254037844339
 21
0.0
 31
0.0
 40
0.3200114019855587
 41
0.0
 42
6.2831853071795862
  0
ELLIPSE
  5
147
100
AcDbEntity
  8
0
 62
256
370
-1
 48
1.0
  6
BYLAYER
100
AcDbEllipse
 10
103.9230482572107093
 20
-60.3771380036201606
 30
0.0
 11
0.8660254037844339
 21
0.0
 31
0.0
 40
0.3200114019855587
 41
0.0
 42
6.2831853071795862
  0
ELLIPSE
  5
148
100
AcDbEntity
  8
0
 62
256
370
-1
 48
1.0
  6
BYLAYER
100
AcDbEllipse
 10
103.9230484541326263
 20
-60.2771380036201663
 30
0.0
 11
0.8660254037844339
 21
0.0
 31
0.0
 40
0.3200114019855587
 41
0.0
 42
6.2831853071795862
  0
ELLIPSE
  5
149
100
AcDbEntity
  8
0
 62
256
370
-1
 48
1.0
  6
BYLAYER
100
AcDbEllipse
 10
103.9230486104910653
 20
-60.2000000000000028
 30
0.0
 11
0.8660254037844339
 21
0.0
 31
0.0
 40
0.3200114019855587
 41
0.0
 42
6.2831853071795862
  0
ELLIPSE
  5
14A
100
AcDbEntity
  8
0
 62
256
370
-1
 48
1.0
  6
BYLAYER
100
AcDbEllipse
 10
103.9230488136958854
 20
-60.0999978858945951
 30
0.0
 11
0.8660254037844339
 21
0.0
 31
0.0
 40
0.3200114019855587
 41
0.0
 42
6.2831853071795862
  0
ELLIPSE
  5
14B
100
AcDbEntity
  8
0
 62
256
370
-1
 48
1.0
  6
BYLAYER
100
AcDbEllipse
 10
103.9230490171373162
 20
-59.9999978858946008
 30
0.0
 11
0.8660254037844339
 21
0.0
 31
0.0
 40
0.3200114019855587
 41
0.0
 42
6.2831853071795862
  0
ELLIPSE
  5
14C
100
AcDbEntity
  8
0
 62
256
370
-1
 48
1.0
  6
BYLAYER
100
AcDbEllipse
 10
103.9230491740847668
 20
-59.9228598822744374
 30
0.0
 11
0.8660254037844339
 21
0.0
 31
0.0
 40
0.3200114019855587
 41
0.0
 42
6.2831853071795862
  0
ELLIPSE
  5
14D
100
AcDbEntity
  8
0
 62
256
370
-1
 48
1.0
  6
BYLAYER
100
AcDbEllipse
 10
103.9230493775623501
 20
-59.8228577681690297
 30
0.0
 11
0.8660254037844339
 21
0.0
 31
0.0
 40
0.3200114019855587
 41
0.0
 42
6.2831853071795862
  0
ELLIPSE
  5
14E
100
AcDbEntity
  8
0
 62
256
370
-1
 48
1.0
  6
BYLAYER
100
AcDbEllipse
 10
103.9230495810368495
 20
-59.7228577681690354
 30
0.0
 11
0.8660254037844339
 21
0.0
 31
0.0
 40
0.3200114019855587
 41
0.0
 42
6.2831853071795862
  0
ELLIPSE
  5
14F
100
AcDbEntity
  8
0
 62
256
370
-1
 48
1.0
  6
BYLAYER
100
AcDbEllipse
 10
103.9230497379932672
 20
-59.6457197645488719
 30
0.0
 11
0.8660254037844339
 21
0.0
 31
0.0
 40
0.3200114019855587
 41
0.0
 42
6.2831853071795862
  0
ELLIPSE
  5
150
100
AcDbEntity
  8
0
 62
256
370
-1
 48
1.0
  6
BYLAYER
100
AcDbEllipse
 10
103.9230499414724562
 20
-59.5457176504434642
 30
0.0
 11
0.8660254037844339
 21
0.0
 31
0.0
 40
0.3200114019855587
 41
0.0
 42
6.2831853071795862
  0
ELLIPSE
  5
151
100
AcDbEntity
  8
0
 62
256
370
-1
 48
1.0
  6
BYLAYER
100
AcDbEllipse
 10
103.9230501449473536
 20
-59.4457176504434699
 30
0.0
 11
0.8660254037844339
 21
0.0
 31
0.0
 40
0.3200114019855587
 41
0.0
 42
6.2831853071795862
  0
ELLIPSE
  5
152
100
AcDbEntity
  8
0
 62
256
370
-1
 48
1.0
  6
BYLAYER
100
AcDbEllipse
 10
103.9230503019038281
 20
-59.3685796468233065
 30
0.0
 11
0.8660254037844339
 21
0.0
 31
0.0
 40
0.3200114019855587
 41
0.0
 42
6.2831853071795862
  0
ELLIPSE
  5
153
100
AcDbEntity
  8
0
 62
256
370
-1
 48
1.0
  6
BYLAYER
100
AcDbEllipse
 10
154.1525264296532782
 20
-31.3856812487896661
 30
0.0
 11
0.8660254037844339
 21
0.0
 31
0.0
 40
0.3200114019855587
 41
0.0
 42
6.2831853071795862
  0
ELLIPSE
  5
154
100
AcDbEntity
  8
0
 62
256
370
-1
 48
1.0
  6
BYLAYER
100
AcDbEllipse
 10
154.1525214870588343
 20
-31.2856791346842584
 30
0.0
 11
0.8660254037844339
 21
0.0
 31
0.0
 40
0.3200114019855587
 41
0.0
 42
6.2831853071795862
  0
ELLIPSE
  5
155
100
AcDbEntity
  8
0
 62
256
370
-1
 48
1.0
  6
BYLAYER
100
AcDbEllipse
 10
154.1525214870588343
 20
-31.1856791346842641
 30
0.0
 11
0.8660254037844339
 21
0.0
 31
0.0
 40
0.3200114019855587
 41
0.0
 42
6.2831853071795862
  0
ELLIPSE
  5
156
100
AcDbEntity
  8
0
 62
256
370
-1
 48
1.0
  6
BYLAYER
100
AcDbEllipse
 10
154.1525214870588343
 20
-31.1085411310641007
 30
0.0
 11
0.8660254037844339
 21
0.0
 31
0.0
 40
0.3200114019855587
 41
0.0
 42
6.2831853071795862
  0
ELLIPSE
  5
157
100
AcDbEntity
  8
0
 62
256
370
-1
 48
1.0
  6
BYLAYER
100
AcDbEllipse
 10
154.1525216767081474
 20
-31.008539016958693
 30
0.0
 11
0.8660254037844339
 21
0.0
 31
0.0
 40
0.3200114019855587
 41
0.0
 42
6.2831853071795862
  0
ELLIPSE
  5
158
100
AcDbEntity
  8
0
 62
256
370
-1
 48
1.0
  6
BYLAYER
100
AcDbEllipse
 10
154.1525218736300644
 20
-30.9085390169586987
 30
0.0
 11
0.8660254037844339
 21
0.0
 31
0.0
 40
0.3200114019855587
 41
0.0
 42
6.2831853071795862
  0
ELLIPSE
  5
159
100
AcDbEntity
  8
0
 62
256
370
-1
 48
1.0
  6
BYLAYER
100
AcDbEllipse
 10
154.1525220299885177
 20
-30.8314010133385352
 30
0.0
 11
0.8660254037844339
 21
0.0
 31
0.0
 40
0.3200114019855587
 41
0.0
 42
6.2831853071795862
  0
ELLIPSE
  5
15A
100
AcDbEntity
  8
0
 62
256
370
-1
 48
1.0
  6
BYLAYER
100
AcDbEllipse
 10
154.1525222331933378
 20
-30.7313988992331275
 30
0.0
 11
0.8660254037844339
 21
0.0
 31
0.0
 40
0.3200114019855587
 41
0.0
 42
6.2831853071795862
  0
ELLIPSE
  5
15B
100
AcDbEntity
  8
0
 62
256
370
-1
 48
1.0
  6
BYLAYER
100
AcDbEllipse
 10
154.1525224366347402
 20
-30.6313988992331332
 30
0.0
 11
0.8660254037844339
 21
0.0
 31
0.0
 40
0.3200114019855587
 41
0.0
 42
6.2831853071795862
  0
ELLIPSE
  5
15C
100
AcDbEntity
  8
0
 62
256
370
-1
 48
1.0
  6
BYLAYER
100
AcDbEllipse
 10
154.152522593582205
 20
-30.5542608956129698
 30
0.0
 11
0.8660254037844339
 21
0.0
 31
0.0
 40
0.3200114019855587
 41
0.0
 42
6.2831853071795862
  0
ELLIPSE
  5
15D
100
AcDbEntity
  8
0
 62
256
370
-1
 48
1.0
  6
BYLAYER
100
AcDbEllipse
 10
154.1525227970597882
 20
-30.454258781507562
 30
0.0
 11
0.8660254037844339
 21
0.0
 31
0.0
 40
0.3200114019855587
 41
0.0
 42
6.2831853071795862
  0
ELLIPSE
  5
15E
100
AcDbEntity
  8
0
 62
256
370
-1
 48
1.0
  6
BYLAYER
100
AcDbEllipse
 10
154.1525230005343019
 20
-30.3542587815075677
 30
0.0
 11
0.8660254037844339
 21
0.0
 31
0.0
 40
0.3200114019855587
 41
0.0
 42
6.2831853071795862
  0
ELLIPSE
  5
15F
100
AcDbEntity
  8
0
 62
256
370
-1
 48
1.0
  6
BYLAYER
100
AcDbEllipse
 10
154.1525231574906911
 20
-30.2771207778874043
 30
0.0
 11
0.8660254037844339
 21
0.0
 31
0.0
 40
0.3200114019855587
 41
0.0
 42
6.2831853071795862
  0
ELLIPSE
  5
160
100
AcDbEntity
  8
0
 62
256
370
-1
 48
1.0
  6
BYLAYER
100
AcDbEllipse
 10
154.1525233609698944
 20
-30.1771186637819966
 30
0.0
 11
0.8660254037844339
 21
0.0
 31
0.0
 40
0.3200114019855587
 41
0.0
 42
6.2831853071795862
  0
ELLIPSE
  5
161
100
AcDbEntity
  8
0
 62
256
370
-1
 48
1.0
  6
BYLAYER
100
AcDbEllipse
 10
154.1525235644447775
 20
-30.0771186637820023
 30
0.0
 11
0.8660254037844339
 21
0.0
 31
0.0
 40
0.3200114019855587
 41
0.0
 42
6.2831853071795862
  0
ELLIPSE
  5
162
100
AcDbEntity
  8
0
 62
256
370
-1
 48
1.0
  6
BYLAYER
100
AcDbEllipse
 10
154.1525237214012805
 20
-29.9999806601618388
 30
0.0
 11
0.8660254037844339
 21
0.0
 31
0.0
 40
0.3200114019855587
 41
0.0
 42
6.2831853071795862
  0
CIRCLE
  5
163
100
AcDbEntity
  8
0
 62
256
370
-1
 48
1.0
  6
BYLAYER
100
AcDbCircle
 10
154.1525218736300644
 20
-59.6314010133385324
 30
0.0
 40
1.0
  0
ELLIPSE
  5
164
100
AcDbEntity
  8
0
 62
256
370
-1
 48
1.0
  6
BYLAYER
100
AcDbEllipse
 10
103.9230484541326263
 20
-89.0
 30
0.0
 11
0.9172627377688082
 21
-0.3982826507656179
 31
0.0
 40
0.9160482025832523
 41
0.0
 42
6.2831853071795862
  0
ELLIPSE
  5
165
100
AcDbEntity
  8
0
 62
256
370
-1
 48
1.0
  6
BYLAYER
100
AcDbEllipse
 10
103.9230484541326263
 20
-89.0
 30
0.0
 11
3.4641016151377642
 21
-2.0
 31
0.0
 40
0.7645395678160493
 41
0.0
 42
6.2831853071795862
  0
ELLIPSE
  5
166
100
AcDbEntity
  8
0
 62
256
370
-1
 48
1.0
  6
BYLAYER
100
AcDbEllipse
 10
154.1525218736300644
 20
-60.0
 30
0.0
 11
3.4641016151377642
 21
-2.0
 31
0.0
 40
0.8062860547890097
 41
0.0
 42
6.2831853071795862
  0
ENDSEC
  0
SECTION
  2
OBJECTS
  0
DICTIONARY
  5
C
100
AcDbDictionary
280
0
281
1
  3
ACAD_GROUP
350
D
  3
ACAD_LAYOUT
350
1A
  3
ACAD_MLINESTYLE
350
17
  3
ACAD_PLOTSETTINGS
350
19
  3
ACAD_PLOTSTYLENAME
350
E
  3
AcDbVariableDictionary
350
167
  3
QCAD_OBJECTS
350
168
  0
DICTIONARY
  5
D
100
AcDbDictionary
280
0
281
1
  0
ACDBDICTIONARYWDFLT
  5
E
100
AcDbDictionary
281
1
  3
Normal
350
F
100
AcDbDictionaryWithDefault
340
F
  0
ACDBPLACEHOLDER
  5
F
  0
DICTIONARY
  5
17
100
AcDbDictionary
280
0
281
1
  3
Standard
350
18
  0
MLINESTYLE
  5
18
100
AcDbMlineStyle
  2
STANDARD
 70
0
  3

 62
256
 51
90.0
 52
90.0
 71
2
 49
0.5
 62
256
  6
BYLAYER
 49
-0.5
 62
256
  6
BYLAYER
  0
DICTIONARY
  5
19
100
AcDbDictionary
280
0
281
1
  0
DICTIONARY
  5
1A
100
AcDbDictionary
281
1
  3
Layout1
350
1E
  3
Layout2
350
26
  3
Model
350
22
  0
LAYOUT
  5
1E
100
AcDbPlotSettings
  1

  2
none_device
  4

  6

 40
0.0
 41
0.0
 42
0.0
 43
0.0
 44
0.0
 45
0.0
 46
0.0
 47
0.0
 48
0.0
 49
0.0
140
0.0
141
0.0
142
1.0
143
1.0
 70
688
 72
0
 73
0
 74
5
  7

 75
16
147
1.0
148
0.0
149
0.0
100
AcDbLayout
  1
Layout1
 70
1
 71
1
 10
0.0
 20
0.0
 11
420.0
 21
297.0
 12
0.0
 22
0.0
 32
0.0
 14
100000000000000000000.0
 24
100000000000000000000.0
 34
100000000000000000000.0
 15
-100000000000000000000.0
 25
-100000000000000000000.0
 35
-100000000000000000000.0
146
0.0
 13
0.0
 23
0.0
 33
0.0
 16
1.0
 26
0.0
 36
0.0
 17
0.0
 27
1.0
 37
0.0
 76
0
330
1B
  0
LAYOUT
  5
22
100
AcDbPlotSettings
  1

  2
none_device
  4

  6

 40
0.0
 41
0.0
 42
0.0
 43
0.0
 44
0.0
 45
0.0
 46
0.0
 47
0.0
 48
0.0
 49
0.0
140
0.0
141
0.0
142
1.0
143
1.0
 70
1712
 72
0
 73
0
 74
0
  7

 75
0
147
1.0
148
0.0
149
0.0
100
AcDbLayout
  1
Model
 70
1
 71
0
 10
0.0
 20
0.0
 11
12.0
 21
9.0
 12
0.0
 22
0.0
 32
0.0
 14
0.0
 24
0.0
 34
0.0
 15
0.0
 25
0.0
 35
0.0
146
0.0
 13
0.0
 23
0.0
 33
0.0
 16
1.0
 26
0.0
 36
0.0
 17
0.0
 27
1.0
 37
0.0
 76
0
330
1F
  0
LAYOUT
  5
26
100
AcDbPlotSettings
  1

  2
none_device
  4

  6

 40
0.0
 41
0.0
 42
0.0
 43
0.0
 44
0.0
 45
0.0
 46
0.0
 47
0.0
 48
0.0
 49
0.0
140
0.0
141
0.0
142
1.0
143
1.0
 70
688
 72
0
 73
0
 74
5
  7

 75
16
147
1.0
148
0.0
149
0.0
100
AcDbLayout
  1
Layout2
 70
1
 71
2
 10
0.0
 20
0.0
 11
12.0
 21
9.0
 12
0.0
 22
0.0
 32
0.0
 14
0.0
 24
0.0
 34
0.0
 15
0.0
 25
0.0
 35
0.0
146
0.0
 13
0.0
 23
0.0
 33
0.0
 16
1.0
 26
0.0
 36
0.0
 17
0.0
 27
1.0
 37
0.0
 76
0
330
23
  0
DICTIONARY
  5
167
100
AcDbDictionary
281
1
  3
DIMASSOC
350
16A
  3
HIDETEXT
350
169
  0
DICTIONARYVAR
  5
169
100
DictionaryVariables
280
0
  1
2
  0
DICTIONARYVAR
  5
16A
100
DictionaryVariables
280
0
  1
1
  0
DICTIONARY
  5
168
100
AcDbDictionary
281
1
  3
ColorSettings/BackgroundColor
350
16B
  3
ColorSettings/ColorMode
350
16C
  3
Grid/DisplayGrid00
350
16D
  3
Grid/DisplayGrid01
350
16E
  3
Grid/DisplayGrid02
350
16F
  3
Grid/DisplayGrid03
350
170
  3
Grid/GridSpacingX00
350
171
  3
Grid/GridSpacingX01
350
172
  3
Grid/GridSpacingX02
350
173
  3
Grid/GridSpacingX03
350
174
  3
Grid/GridSpacingY00
350
175
  3
Grid/GridSpacingY01
350
176
  3
Grid/GridSpacingY02
350
177
  3
Grid/GridSpacingY03
350
178
  3
Grid/IsometricGrid00
350
179
  3
Grid/IsometricGrid01
350
17A
  3
Grid/IsometricGrid02
350
17B
  3
Grid/IsometricGrid03
350
17C
  3
Grid/IsometricProjection00
350
17D
  3
Grid/IsometricProjection01
350
17E
  3
Grid/IsometricProjection02
350
17F
  3
Grid/IsometricProjection03
350
180
  3
Grid/MetaGridSpacingX00
350
181
  3
Grid/MetaGridSpacingX01
350
182
  3
Grid/MetaGridSpacingX02
350
183
  3
Grid/MetaGridSpacingX03
350
184
  3
Grid/MetaGridSpacingY00
350
185
  3
Grid/MetaGridSpacingY01
350
186
  3
Grid/MetaGridSpacingY02
350
187
  3
Grid/MetaGridSpacingY03
350
188
  3
LinetypeSettings/PSLTSCALE
350
189
  3
MultiPageSettings/Columns
350
18A
  3
MultiPageSettings/GlueMarginsBottom
350
18B
  3
MultiPageSettings/GlueMarginsLeft
350
18C
  3
MultiPageSettings/GlueMarginsRight
350
18D
  3
MultiPageSettings/GlueMarginsTop
350
18E
  3
MultiPageSettings/PrintCropMarks
350
18F
  3
MultiPageSettings/Rows
350
190
  3
PageSettings/OffsetX
350
191
  3
PageSettings/OffsetY
350
192
  3
PageSettings/PageOrientation
350
193
  3
PageSettings/PaperHeight
350
194
  3
PageSettings/PaperSizeName
350
195
  3
PageSettings/PaperWidth
350
196
  3
PageSettings/PointSize
350
197
  3
PageSettings/Scale
350
198
  3
PageSettings/ShowPaperBorders
350
199
  3
PageTagSettings/EnablePageTags
350
19A
  3
PageTagSettings/TagAlignment
350
19B
  3
PageTagSettings/TagFont
350
19C
  3
PageTagSettings/TagPosition
350
19D
  3
QCADVersion
350
19E
  3
UnitSettings/Measurement
350
19F
  3
UnitSettings/PaperUnit
350
1A0
  3
ViewportCenter
350
1A1
  3
ViewportHeight
350
1A2
  3
ViewportWidth
350
1A3
  0
XRECORD
  5
16B
330
168
100
AcDbXrecord
280
1
1000
White
  0
XRECORD
  5
16C
330
168
100
AcDbXrecord
280
1
1000
FullColor
  0
XRECORD
  5
16D
330
168
100
AcDbXrecord
280
1
290
1
  0
XRECORD
  5
16E
330
168
100
AcDbXrecord
280
1
290
1
  0
XRECORD
  5
16F
330
168
100
AcDbXrecord
280
1
290
1
  0
XRECORD
  5
170
330
168
100
AcDbXrecord
280
1
290
1
  0
XRECORD
  5
171
330
168
100
AcDbXrecord
280
1
1000
auto
  0
XRECORD
  5
172
330
168
100
AcDbXrecord
280
1
1000
auto
  0
XRECORD
  5
173
330
168
100
AcDbXrecord
280
1
1000
auto
  0
XRECORD
  5
174
330
168
100
AcDbXrecord
280
1
1000
auto
  0
XRECORD
  5
175
330
168
100
AcDbXrecord
280
1
1000
auto
  0
XRECORD
  5
176
330
168
100
AcDbXrecord
280
1
1000
auto
  0
XRECORD
  5
177
330
168
100
AcDbXrecord
280
1
1000
auto
  0
XRECORD
  5
178
330
168
100
AcDbXrecord
280
1
1000
auto
  0
XRECORD
  5
179
330
168
100
AcDbXrecord
280
1
290
1
  0
XRECORD
  5
17A
330
168
100
AcDbXrecord
280
1
290
0
  0
XRECORD
  5
17B
330
168
100
AcDbXrecord
280
1
290
0
  0
XRECORD
  5
17C
330
168
100
AcDbXrecord
280
1
290
0
  0
XRECORD
  5
17D
330
168
100
AcDbXrecord
280
1
 90
65537
  0
XRECORD
  5
17E
330
168
100
AcDbXrecord
280
1
 90
65537
  0
XRECORD
  5
17F
330
168
100
AcDbXrecord
280
1
 90
65537
  0
XRECORD
  5
180
330
168
100
AcDbXrecord
280
1
 90
65537
  0
XRECORD
  5
181
330
168
100
AcDbXrecord
280
1
1000
auto
  0
XRECORD
  5
182
330
168
100
AcDbXrecord
280
1
1000
auto
  0
XRECORD
  5
183
330
168
100
AcDbXrecord
280
1
1000
auto
  0
XRECORD
  5
184
330
168
100
AcDbXrecord
280
1
1000
auto
  0
XRECORD
  5
185
330
168
100
AcDbXrecord
280
1
1000
auto
  0
XRECORD
  5
186
330
168
100
AcDbXrecord
280
1
1000
auto
  0
XRECORD
  5
187
330
168
100
AcDbXrecord
280
1
1000
auto
  0
XRECORD
  5
188
330
168
100
AcDbXrecord
280
1
1000
auto
  0
XRECORD
  5
189
330
168
100
AcDbXrecord
280
1
290
0
  0
XRECORD
  5
18A
330
168
100
AcDbXrecord
280
1
 90
1
  0
XRECORD
  5
18B
330
168
100
AcDbXrecord
280
1
 40
10.0
  0
XRECORD
  5
18C
330
168
100
AcDbXrecord
280
1
 40
10.0
  0
XRECORD
  5
18D
330
168
100
AcDbXrecord
280
1
 40
10.0
  0
XRECORD
  5
18E
330
168
100
AcDbXrecord
280
1
 40
10.0
  0
XRECORD
  5
18F
330
168
100
AcDbXrecord
280
1
290
0
  0
XRECORD
  5
190
330
168
100
AcDbXrecord
280
1
 90
1
  0
XRECORD
  5
191
330
168
100
AcDbXrecord
280
1
 40
0.0
  0
XRECORD
  5
192
330
168
100
AcDbXrecord
280
1
 40
0.0
  0
XRECORD
  5
193
330
168
100
AcDbXrecord
280
1
1000
Landscape
  0
XRECORD
  5
194
330
168
100
AcDbXrecord
280
1
1000
29.7
  0
XRECORD
  5
195
330
168
100
AcDbXrecord
280
1
1000
ISO A4
  0
XRECORD
  5
196
330
168
100
AcDbXrecord
280
1
1000
21
  0
XRECORD
  5
197
330
168
100
AcDbXrecord
280
1
1000
0.5
  0
XRECORD
  5
198
330
168
100
AcDbXrecord
280
1
1000
1:1
  0
XRECORD
  5
199
330
168
100
AcDbXrecord
280
1
290
1
  0
XRECORD
  5
19A
330
168
100
AcDbXrecord
280
1
290
0
  0
XRECORD
  5
19B
330
168
100
AcDbXrecord
280
1
1000
Inside
  0
XRECORD
  5
19C
330
168
100
AcDbXrecord
280
1
1000
Arial,10,-1,5,50,0,0,0,0,0
  0
XRECORD
  5
19D
330
168
100
AcDbXrecord
280
1
1000
TopLeft
  0
XRECORD
  5
19E
330
168
100
AcDbXrecord
280
1
1000
3.26.4.10
  0
XRECORD
  5
19F
330
168
100
AcDbXrecord
280
1
 90
1
  0
XRECORD
  5
1A0
330
168
100
AcDbXrecord
280
1
 90
5
  0
XRECORD
  5
1A2
330
168
100
AcDbXrecord
280
1
 40
247.1534788607993391
  0
XRECORD
  5
1A3
330
168
100
AcDbXrecord
280
1
 40
489.147177369598694
  0
ENDSEC
  0
EOF
