999
dxflib 3.26.4.0
  0
SECTION
  2
HEADER
  9
$ACADVER
  1
AC1015
  9
$HANDSEED
  5
FFFF
  9
$DIMADEC
 70
0
  9
$DIMASZ
 40
2.5
  9
$DIMATFIT
 70
0
  9
$DIMAUNIT
 70
0
  9
$DIMAZIN
 70
2
  9
$DIMBLK
  1
0
  9
$DIMBLK1
  1
0
  9
$DIMBLK2
  1
0
  9
$DIMDEC
 70
4
  9
$DIMDLI
 40
5.0
  9
$DIMDSEP
 70
46
  9
$DIMEXE
 40
1.25
  9
$DIMEXO
 40
0.625
  9
$DIMGAP
 40
0.625
  9
$DIMLFAC
 40
1.0
  9
$DIMLUNIT
 70
2
  9
$DIMSCALE
 40
1.0
  9
$DIMTAD
 70
1
  9
$DIMTIH
 70
0
  9
$DIMTSZ
 40
0.0
  9
$DIMTXT
 40
2.5
  9
$DIMZIN
 70
8
  9
$DWGCODEPAGE
  3
ANSI_1252
  9
$INSUNITS
 70
5
  9
$LTSCALE
 40
1.0
  9
$MAXACTVP
 70
64
  9
$MEASUREMENT
 70
1
  9
$MIRRTEXT
 70
0
  9
$PDMODE
 70
0
  9
$PDSIZE
 40
0.0
  0
ENDSEC
  0
SECTION
  2
TABLES
  0
TABLE
  2
VPORT
  5
8
100
AcDbSymbolTable
 70
1
  0
VPORT
  5
30
100
AcDbSymbolTableRecord
100
AcDbViewportTableRecord
  2
*Active
 70
0
 10
0.0
 20
0.0
 11
1.0
 21
1.0
 12
286.3055555555554861
 22
148.5
 13
0.0
 23
0.0
 14
10.0
 24
10.0
 15
10.0
 25
10.0
 16
0.0
 26
0.0
 36
1.0
 17
0.0
 27
0.0
 37
0.0
 40
297.0
 41
1.92798353909465
 42
50.0
 43
0.0
 44
0.0
 50
0.0
 51
0.0
 71
0
 72
100
 73
1
 74
3
 75
1
 76
1
 77
0
 78
0
281
0
 65
1
110
0.0
120
0.0
130
0.0
111
1.0
121
0.0
131
0.0
112
0.0
122
1.0
132
0.0
 79
0
146
0.0
  0
ENDTAB
  0
TABLE
  2
LTYPE
  5
5
100
AcDbSymbolTable
 70
41
  0
LTYPE
  5
16
100
AcDbSymbolTableRecord
100
AcDbLinetypeTableRecord
  2
Continuous
 70
0
  3
Solid line
 72
65
 73
0
 40
0.0
  0
LTYPE
  5
31
100
AcDbSymbolTableRecord
100
AcDbLinetypeTableRecord
  2
PHANTOMX2
 70
0
  3
Phantom (2x) ____________    ____    ____   _
 72
65
 73
6
 40
127.0000000000000142
 49
63.5
 74
0
 49
-12.6999999999999993
 74
0
 49
12.6999999999999993
 74
0
 49
-12.6999999999999993
 74
0
 49
12.6999999999999993
 74
0
 49
-12.6999999999999993
 74
0
  0
LTYPE
  5
32
100
AcDbSymbolTableRecord
100
AcDbLinetypeTableRecord
  2
HIDDEN2
 70
0
  3
Hidden (.5x) _ _ _ _ _ _ _ _ _ _ _ _ _ _ _ _ _ 
 72
65
 73
2
 40
4.7624999999999993
 49
3.1749999999999998
 74
0
 49
-1.5874999999999999
 74
0
  0
LTYPE
  5
33
100
AcDbSymbolTableRecord
100
AcDbLinetypeTableRecord
  2
ACAD_ISO09W100
 70
0
  3
ISO long-dash double-short-dash ____ __ __ ____
 72
65
 73
6
 40
45.0
 49
24.0
 74
0
 49
-3.0
 74
0
 49
6.0
 74
0
 49
-3.0
 74
0
 49
6.0
 74
0
 49
-3.0
 74
0
  0
LTYPE
  5
34
100
AcDbSymbolTableRecord
100
AcDbLinetypeTableRecord
  2
ACAD_ISO10W100
 70
0
  3
ISO dash dot __ . __ . __ . __ . __ . __ . __ . 
 72
65
 73
4
 40
18.0
 49
12.0
 74
0
 49
-2.9500000000000002
 74
0
 49
0.1
 74
0
 49
-2.9500000000000002
 74
0
  0
LTYPE
  5
35
100
AcDbSymbolTableRecord
100
AcDbLinetypeTableRecord
  2
HIDDEN
 70
0
  3
Hidden __ __ __ __ __ __ __ __ __ __ __ __ __ __
 72
65
 73
2
 40
9.5249999999999986
 49
6.3499999999999996
 74
0
 49
-3.1749999999999998
 74
0
  0
LTYPE
  5
36
100
AcDbSymbolTableRecord
100
AcDbLinetypeTableRecord
  2
CENTER
 70
0
  3
Center ____ _ ____ _ ____ _ ____ _ ____ _ ____
 72
65
 73
4
 40
50.8000000000000043
 49
31.75
 74
0
 49
-6.3499999999999996
 74
0
 49
6.3499999999999996
 74
0
 49
-6.3499999999999996
 74
0
  0
LTYPE
  5
37
100
AcDbSymbolTableRecord
100
AcDbLinetypeTableRecord
  2
ACAD_ISO14W100
 70
0
  3
ISO dash triple-dot __ . . . __ . . . __ . . . _
 72
65
 73
8
 40
24.0000000000000036
 49
12.0
 74
0
 49
-2.9500000000000002
 74
0
 49
0.1
 74
0
 49
-2.9000000000000004
 74
0
 49
0.1
 74
0
 49
-2.9000000000000004
 74
0
 49
0.1
 74
0
 49
-2.9500000000000002
 74
0
  0
LTYPE
  5
38
100
AcDbSymbolTableRecord
100
AcDbLinetypeTableRecord
  2
ACAD_ISO11W100
 70
0
  3
ISO double-dash dot __ __ . __ __ . __ __ . __ _
 72
65
 73
6
 40
33.0
 49
12.0
 74
0
 49
-3.0
 74
0
 49
12.0
 74
0
 49
-2.9500000000000002
 74
0
 49
0.1
 74
0
 49
-2.9500000000000002
 74
0
  0
LTYPE
  5
39
100
AcDbSymbolTableRecord
100
AcDbLinetypeTableRecord
  2
ACAD_ISO13W100
 70
0
  3
ISO double-dash double-dot __ __ . . __ __ . . _
 72
65
 73
8
 40
36.0000000000000071
 49
12.0
 74
0
 49
-3.0
 74
0
 49
12.0
 74
0
 49
-2.9500000000000002
 74
0
 49
0.1
 74
0
 49
-2.9000000000000004
 74
0
 49
0.1
 74
0
 49
-2.9500000000000002
 74
0
  0
LTYPE
  5
3A
100
AcDbSymbolTableRecord
100
AcDbLinetypeTableRecord
  2
DIVIDE2
 70
0
  3
Divide (.5x) __..__..__..__..__..__..__..__.._
 72
65
 73
6
 40
15.8749999999999982
 49
6.3499999999999996
 74
0
 49
-3.125
 74
0
 49
0.1
 74
0
 49
-3.0750000000000002
 74
0
 49
0.1
 74
0
 49
-3.125
 74
0
  0
LTYPE
  5
3B
100
AcDbSymbolTableRecord
100
AcDbLinetypeTableRecord
  2
PHANTOM2
 70
0
  3
Phantom (.5x) ___ _ _ ___ _ _ ___ _ _ ___ _ _
 72
65
 73
6
 40
31.7500000000000036
 49
15.875
 74
0
 49
-3.1749999999999998
 74
0
 49
3.1749999999999998
 74
0
 49
-3.1749999999999998
 74
0
 49
3.1749999999999998
 74
0
 49
-3.1749999999999998
 74
0
  0
LTYPE
  5
3C
100
AcDbSymbolTableRecord
100
AcDbLinetypeTableRecord
  2
DOT
 70
0
  3
Dot . . . . . . . . . . . . . . . . . . . . . . . .
 72
65
 73
2
 40
6.3499999999999996
 49
0.1
 74
0
 49
-6.25
 74
0
  0
LTYPE
  5
3D
100
AcDbSymbolTableRecord
100
AcDbLinetypeTableRecord
  2
CENTER2
 70
0
  3
Center (.5x) ___ _ ___ _ ___ _ ___ _ ___ _ ___
 72
65
 73
4
 40
28.5750000000000028
 49
19.0500000000000007
 74
0
 49
-3.1749999999999998
 74
0
 49
3.1749999999999998
 74
0
 49
-3.1749999999999998
 74
0
  0
LTYPE
  5
3E
100
AcDbSymbolTableRecord
100
AcDbLinetypeTableRecord
  2
DASHDOT
 70
0
  3
Dash dot __ . __ . __ . __ . __ . __ . __ . __
 72
65
 73
4
 40
25.4000000000000021
 49
12.6999999999999993
 74
0
 49
-6.2999999999999998
 74
0
 49
0.1
 74
0
 49
-6.2999999999999998
 74
0
  0
LTYPE
  5
3F
100
AcDbSymbolTableRecord
100
AcDbLinetypeTableRecord
  2
CENTERX2
 70
0
  3
Center (2x) ________  __  ________  __  _____
 72
65
 73
4
 40
101.6000000000000085
 49
63.5
 74
0
 49
-12.6999999999999993
 74
0
 49
12.6999999999999993
 74
0
 49
-12.6999999999999993
 74
0
  0
LTYPE
  5
40
100
AcDbSymbolTableRecord
100
AcDbLinetypeTableRecord
  2
ACAD_ISO04W100
 70
0
  3
ISO long-dash dot ____ . ____ . ____ . ____ . _
 72
65
 73
4
 40
30.0
 49
24.0
 74
0
 49
-2.9500000000000002
 74
0
 49
0.1
 74
0
 49
-2.9500000000000002
 74
0
  0
LTYPE
  5
41
100
AcDbSymbolTableRecord
100
AcDbLinetypeTableRecord
  2
DASHED
 70
0
  3
Dashed __ __ __ __ __ __ __ __ __ __ __ __ __ _
 72
65
 73
2
 40
19.0499999999999972
 49
12.6999999999999993
 74
0
 49
-6.3499999999999996
 74
0
  0
LTYPE
  5
42
100
AcDbSymbolTableRecord
100
AcDbLinetypeTableRecord
  2
ACAD_ISO12W100
 70
0
  3
ISO dash double-dot __ . . __ . . __ . . __ . . 
 72
65
 73
6
 40
21.0
 49
12.0
 74
0
 49
-2.9500000000000002
 74
0
 49
0.1
 74
0
 49
-2.9000000000000004
 74
0
 49
0.1
 74
0
 49
-2.9500000000000002
 74
0
  0
LTYPE
  5
43
100
AcDbSymbolTableRecord
100
AcDbLinetypeTableRecord
  2
ACAD_ISO02W100
 70
0
  3
ISO dash __ __ __ __ __ __ __ __ __ __ __ __ __
 72
65
 73
2
 40
15.0
 49
12.0
 74
0
 49
-3.0
 74
0
  0
LTYPE
  5
44
100
AcDbSymbolTableRecord
100
AcDbLinetypeTableRecord
  2
ACAD_ISO15W100
 70
0
  3
ISO double-dash triple-dot __ __ . . . __ __ . .
 72
65
 73
10
 40
39.0000000000000071
 49
12.0
 74
0
 49
-3.0
 74
0
 49
12.0
 74
0
 49
-2.9500000000000002
 74
0
 49
0.1
 74
0
 49
-2.9000000000000004
 74
0
 49
0.1
 74
0
 49
-2.9000000000000004
 74
0
 49
0.1
 74
0
 49
-2.9500000000000002
 74
0
  0
LTYPE
  5
45
100
AcDbSymbolTableRecord
100
AcDbLinetypeTableRecord
  2
DASHDOTX2
 70
0
  3
Dash dot (2x) ____  .  ____  .  ____  .  ___
 72
65
 73
4
 40
50.7999999999999972
 49
25.3999999999999986
 74
0
 49
-12.6499999999999986
 74
0
 49
0.1
 74
0
 49
-12.6499999999999986
 74
0
  0
LTYPE
  5
15
100
AcDbSymbolTableRecord
100
AcDbLinetypeTableRecord
  2
BYLAYER
 70
0
  3

 72
65
 73
0
 40
0.0
  0
LTYPE
  5
46
100
AcDbSymbolTableRecord
100
AcDbLinetypeTableRecord
  2
BORDERX2
 70
0
  3
Border (2x) ____  ____  .  ____  ____  .  ___
 72
65
 73
6
 40
88.8999999999999773
 49
25.3999999999999986
 74
0
 49
-12.6999999999999993
 74
0
 49
25.3999999999999986
 74
0
 49
-12.6499999999999986
 74
0
 49
0.1
 74
0
 49
-12.6499999999999986
 74
0
  0
LTYPE
  5
47
100
AcDbSymbolTableRecord
100
AcDbLinetypeTableRecord
  2
DOTX2
 70
0
  3
Dot (2x) .  .  .  .  .  .  .  .  .  .  .  .  .  .
 72
65
 73
2
 40
12.6999999999999993
 49
0.1
 74
0
 49
-12.5999999999999996
 74
0
  0
LTYPE
  5
48
100
AcDbSymbolTableRecord
100
AcDbLinetypeTableRecord
  2
DIVIDE
 70
0
  3
Divide ____ . . ____ . . ____ . . ____ . . ____
 72
65
 73
6
 40
31.7500000000000036
 49
12.6999999999999993
 74
0
 49
-6.2999999999999998
 74
0
 49
0.1
 74
0
 49
-6.25
 74
0
 49
0.1
 74
0
 49
-6.2999999999999998
 74
0
  0
LTYPE
  5
49
100
AcDbSymbolTableRecord
100
AcDbLinetypeTableRecord
  2
ACAD_ISO03W100
 70
0
  3
ISO dash space __    __    __    __    __    __
 72
65
 73
2
 40
30.0
 49
12.0
 74
0
 49
-18.0
 74
0
  0
LTYPE
  5
4A
100
AcDbSymbolTableRecord
100
AcDbLinetypeTableRecord
  2
ACAD_ISO07W100
 70
0
  3
ISO dot . . . . . . . . . . . . . . . . . . . . 
 72
65
 73
2
 40
3.0
 49
0.1
 74
0
 49
-2.8999999999999999
 74
0
  0
LTYPE
  5
4B
100
AcDbSymbolTableRecord
100
AcDbLinetypeTableRecord
  2
DOT2
 70
0
  3
Dot (.5x) ........................................
 72
65
 73
2
 40
3.1749999999999998
 49
0.1
 74
0
 49
-3.0749999999999997
 74
0
  0
LTYPE
  5
4C
100
AcDbSymbolTableRecord
100
AcDbLinetypeTableRecord
  2
ACAD_ISO08W100
 70
0
  3
ISO long-dash short-dash ____ __ ____ __ ____ _
 72
65
 73
4
 40
36.0
 49
24.0
 74
0
 49
-3.0
 74
0
 49
6.0
 74
0
 49
-3.0
 74
0
  0
LTYPE
  5
4D
100
AcDbSymbolTableRecord
100
AcDbLinetypeTableRecord
  2
HIDDENX2
 70
0
  3
Hidden (2x) ____ ____ ____ ____ ____ ____ ____ 
 72
65
 73
2
 40
19.0499999999999972
 49
12.6999999999999993
 74
0
 49
-6.3499999999999996
 74
0
  0
LTYPE
  5
4E
100
AcDbSymbolTableRecord
100
AcDbLinetypeTableRecord
  2
BORDER2
 70
0
  3
Border (.5x) __.__.__.__.__.__.__.__.__.__.__.
 72
65
 73
6
 40
22.2250000000000014
 49
6.3499999999999996
 74
0
 49
-3.1749999999999998
 74
0
 49
6.3499999999999996
 74
0
 49
-3.125
 74
0
 49
0.1
 74
0
 49
-3.125
 74
0
  0
LTYPE
  5
4F
100
AcDbSymbolTableRecord
100
AcDbLinetypeTableRecord
  2
DASHDOT2
 70
0
  3
Dash dot (.5x) _._._._._._._._._._._._._._._.
 72
65
 73
4
 40
12.6999999999999993
 49
6.3499999999999996
 74
0
 49
-3.125
 74
0
 49
0.1
 74
0
 49
-3.125
 74
0
  0
LTYPE
  5
50
100
AcDbSymbolTableRecord
100
AcDbLinetypeTableRecord
  2
ACAD_ISO06W100
 70
0
  3
ISO long-dash triple-dot ____ ... ____ ... ____
 72
65
 73
8
 40
36.0000000000000071
 49
24.0
 74
0
 49
-2.9500000000000002
 74
0
 49
0.1
 74
0
 49
-2.9000000000000004
 74
0
 49
0.1
 74
0
 49
-2.9000000000000004
 74
0
 49
0.1
 74
0
 49
-2.9500000000000002
 74
0
  0
LTYPE
  5
51
100
AcDbSymbolTableRecord
100
AcDbLinetypeTableRecord
  2
DASHED2
 70
0
  3
Dashed (.5x) _ _ _ _ _ _ _ _ _ _ _ _ _ _ _ _ _ 
 72
65
 73
2
 40
9.5249999999999986
 49
6.3499999999999996
 74
0
 49
-3.1749999999999998
 74
0
  0
LTYPE
  5
14
100
AcDbSymbolTableRecord
100
AcDbLinetypeTableRecord
  2
BYBLOCK
 70
0
  3

 72
65
 73
0
 40
0.0
  0
LTYPE
  5
52
100
AcDbSymbolTableRecord
100
AcDbLinetypeTableRecord
  2
ACAD_ISO05W100
 70
0
  3
ISO long-dash double-dot ____ .. ____ .. ____ . 
 72
65
 73
6
 40
33.0000000000000071
 49
24.0
 74
0
 49
-2.9500000000000002
 74
0
 49
0.1
 74
0
 49
-2.9000000000000004
 74
0
 49
0.1
 74
0
 49
-2.9500000000000002
 74
0
  0
LTYPE
  5
53
100
AcDbSymbolTableRecord
100
AcDbLinetypeTableRecord
  2
DASHEDX2
 70
0
  3
Dashed (2x) ____  ____  ____  ____  ____  ___
 72
65
 73
2
 40
38.0999999999999943
 49
25.3999999999999986
 74
0
 49
-12.6999999999999993
 74
0
  0
LTYPE
  5
54
100
AcDbSymbolTableRecord
100
AcDbLinetypeTableRecord
  2
DIVIDEX2
 70
0
  3
Divide (2x) ________  .  .  ________  .  .  _
 72
65
 73
6
 40
63.5
 49
25.3999999999999986
 74
0
 49
-12.6499999999999986
 74
0
 49
0.1
 74
0
 49
-12.5999999999999979
 74
0
 49
0.1
 74
0
 49
-12.6499999999999986
 74
0
  0
LTYPE
  5
55
100
AcDbSymbolTableRecord
100
AcDbLinetypeTableRecord
  2
PHANTOM
 70
0
  3
Phantom ______  __  __  ______  __  __  ______ 
 72
65
 73
6
 40
63.5000000000000071
 49
31.75
 74
0
 49
-6.3499999999999996
 74
0
 49
6.3499999999999996
 74
0
 49
-6.3499999999999996
 74
0
 49
6.3499999999999996
 74
0
 49
-6.3499999999999996
 74
0
  0
LTYPE
  5
56
100
AcDbSymbolTableRecord
100
AcDbLinetypeTableRecord
  2
BORDER
 70
0
  3
Border __ __ . __ __ . __ __ . __ __ . __ __ .
 72
65
 73
6
 40
44.4499999999999957
 49
12.6999999999999993
 74
0
 49
-6.3499999999999996
 74
0
 49
12.6999999999999993
 74
0
 49
-6.2999999999999998
 74
0
 49
0.1
 74
0
 49
-6.2999999999999998
 74
0
  0
ENDTAB
  0
TABLE
  2
LAYER
  5
2
100
AcDbSymbolTable
 70
1
  0
LAYER
  5
10
100
AcDbSymbolTableRecord
100
AcDbLayerTableRecord
  2
0
 70
0
 62
7
420
16777215
  6
Continuous
370
25
390
F
  0
ENDTAB
  0
TABLE
  2
STYLE
  5
3
100
AcDbSymbolTable
 70
2
  0
STYLE
  5
57
100
AcDbSymbolTableRecord
100
AcDbTextStyleTableRecord
  2
Standard
 70
0
 40
0.0
 41
1.0
 50
0.0
 71
0
 42
2.5
  3

  4

1001
ACAD
1000
txt
1071
0
  0
STYLE
  5
58
100
AcDbSymbolTableRecord
100
AcDbTextStyleTableRecord
  2
textstyle0
 70
0
 40
0.0
 41
1.0
 50
0.0
 71
0
 42
1.0
  3

  4

1001
ACAD
1000
Comfortaa
1071
0
  0
ENDTAB
  0
TABLE
  2
VIEW
  5
6
100
AcDbSymbolTable
 70
0
  0
ENDTAB
  0
TABLE
  2
UCS
  5
7
100
AcDbSymbolTable
 70
0
  0
ENDTAB
  0
TABLE
  2
APPID
  5
9
100
AcDbSymbolTable
 70
1
  0
APPID
  5
12
100
AcDbSymbolTableRecord
100
AcDbRegAppTableRecord
  2
ACAD
 70
0
  0
APPID
  5
59
100
AcDbSymbolTableRecord
100
AcDbRegAppTableRecord
  2
QCAD
 70
0
  0
ENDTAB
  0
TABLE
  2
DIMSTYLE
  5
A
100
AcDbSymbolTable
 70
1
100
AcDbDimStyleTable
 71
0
  0
DIMSTYLE
105
27
100
AcDbSymbolTableRecord
100
AcDbDimStyleTableRecord
  2
Standard
 41
2.5
 42
0.625
 43
3.75
 44
1.25
 70
0
 73
0
 74
0
 77
1
 78
8
140
2.5
141
2.5
143
0.03937007874016
147
0.625
171
3
172
1
271
2
272
2
274
3
278
44
283
0
284
8
340
57
  0
ENDTAB
  0
TABLE
  2
BLOCK_RECORD
  5
1
100
AcDbSymbolTable
 70
1
  0
BLOCK_RECORD
  5
1F
100
AcDbSymbolTableRecord
100
AcDbBlockTableRecord
  2
*Model_Space
340
22
  0
BLOCK_RECORD
  5
1B
100
AcDbSymbolTableRecord
100
AcDbBlockTableRecord
  2
*Paper_Space
340
1E
  0
BLOCK_RECORD
  5
23
100
AcDbSymbolTableRecord
100
AcDbBlockTableRecord
  2
*Paper_Space0
340
26
  0
ENDTAB
  0
ENDSEC
  0
SECTION
  2
BLOCKS
  0
BLOCK
  5
20
100
AcDbEntity
  8
0
100
AcDbBlockBegin
  2
*Model_Space
 70
0
 10
0.0
 20
0.0
 30
0.0
  3
*Model_Space
  1

  0
ENDBLK
  5
21
100
AcDbEntity
  8
0
100
AcDbBlockEnd
  0
BLOCK
  5
1C
100
AcDbEntity
 67
1
  8
0
100
AcDbBlockBegin
  2
*Paper_Space
 70
0
 10
0.0
 20
0.0
 30
0.0
  3
*Paper_Space
  1

  0
ENDBLK
  5
1D
100
AcDbEntity
 67
1
  8
0
100
AcDbBlockEnd
  0
BLOCK
  5
24
100
AcDbEntity
  8
0
100
AcDbBlockBegin
  2
*Paper_Space0
 70
0
 10
0.0
 20
0.0
 30
0.0
  3
*Paper_Space0
  1

  0
ENDBLK
  5
25
100
AcDbEntity
  8
0
100
AcDbBlockEnd
  0
ENDSEC
  0
SECTION
  2
ENTITIES
  0
LINE
  5
5A
100
AcDbEntity
  8
0
 62
256
370
-1
 48
1.0
  6
BYLAYER
100
AcDbLine
 10
0.0
 20
0.0
 30
0.0
 11
103.9230484541326263
 21
-60.0
 31
0.0
  0
LINE
  5
5B
100
AcDbEntity
  8
0
 62
256
370
-1
 48
1.0
  6
BYLAYER
100
AcDbLine
 10
103.9230484541326263
 20
-60.0
 30
0.0
 11
103.9230484541326263
 21
-50.0
 31
0.0
  0
LINE
  5
5C
100
AcDbEntity
  8
0
 62
256
370
-1
 48
1.0
  6
BYLAYER
100
AcDbLine
 10
103.9230484541326263
 20
-50.0
 30
0.0
 11
0.0
 21
10.0
 31
0.0
  0
LINE
  5
5D
100
AcDbEntity
  8
0
 62
256
370
-1
 48
1.0
  6
BYLAYER
100
AcDbLine
 10
0.0
 20
10.0
 30
0.0
 11
0.0
 21
0.0
 31
0.0
  0
LINE
  5
5E
100
AcDbEntity
  8
0
 62
256
370
-1
 48
1.0
  6
BYLAYER
100
AcDbLine
 10
0.0
 20
0.0
 30
0.0
 11
8.6602540378443855
 21
5.0
 31
0.0
  0
LINE
  5
5F
100
AcDbEntity
  8
0
 62
256
370
-1
 48
1.0
  6
BYLAYER
100
AcDbLine
 10
8.6602540378443855
 20
5.0
 30
0.0
 11
8.6602540378443855
 21
-5.0
 31
0.0
  0
LINE
  5
60
100
AcDbEntity
  8
0
 62
256
370
-1
 48
1.0
  6
BYLAYER
100
AcDbLine
 10
8.6602540378443855
 20
-5.0
 30
0.0
 11
17.320508075688771
 21
0.0
 31
0.0
  0
LINE
  5
61
100
AcDbEntity
  8
0
 62
256
370
-1
 48
1.0
  6
BYLAYER
100
AcDbLine
 10
17.320508075688771
 20
0.0
 30
0.0
 11
17.320508075688771
 21
-10.0
 31
0.0
  0
LINE
  5
62
100
AcDbEntity
  8
0
 62
256
370
-1
 48
1.0
  6
BYLAYER
100
AcDbLine
 10
17.320508075688771
 20
-10.0
 30
0.0
 11
25.9807621135331566
 21
-5.0
 31
0.0
  0
LINE
  5
63
100
AcDbEntity
  8
0
 62
256
370
-1
 48
1.0
  6
BYLAYER
100
AcDbLine
 10
25.9807621135331566
 20
-5.0
 30
0.0
 11
25.9807621135331566
 21
-15.0
 31
0.0
  0
LINE
  5
64
100
AcDbEntity
  8
0
 62
256
370
-1
 48
1.0
  6
BYLAYER
100
AcDbLine
 10
25.9807621135331566
 20
-15.0
 30
0.0
 11
34.6410161513775421
 21
-10.0
 31
0.0
  0
LINE
  5
65
100
AcDbEntity
  8
0
 62
256
370
-1
 48
1.0
  6
BYLAYER
100
AcDbLine
 10
34.6410161513775421
 20
-10.0
 30
0.0
 11
34.6410161513775421
 21
-20.0
 31
0.0
  0
LINE
  5
66
100
AcDbEntity
  8
0
 62
256
370
-1
 48
1.0
  6
BYLAYER
100
AcDbLine
 10
34.6410161513775421
 20
-20.0
 30
0.0
 11
43.3012701892219241
 21
-15.0
 31
0.0
  0
LINE
  5
67
100
AcDbEntity
  8
0
 62
256
370
-1
 48
1.0
  6
BYLAYER
100
AcDbLine
 10
43.3012701892219241
 20
-15.0
 30
0.0
 11
43.3012701892219241
 21
-25.0
 31
0.0
  0
LINE
  5
68
100
AcDbEntity
  8
0
 62
256
370
-1
 48
1.0
  6
BYLAYER
100
AcDbLine
 10
43.3012701892219241
 20
-25.0
 30
0.0
 11
51.9615242270663131
 21
-20.0
 31
0.0
  0
LINE
  5
69
100
AcDbEntity
  8
0
 62
256
370
-1
 48
1.0
  6
BYLAYER
100
AcDbLine
 10
51.9615242270663131
 20
-20.0
 30
0.0
 11
51.9615242270663131
 21
-30.0
 31
0.0
  0
LINE
  5
6A
100
AcDbEntity
  8
0
 62
256
370
-1
 48
1.0
  6
BYLAYER
100
AcDbLine
 10
51.9615242270663131
 20
-30.0
 30
0.0
 11
60.6217782649107022
 21
-25.0
 31
0.0
  0
LINE
  5
6B
100
AcDbEntity
  8
0
 62
256
370
-1
 48
1.0
  6
BYLAYER
100
AcDbLine
 10
60.6217782649107022
 20
-25.0
 30
0.0
 11
60.6217782649107022
 21
-35.0
 31
0.0
  0
LINE
  5
6C
100
AcDbEntity
  8
0
 62
256
370
-1
 48
1.0
  6
BYLAYER
100
AcDbLine
 10
60.6217782649107022
 20
-35.0
 30
0.0
 11
69.2820323027550842
 21
-30.0
 31
0.0
  0
LINE
  5
6D
100
AcDbEntity
  8
0
 62
256
370
-1
 48
1.0
  6
BYLAYER
100
AcDbLine
 10
69.2820323027550842
 20
-30.0
 30
0.0
 11
69.2820323027550842
 21
-40.0
 31
0.0
  0
LINE
  5
6E
100
AcDbEntity
  8
0
 62
256
370
-1
 48
1.0
  6
BYLAYER
100
AcDbLine
 10
69.2820323027550842
 20
-40.0
 30
0.0
 11
77.9422863405994661
 21
-35.0
 31
0.0
  0
LINE
  5
6F
100
AcDbEntity
  8
0
 62
256
370
-1
 48
1.0
  6
BYLAYER
100
AcDbLine
 10
77.9422863405994661
 20
-35.0
 30
0.0
 11
77.9422863405994661
 21
-45.0
 31
0.0
  0
LINE
  5
70
100
AcDbEntity
  8
0
 62
256
370
-1
 48
1.0
  6
BYLAYER
100
AcDbLine
 10
77.9422863405994661
 20
-45.0
 30
0.0
 11
86.6025403784438481
 21
-40.0
 31
0.0
  0
LINE
  5
71
100
AcDbEntity
  8
0
 62
256
370
-1
 48
1.0
  6
BYLAYER
100
AcDbLine
 10
86.6025403784438481
 20
-40.0
 30
0.0
 11
86.6025403784438481
 21
-50.0
 31
0.0
  0
LINE
  5
72
100
AcDbEntity
  8
0
 62
256
370
-1
 48
1.0
  6
BYLAYER
100
AcDbLine
 10
86.6025403784438481
 20
-50.0
 30
0.0
 11
95.2627944162882443
 21
-45.0
 31
0.0
  0
LINE
  5
73
100
AcDbEntity
  8
0
 62
256
370
-1
 48
1.0
  6
BYLAYER
100
AcDbLine
 10
95.2627944162882443
 20
-45.0
 30
0.0
 11
95.2627944162882443
 21
-55.0
 31
0.0
  0
LINE
  5
74
100
AcDbEntity
  8
0
 62
256
370
-1
 48
1.0
  6
BYLAYER
100
AcDbLine
 10
95.2627944162882443
 20
-55.0
 30
0.0
 11
103.9230484541326263
 21
-50.0
 31
0.0
  0
CIRCLE
  5
75
100
AcDbEntity
  8
0
 62
256
370
-1
 48
1.0
  6
BYLAYER
100
AcDbCircle
 10
-0.0
 20
0.0
 30
0.0
 40
1.0
  0
CIRCLE
  5
76
100
AcDbEntity
  8
0
 62
256
370
-1
 48
1.0
  6
BYLAYER
100
AcDbCircle
 10
8.6602540378443873
 20
5.0000000000000009
 30
0.0
 40
0.9999999999999986
  0
CIRCLE
  5
77
100
AcDbEntity
  8
0
 62
256
370
-1
 48
1.0
  6
BYLAYER
100
AcDbCircle
 10
269.3339005769612982
 20
-143.5
 30
0.0
 40
0.9999999999999986
  0
CIRCLE
  5
78
100
AcDbEntity
  8
0
 62
256
370
-1
 48
1.0
  6
BYLAYER
100
AcDbCircle
 10
285.7883832488656708
 20
-152.0
 30
0.0
 40
0.9999999999999986
  0
CIRCLE
  5
79
100
AcDbEntity
  8
0
 62
256
370
-1
 48
1.0
  6
BYLAYER
100
AcDbCircle
 10
290.9845356715723028
 20
-132.0
 30
0.0
 40
0.9999999999999986
  0
CIRCLE
  5
7A
100
AcDbEntity
  8
0
 62
256
370
-1
 48
1.0
  6
BYLAYER
100
AcDbCircle
 10
305.7069675359077223
 20
-140.5
 30
0.0
 40
0.9999999999999986
  0
CIRCLE
  5
7B
100
AcDbEntity
  8
0
 62
256
370
-1
 48
1.0
  6
BYLAYER
100
AcDbCircle
 10
17.320508075688771
 20
-10.0
 30
0.0
 40
0.9999999999999986
  0
CIRCLE
  5
7C
100
AcDbEntity
  8
0
 62
256
370
-1
 48
1.0
  6
BYLAYER
100
AcDbCircle
 10
25.9807621135331566
 20
-4.9999999999999982
 30
0.0
 40
0.9999999999999986
  0
CIRCLE
  5
7D
100
AcDbEntity
  8
0
 62
256
370
-1
 48
1.0
  6
BYLAYER
100
AcDbCircle
 10
25.9807621135331601
 20
-15.0
 30
0.0
 40
0.9999999999999986
  0
CIRCLE
  5
7E
100
AcDbEntity
  8
0
 62
256
370
-1
 48
1.0
  6
BYLAYER
100
AcDbCircle
 10
34.6410161513775421
 20
-9.9999999999999982
 30
0.0
 40
0.9999999999999986
  0
CIRCLE
  5
7F
100
AcDbEntity
  8
0
 62
256
370
-1
 48
1.0
  6
BYLAYER
100
AcDbCircle
 10
34.641016151377535
 20
-20.0
 30
0.0
 40
0.9999999999999986
  0
CIRCLE
  5
80
100
AcDbEntity
  8
0
 62
256
370
-1
 48
1.0
  6
BYLAYER
100
AcDbCircle
 10
43.3012701892219241
 20
-15.0
 30
0.0
 40
0.9999999999999986
  0
CIRCLE
  5
81
100
AcDbEntity
  8
0
 62
256
370
-1
 48
1.0
  6
BYLAYER
100
AcDbCircle
 10
43.3012701892219312
 20
-25.0
 30
0.0
 40
0.9999999999999986
  0
CIRCLE
  5
82
100
AcDbEntity
  8
0
 62
256
370
-1
 48
1.0
  6
BYLAYER
100
AcDbCircle
 10
51.9615242270663202
 20
-20.0
 30
0.0
 40
0.9999999999999986
  0
CIRCLE
  5
83
100
AcDbEntity
  8
0
 62
256
370
-1
 48
1.0
  6
BYLAYER
100
AcDbCircle
 10
51.9615242270663131
 20
-30.0
 30
0.0
 40
0.9999999999999986
  0
CIRCLE
  5
84
100
AcDbEntity
  8
0
 62
256
370
-1
 48
1.0
  6
BYLAYER
100
AcDbCircle
 10
60.6217782649107022
 20
-25.0000000000000036
 30
0.0
 40
0.9999999999999986
  0
CIRCLE
  5
85
100
AcDbEntity
  8
0
 62
256
370
-1
 48
1.0
  6
BYLAYER
100
AcDbCircle
 10
60.6217782649106951
 20
-35.0000000000000071
 30
0.0
 40
0.9999999999999986
  0
CIRCLE
  5
86
100
AcDbEntity
  8
0
 62
256
370
-1
 48
1.0
  6
BYLAYER
100
AcDbCircle
 10
69.28203230275507
 20
-30.0000000000000071
 30
0.0
 40
0.9999999999999986
  0
CIRCLE
  5
87
100
AcDbEntity
  8
0
 62
256
370
-1
 48
1.0
  6
BYLAYER
100
AcDbCircle
 10
69.28203230275507
 20
-40.0
 30
0.0
 40
0.9999999999999986
  0
CIRCLE
  5
88
100
AcDbEntity
  8
0
 62
256
370
-1
 48
1.0
  6
BYLAYER
100
AcDbCircle
 10
77.9422863405994661
 20
-35.0
 30
0.0
 40
0.9999999999999986
  0
CIRCLE
  5
89
100
AcDbEntity
  8
0
 62
256
370
-1
 48
1.0
  6
BYLAYER
100
AcDbCircle
 10
77.9422863405994661
 20
-45.0000000000000071
 30
0.0
 40
0.9999999999999986
  0
CIRCLE
  5
8A
100
AcDbEntity
  8
0
 62
256
370
-1
 48
1.0
  6
BYLAYER
100
AcDbCircle
 10
86.6025403784438481
 20
-39.9999999999999929
 30
0.0
 40
0.9999999999999986
  0
CIRCLE
  5
8B
100
AcDbEntity
  8
0
 62
256
370
-1
 48
1.0
  6
BYLAYER
100
AcDbCircle
 10
86.6025403784438481
 20
-49.9999999999999929
 30
0.0
 40
0.9999999999999986
  0
CIRCLE
  5
8C
100
AcDbEntity
  8
0
 62
256
370
-1
 48
1.0
  6
BYLAYER
100
AcDbCircle
 10
95.2627944162882301
 20
-45.0
 30
0.0
 40
0.9999999999999986
  0
CIRCLE
  5
8D
100
AcDbEntity
  8
0
 62
256
370
-1
 48
1.0
  6
BYLAYER
100
AcDbCircle
 10
95.2627944162882443
 20
-55.0
 30
0.0
 40
0.9999999999999986
  0
CIRCLE
  5
8E
100
AcDbEntity
  8
0
 62
256
370
-1
 48
1.0
  6
BYLAYER
100
AcDbCircle
 10
103.9230484541326121
 20
-49.9999999999999929
 30
0.0
 40
0.9999999999999986
  0
CIRCLE
  5
8F
100
AcDbEntity
  8
0
 62
256
370
-1
 48
1.0
  6
BYLAYER
100
AcDbCircle
 10
51.9615242270663131
 20
29.9999999999999964
 30
0.0
 40
0.9999999999999986
  0
CIRCLE
  5
90
100
AcDbEntity
  8
0
 62
256
370
-1
 48
1.0
  6
BYLAYER
100
AcDbCircle
 10
60.6217782649106951
 20
35.0
 30
0.0
 40
0.9999999999999986
  0
CIRCLE
  5
91
100
AcDbEntity
  8
0
 62
256
370
-1
 48
1.0
  6
BYLAYER
100
AcDbCircle
 10
60.621778264910688
 20
24.9999999999999893
 30
0.0
 40
0.9999999999999986
  0
CIRCLE
  5
92
100
AcDbEntity
  8
0
 62
256
370
-1
 48
1.0
  6
BYLAYER
100
AcDbCircle
 10
69.28203230275507
 20
29.9999999999999964
 30
0.0
 40
0.9999999999999986
  0
CIRCLE
  5
93
100
AcDbEntity
  8
0
 62
256
370
-1
 48
1.0
  6
BYLAYER
100
AcDbCircle
 10
69.28203230275507
 20
20.0
 30
0.0
 40
0.9999999999999986
  0
CIRCLE
  5
94
100
AcDbEntity
  8
0
 62
256
370
-1
 48
1.0
  6
BYLAYER
100
AcDbCircle
 10
77.9422863405994661
 20
25.0000000000000036
 30
0.0
 40
0.9999999999999986
  0
CIRCLE
  5
95
100
AcDbEntity
  8
0
 62
256
370
-1
 48
1.0
  6
BYLAYER
100
AcDbCircle
 10
77.9422863405994519
 20
14.9999999999999964
 30
0.0
 40
0.9999999999999986
  0
CIRCLE
  5
96
100
AcDbEntity
  8
0
 62
256
370
-1
 48
1.0
  6
BYLAYER
100
AcDbCircle
 10
86.6025403784438481
 20
20.0000000000000107
 30
0.0
 40
0.9999999999999986
  0
CIRCLE
  5
97
100
AcDbEntity
  8
0
 62
256
370
-1
 48
1.0
  6
BYLAYER
100
AcDbCircle
 10
86.6025403784438623
 20
9.9999999999999982
 30
0.0
 40
0.9999999999999986
  0
CIRCLE
  5
98
100
AcDbEntity
  8
0
 62
256
370
-1
 48
1.0
  6
BYLAYER
100
AcDbCircle
 10
95.2627944162882301
 20
15.0000000000000089
 30
0.0
 40
0.9999999999999986
  0
CIRCLE
  5
99
100
AcDbEntity
  8
0
 62
256
370
-1
 48
1.0
  6
BYLAYER
100
AcDbCircle
 10
95.2627944162882301
 20
4.9999999999999973
 30
0.0
 40
0.9999999999999986
  0
CIRCLE
  5
9A
100
AcDbEntity
  8
0
 62
256
370
-1
 48
1.0
  6
BYLAYER
100
AcDbCircle
 10
103.9230484541326405
 20
10.0
 30
0.0
 40
0.9999999999999986
  0
CIRCLE
  5
9B
100
AcDbEntity
  8
0
 62
256
370
-1
 48
1.0
  6
BYLAYER
100
AcDbCircle
 10
103.9230484541326405
 20
-0.000000000000007
 30
0.0
 40
0.9999999999999986
  0
CIRCLE
  5
9C
100
AcDbEntity
  8
0
 62
256
370
-1
 48
1.0
  6
BYLAYER
100
AcDbCircle
 10
112.5833024919770082
 20
5.0000000000000009
 30
0.0
 40
0.9999999999999986
  0
CIRCLE
  5
9D
100
AcDbEntity
  8
0
 62
256
370
-1
 48
1.0
  6
BYLAYER
100
AcDbCircle
 10
112.5833024919770224
 20
-5.0000000000000115
 30
0.0
 40
0.9999999999999986
  0
CIRCLE
  5
9E
100
AcDbEntity
  8
0
 62
256
370
-1
 48
1.0
  6
BYLAYER
100
AcDbCircle
 10
121.2435565298213902
 20
0.0
 30
0.0
 40
0.9999999999999986
  0
CIRCLE
  5
9F
100
AcDbEntity
  8
0
 62
256
370
-1
 48
1.0
  6
BYLAYER
100
AcDbCircle
 10
121.2435565298214044
 20
-10.0000000000000018
 30
0.0
 40
0.9999999999999986
  0
CIRCLE
  5
A0
100
AcDbEntity
  8
0
 62
256
370
-1
 48
1.0
  6
BYLAYER
100
AcDbCircle
 10
129.9038105676657722
 20
-4.9999999999999911
 30
0.0
 40
0.9999999999999986
  0
CIRCLE
  5
A1
100
AcDbEntity
  8
0
 62
256
370
-1
 48
1.0
  6
BYLAYER
100
AcDbCircle
 10
129.9038105676657722
 20
-15.0000000000000089
 30
0.0
 40
0.9999999999999986
  0
CIRCLE
  5
A2
100
AcDbEntity
  8
0
 62
256
370
-1
 48
1.0
  6
BYLAYER
100
AcDbCircle
 10
138.5640646055101399
 20
-10.0000000000000018
 30
0.0
 40
0.9999999999999986
  0
CIRCLE
  5
A3
100
AcDbEntity
  8
0
 62
256
370
-1
 48
1.0
  6
BYLAYER
100
AcDbCircle
 10
138.5640646055101683
 20
-20.0000000000000036
 30
0.0
 40
0.9999999999999986
  0
CIRCLE
  5
A4
100
AcDbEntity
  8
0
 62
256
370
-1
 48
1.0
  6
BYLAYER
100
AcDbCircle
 10
147.224318643354593
 20
-14.9999999999999964
 30
0.0
 40
0.9999999999999986
  0
CIRCLE
  5
A5
100
AcDbEntity
  8
0
 62
256
370
-1
 48
1.0
  6
BYLAYER
100
AcDbCircle
 10
147.2243186433545645
 20
-25.0000000000000178
 30
0.0
 40
0.9999999999999986
  0
CIRCLE
  5
A6
100
AcDbEntity
  8
0
 62
256
370
-1
 48
1.0
  6
BYLAYER
100
AcDbCircle
 10
155.8845726811989607
 20
-20.0000000000000142
 30
0.0
 40
0.9999999999999986
  0
CIRCLE
  5
A7
100
AcDbEntity
  8
0
 62
256
370
-1
 48
1.0
  6
BYLAYER
100
AcDbCircle
 10
8.6602540378443855
 20
-5.0
 30
0.0
 40
1.0000000000000004
  0
CIRCLE
  5
A8
100
AcDbEntity
  8
0
 62
256
370
-1
 48
1.0
  6
BYLAYER
100
AcDbCircle
 10
17.320508075688771
 20
-0.0
 30
0.0
 40
1.000000000000002
  0
LINE
  5
A9
100
AcDbEntity
  8
0
 62
256
370
-1
 48
1.0
  6
BYLAYER
100
AcDbLine
 10
18.1865334794732121
 20
1.5
 30
0.0
 11
35.5070415551619831
 21
-8.5
 31
0.0
  0
LINE
  5
AA
100
AcDbEntity
  8
0
 62
256
370
-1
 48
1.0
  6
BYLAYER
100
AcDbLine
 10
106.5211246654859423
 20
-48.5
 30
0.0
 11
103.9230484541326405
 21
-49.9999999999999929
 31
0.0
  0
LINE
  5
AB
100
AcDbEntity
  8
0
 62
256
370
-1
 48
1.0
  6
BYLAYER
100
AcDbLine
 10
5.1961524227063496
 20
10.0000000000001616
 30
0.0
 11
19.9185842870420871
 21
1.5
 31
0.0
  0
LINE
  5
AC
100
AcDbEntity
  8
0
 62
256
370
-1
 48
1.0
  6
BYLAYER
100
AcDbLine
 10
103.9230484541326263
 20
-47.0
 30
0.0
 11
89.2006165897971783
 21
-38.5
 31
0.0
  0
LINE
  5
AD
100
AcDbEntity
  8
0
 62
256
370
-1
 48
1.0
  6
BYLAYER
100
AcDbLine
 10
0.0
 20
10.0000000000000018
 30
0.0
 11
2.598076211353316
 21
11.5
 31
0.0
  0
LINE
  5
AE
100
AcDbEntity
  8
0
 62
256
370
-1
 48
1.0
  6
BYLAYER
100
AcDbLine
 10
89.2006165897971783
 20
-39.5
 30
0.0
 11
71.0140831103239663
 21
-29.0
 31
0.0
  0
LINE
  5
AF
100
AcDbEntity
  8
0
 62
256
370
-1
 48
1.0
  6
BYLAYER
100
AcDbLine
 10
33.7749907475931082
 20
-8.5
 30
0.0
 11
71.0140831103239663
 21
-30.0
 31
0.0
  0
LINE
  5
B0
100
AcDbEntity
  8
0
 62
256
370
-1
 48
1.0
  6
BYLAYER
100
AcDbLine
 10
19.9185842870420871
 20
1.5
 30
0.0
 11
17.320508075688771
 21
-0.0
 31
0.0
  0
LINE
  5
B1
100
AcDbEntity
  8
0
 62
256
370
-1
 48
1.0
  6
BYLAYER
100
AcDbLine
 10
18.1865334794732121
 20
1.5
 30
0.0
 11
16.4544826719025252
 21
0.5000000000010445
 31
0.0
  0
LINE
  5
B2
100
AcDbEntity
  8
0
 62
256
370
-1
 48
1.0
  6
BYLAYER
100
AcDbLine
 10
278.8601800185901425
 20
-147.0
 30
0.0
 11
277.1281292110194272
 21
-147.9999999999989484
 31
0.0
  0
LINE
  5
B3
100
AcDbEntity
  8
0
 62
256
370
-1
 48
1.0
  6
BYLAYER
100
AcDbLine
 10
295.3146626904945151
 20
-155.5
 30
0.0
 11
293.5826118829237998
 21
-156.4999999999989484
 31
0.0
  0
LINE
  5
B4
100
AcDbEntity
  8
0
 62
256
370
-1
 48
1.0
  6
BYLAYER
100
AcDbLine
 10
300.5108151132011471
 20
-135.5
 30
0.0
 11
298.7787643056304319
 21
-136.4999999999989484
 31
0.0
  0
LINE
  5
B5
100
AcDbEntity
  8
0
 62
256
370
-1
 48
1.0
  6
BYLAYER
100
AcDbLine
 10
315.2332469775365666
 20
-144.0
 30
0.0
 11
313.5011961699658514
 21
-144.9999999999989484
 31
0.0
  0
LINE
  5
B6
100
AcDbEntity
  8
0
 62
256
370
-1
 48
1.0
  6
BYLAYER
100
AcDbLine
 10
103.9230484541335358
 20
-45.2939538456428679
 30
0.0
 11
102.1909976465628489
 21
-46.2939538456418234
 31
0.0
  0
LINE
  5
B7
100
AcDbEntity
  8
0
 62
256
370
-1
 48
1.0
  6
BYLAYER
100
AcDbLine
 10
149.82239485470879
 20
-18.7939538456428643
 30
0.0
 11
148.0903440471381032
 21
-19.7939538456418198
 31
0.0
  0
LINE
  5
B8
100
AcDbEntity
  8
0
 62
256
370
-1
 48
1.0
  6
BYLAYER
100
AcDbLine
 10
35.5070415551619831
 20
-8.5
 30
0.0
 11
33.7749907475930939
 21
-9.5
 31
0.0
  0
LINE
  5
B9
100
AcDbEntity
  8
0
 62
256
370
-1
 48
1.0
  6
BYLAYER
100
AcDbLine
 10
33.7749907475931082
 20
-8.5
 30
0.0
 11
32.9089653438086671
 21
-9.0
 31
0.0
  0
LINE
  5
BA
100
AcDbEntity
  8
0
 62
256
370
-1
 48
1.0
  6
BYLAYER
100
AcDbLine
 10
71.0140831103239663
 20
-29.0
 30
0.0
 11
69.28203230275507
 21
-30.0000000000000071
 31
0.0
  0
LINE
  5
BB
100
AcDbEntity
  8
0
 62
256
370
-1
 48
1.0
  6
BYLAYER
100
AcDbLine
 10
71.0140831103239663
 20
-30.0
 30
0.0
 11
70.1480577065395181
 21
-30.4999999999999964
 31
0.0
  0
LINE
  5
BC
100
AcDbEntity
  8
0
 62
256
370
-1
 48
1.0
  6
BYLAYER
100
AcDbLine
 10
89.2006165897971783
 20
-39.5
 30
0.0
 11
87.4685657822283389
 21
-40.5000000000000284
 31
0.0
  0
LINE
  5
BD
100
AcDbEntity
  8
0
 62
256
370
-1
 48
1.0
  6
BYLAYER
100
AcDbLine
 10
89.2006165897971783
 20
-38.5
 30
0.0
 11
86.6025403784438765
 21
-40.0
 31
0.0
  0
LINE
  5
BE
100
AcDbEntity
  8
0
 62
256
370
-1
 48
1.0
  6
BYLAYER
100
AcDbLine
 10
5.1961524227066311
 20
0.0
 30
0.0
 11
103.9230484541326263
 21
-57.0
 31
0.0
  0
LINE
  5
BF
100
AcDbEntity
  8
0
 62
256
370
-1
 48
1.0
  6
BYLAYER
100
AcDbLine
 10
103.9230484541326263
 20
-60.0
 30
0.0
 11
106.5211246654859423
 21
-58.5
 31
0.0
  0
LINE
  5
C0
100
AcDbEntity
  8
0
 62
256
370
-1
 48
1.0
  6
BYLAYER
100
AcDbLine
 10
106.5211246654859423
 20
-58.5
 30
0.0
 11
106.5211246654859423
 21
-48.5000000000000071
 31
0.0
  0
LINE
  5
C1
100
AcDbEntity
  8
0
 62
256
370
-1
 48
1.0
  6
BYLAYER
100
AcDbLine
 10
2.5980762113533156
 20
11.5000000000000018
 30
0.0
 11
49.3634480157129971
 21
38.5
 31
0.0
  0
LINE
  5
C2
100
AcDbEntity
  8
0
 62
256
370
-1
 48
1.0
  6
BYLAYER
100
AcDbLine
 10
153.2864964698456447
 20
-21.5
 30
0.0
 11
106.5211246654859565
 21
-48.4999999999999929
 31
0.0
  0
LINE
  5
C3
100
AcDbEntity
  8
0
 62
256
370
-1
 48
1.0
  6
BYLAYER
100
AcDbLine
 10
153.2864964698456447
 20
-21.5000000000000036
 30
0.0
 11
155.8845726811989607
 21
-20.0
 31
0.0
  0
LINE
  5
C4
100
AcDbEntity
  8
0
 62
256
370
-1
 48
1.0
  6
BYLAYER
100
AcDbLine
 10
155.8845726811989607
 20
-20.0
 30
0.0
 11
155.8845726811989607
 21
-30.0
 31
0.0
  0
LINE
  5
C5
100
AcDbEntity
  8
0
 62
256
370
-1
 48
1.0
  6
BYLAYER
100
AcDbLine
 10
155.8845726811989607
 20
-30.0
 30
0.0
 11
106.5211246654859565
 21
-58.5
 31
0.0
  0
LINE
  5
C6
100
AcDbEntity
  8
0
 62
256
370
-1
 48
1.0
  6
BYLAYER
100
AcDbLine
 10
51.9615242270663131
 20
40.0
 30
0.0
 11
155.8845726811989607
 21
-20.0
 31
0.0
  0
LINE
  5
C7
100
AcDbEntity
  8
0
 62
256
370
-1
 48
1.0
  6
BYLAYER
100
AcDbLine
 10
51.9615242270663131
 20
40.0
 30
0.0
 11
51.9615242270663131
 21
30.0
 31
0.0
  0
LINE
  5
C8
100
AcDbEntity
  8
0
 62
256
370
-1
 48
1.0
  6
BYLAYER
100
AcDbLine
 10
51.9615242270663131
 20
30.0
 30
0.0
 11
155.8845726811989607
 21
-30.0000000000000142
 31
0.0
  0
LINE
  5
C9
100
AcDbEntity
  8
0
 62
256
370
-1
 48
1.0
  6
BYLAYER
100
AcDbLine
 10
51.9615242270663131
 20
29.9999999999999964
 30
0.0
 11
60.6217782649107022
 21
35.0
 31
0.0
  0
LINE
  5
CA
100
AcDbEntity
  8
0
 62
256
370
-1
 48
1.0
  6
BYLAYER
100
AcDbLine
 10
60.6217782649107022
 20
35.0
 30
0.0
 11
60.6217782649107022
 21
25.0
 31
0.0
  0
LINE
  5
CB
100
AcDbEntity
  8
0
 62
256
370
-1
 48
1.0
  6
BYLAYER
100
AcDbLine
 10
60.6217782649107022
 20
25.0
 30
0.0
 11
69.2820323027550842
 21
30.0
 31
0.0
  0
LINE
  5
CC
100
AcDbEntity
  8
0
 62
256
370
-1
 48
1.0
  6
BYLAYER
100
AcDbLine
 10
69.2820323027550842
 20
30.0
 30
0.0
 11
69.2820323027550842
 21
20.0
 31
0.0
  0
LINE
  5
CD
100
AcDbEntity
  8
0
 62
256
370
-1
 48
1.0
  6
BYLAYER
100
AcDbLine
 10
69.2820323027550842
 20
20.0
 30
0.0
 11
77.9422863405994661
 21
25.0
 31
0.0
  0
LINE
  5
CE
100
AcDbEntity
  8
0
 62
256
370
-1
 48
1.0
  6
BYLAYER
100
AcDbLine
 10
77.9422863405994661
 20
25.0
 30
0.0
 11
77.9422863405994661
 21
15.0
 31
0.0
  0
LINE
  5
CF
100
AcDbEntity
  8
0
 62
256
370
-1
 48
1.0
  6
BYLAYER
100
AcDbLine
 10
77.9422863405994661
 20
14.9999999999999964
 30
0.0
 11
86.6025403784438481
 21
20.0
 31
0.0
  0
LINE
  5
D0
100
AcDbEntity
  8
0
 62
256
370
-1
 48
1.0
  6
BYLAYER
100
AcDbLine
 10
86.6025403784438481
 20
20.0
 30
0.0
 11
86.6025403784438481
 21
10.0
 31
0.0
  0
LINE
  5
D1
100
AcDbEntity
  8
0
 62
256
370
-1
 48
1.0
  6
BYLAYER
100
AcDbLine
 10
86.6025403784438481
 20
10.0
 30
0.0
 11
95.2627944162882443
 21
15.0
 31
0.0
  0
LINE
  5
D2
100
AcDbEntity
  8
0
 62
256
370
-1
 48
1.0
  6
BYLAYER
100
AcDbLine
 10
95.2627944162882443
 20
15.0
 30
0.0
 11
95.2627944162882443
 21
5.0
 31
0.0
  0
LINE
  5
D3
100
AcDbEntity
  8
0
 62
256
370
-1
 48
1.0
  6
BYLAYER
100
AcDbLine
 10
95.2627944162882301
 20
4.9999999999999938
 30
0.0
 11
103.9230484541326405
 21
10.0
 31
0.0
  0
LINE
  5
D4
100
AcDbEntity
  8
0
 62
256
370
-1
 48
1.0
  6
BYLAYER
100
AcDbLine
 10
103.9230484541326405
 20
10.0
 30
0.0
 11
103.9230484541326405
 21
-0.0000000000000071
 31
0.0
  0
LINE
  5
D5
100
AcDbEntity
  8
0
 62
256
370
-1
 48
1.0
  6
BYLAYER
100
AcDbLine
 10
103.9230484541326405
 20
-0.0000000000000071
 30
0.0
 11
112.5833024919770082
 21
5.0
 31
0.0
  0
LINE
  5
D6
100
AcDbEntity
  8
0
 62
256
370
-1
 48
1.0
  6
BYLAYER
100
AcDbLine
 10
112.5833024919770082
 20
5.0
 30
0.0
 11
112.5833024919770082
 21
-5.0
 31
0.0
  0
LINE
  5
D7
100
AcDbEntity
  8
0
 62
256
370
-1
 48
1.0
  6
BYLAYER
100
AcDbLine
 10
112.5833024919770082
 20
-5.0
 30
0.0
 11
121.2435565298214044
 21
0.0
 31
0.0
  0
LINE
  5
D8
100
AcDbEntity
  8
0
 62
256
370
-1
 48
1.0
  6
BYLAYER
100
AcDbLine
 10
121.2435565298214044
 20
0.0
 30
0.0
 11
121.2435565298214044
 21
-10.0
 31
0.0
  0
LINE
  5
D9
100
AcDbEntity
  8
0
 62
256
370
-1
 48
1.0
  6
BYLAYER
100
AcDbLine
 10
121.2435565298214044
 20
-10.0
 30
0.0
 11
129.9038105676657722
 21
-5.0
 31
0.0
  0
LINE
  5
DA
100
AcDbEntity
  8
0
 62
256
370
-1
 48
1.0
  6
BYLAYER
100
AcDbLine
 10
129.9038105676657722
 20
-5.0
 30
0.0
 11
129.9038105676657722
 21
-15.0
 31
0.0
  0
LINE
  5
DB
100
AcDbEntity
  8
0
 62
256
370
-1
 48
1.0
  6
BYLAYER
100
AcDbLine
 10
129.9038105676657722
 20
-15.0
 30
0.0
 11
138.5640646055101683
 21
-10.0
 31
0.0
  0
LINE
  5
DC
100
AcDbEntity
  8
0
 62
256
370
-1
 48
1.0
  6
BYLAYER
100
AcDbLine
 10
138.5640646055101683
 20
-10.0
 30
0.0
 11
138.5640646055101683
 21
-20.0
 31
0.0
  0
LINE
  5
DD
100
AcDbEntity
  8
0
 62
256
370
-1
 48
1.0
  6
BYLAYER
100
AcDbLine
 10
138.5640646055101683
 20
-20.0
 30
0.0
 11
147.2243186433545645
 21
-15.0
 31
0.0
  0
LINE
  5
DE
100
AcDbEntity
  8
0
 62
256
370
-1
 48
1.0
  6
BYLAYER
100
AcDbLine
 10
147.2243186433545645
 20
-15.0
 30
0.0
 11
147.2243186433545645
 21
-25.0000000000000142
 31
0.0
  0
LINE
  5
DF
100
AcDbEntity
  8
0
 62
256
370
-1
 48
1.0
  6
BYLAYER
100
AcDbLine
 10
147.2243186433545645
 20
-25.0000000000000142
 30
0.0
 11
155.8845726811989607
 21
-20.0
 31
0.0
  0
LINE
  5
E0
100
AcDbEntity
  8
0
 62
256
370
-1
 48
1.0
  6
BYLAYER
100
AcDbLine
 10
51.9615242270663131
 20
36.9812871585252623
 30
0.0
 11
66.6839560914017682
 21
28.5
 31
0.0
  0
LINE
  5
E1
100
AcDbEntity
  8
0
 62
256
370
-1
 48
1.0
  6
BYLAYER
100
AcDbLine
 10
66.6839560914017682
 20
29.5
 30
0.0
 11
84.0044641670905463
 21
19.5
 31
0.0
  0
LINE
  5
E2
100
AcDbEntity
  8
0
 62
256
370
-1
 48
1.0
  6
BYLAYER
100
AcDbLine
 10
84.0044641670905463
 20
20.5
 30
0.0
 11
104.7890738579170744
 21
8.5
 31
0.0
  0
LINE
  5
E3
100
AcDbEntity
  8
0
 62
256
370
-1
 48
1.0
  6
BYLAYER
100
AcDbLine
 10
103.0570230503481923
 20
8.5
 30
0.0
 11
121.2435565298214044
 21
-2.0
 31
0.0
  0
LINE
  5
E4
100
AcDbEntity
  8
0
 62
256
370
-1
 48
1.0
  6
BYLAYER
100
AcDbLine
 10
119.5115057222525223
 20
-2.0
 30
0.0
 11
150.6884202584923571
 21
-20.0000000000000107
 31
0.0
  0
LINE
  5
E5
100
AcDbEntity
  8
0
 62
256
370
-1
 48
1.0
  6
BYLAYER
100
AcDbLine
 10
66.6839560914017824
 20
28.5
 30
0.0
 11
69.28203230275507
 21
30.0000000000000036
 31
0.0
  0
LINE
  5
E6
100
AcDbEntity
  8
0
 62
256
370
-1
 48
1.0
  6
BYLAYER
100
AcDbLine
 10
65.8179306876173342
 20
29.0
 30
0.0
 11
65.8179306876173342
 21
29.0
 31
0.0
  0
LINE
  5
E7
100
AcDbEntity
  8
0
 62
256
370
-1
 48
1.0
  6
BYLAYER
100
AcDbLine
 10
68.4160068989705792
 20
30.5000000000000355
 30
0.0
 11
66.6839560914017682
 21
29.5
 31
0.0
  0
LINE
  5
E8
100
AcDbEntity
  8
0
 62
256
370
-1
 48
1.0
  6
BYLAYER
100
AcDbLine
 10
84.0044641670905463
 20
19.5
 30
0.0
 11
85.7365149746595137
 21
20.4999999999999432
 31
0.0
  0
LINE
  5
E9
100
AcDbEntity
  8
0
 62
256
370
-1
 48
1.0
  6
BYLAYER
100
AcDbLine
 10
84.0044641670905463
 20
20.5
 30
0.0
 11
84.8704895708749802
 21
21.0
 31
0.0
  0
LINE
  5
EA
100
AcDbEntity
  8
0
 62
256
370
-1
 48
1.0
  6
BYLAYER
100
AcDbLine
 10
103.9230484541326263
 20
8.9999999999999947
 30
0.0
 11
104.7890738579170886
 21
9.4999999999999964
 31
0.0
  0
LINE
  5
EB
100
AcDbEntity
  8
0
 62
256
370
-1
 48
1.0
  6
BYLAYER
100
AcDbLine
 10
103.0570230503481923
 20
8.5
 30
0.0
 11
104.7890738579170744
 21
9.4999999999999858
 31
0.0
  0
LINE
  5
EC
100
AcDbEntity
  8
0
 62
256
370
-1
 48
1.0
  6
BYLAYER
100
AcDbLine
 10
104.7890738579170744
 20
8.5
 30
0.0
 11
105.6550992617015083
 21
9.0
 31
0.0
  0
LINE
  5
ED
100
AcDbEntity
  8
0
 62
256
370
-1
 48
1.0
  6
BYLAYER
100
AcDbLine
 10
119.5115057222525223
 20
-2.0
 30
0.0
 11
122.1095819336058526
 21
-0.5
 31
0.0
  0
LINE
  5
EE
100
AcDbEntity
  8
0
 62
256
370
-1
 48
1.0
  6
BYLAYER
100
AcDbLine
 10
121.2435565298214044
 20
-1.9999999999999887
 30
0.0
 11
122.9756073373902865
 21
-1.0
 31
0.0
  0
LINE
  5
EF
100
AcDbEntity
  8
0
 62
256
370
-1
 48
1.0
  6
BYLAYER
100
AcDbLine
 10
-0.0
 20
0.0
 30
0.0
 11
51.9615242270663202
 21
30.0000000000000036
 31
0.0
  0
LINE
  5
F0
100
AcDbEntity
  8
0
 62
256
370
-1
 48
1.0
  6
BYLAYER
100
AcDbLine
 10
2.5980762113533156
 20
11.5000000000000018
 30
0.0
 11
51.9615242270663131
 21
40.0
 31
0.0
  0
ARC
  5
F1
100
AcDbEntity
  8
0
 62
256
370
-1
 48
1.0
  6
BYLAYER
100
AcDbCircle
 10
0.0309294787067807
 20
72.9464285714282994
 30
0.0
 40
63.1579955188506048
100
AcDbArc
 50
274.6910350636686644
 51
325.3089649363312788
  0
ARC
  5
F2
100
AcDbEntity
  8
0
 62
256
370
-1
 48
1.0
  6
BYLAYER
100
AcDbCircle
 10
5.3900959153731627
 20
7.4004076912855581
 30
0.0
 40
2.0116846174288847
100
AcDbArc
 50
36.1783906951826921
 51
203.821609304817315
  0
ARC
  5
F3
100
AcDbEntity
  8
0
 62
256
370
-1
 48
1.0
  6
BYLAYER
100
AcDbCircle
 10
266.0637424544900682
 20
-141.099592308714449
 30
0.0
 40
2.0116846174288847
100
AcDbArc
 50
36.1783906951826921
 51
203.821609304817315
  0
ARC
  5
F4
100
AcDbEntity
  8
0
 62
256
370
-1
 48
1.0
  6
BYLAYER
100
AcDbCircle
 10
282.5182251263944408
 20
-149.599592308714449
 30
0.0
 40
2.0116846174288847
100
AcDbArc
 50
36.1783906951826921
 51
203.821609304817315
  0
ARC
  5
F5
100
AcDbEntity
  8
0
 62
256
370
-1
 48
1.0
  6
BYLAYER
100
AcDbCircle
 10
287.7143775491010729
 20
-129.599592308714449
 30
0.0
 40
2.0116846174288847
100
AcDbArc
 50
36.1783906951826921
 51
203.821609304817315
  0
ARC
  5
F6
100
AcDbEntity
  8
0
 62
256
370
-1
 48
1.0
  6
BYLAYER
100
AcDbCircle
 10
302.4368094134364924
 20
-138.099592308714449
 30
0.0
 40
2.0116846174288847
100
AcDbArc
 50
36.1783906951826921
 51
203.821609304817315
  0
ARC
  5
F7
100
AcDbEntity
  8
0
 62
256
370
-1
 48
1.0
  6
BYLAYER
100
AcDbCircle
 10
53.8875185273017294
 20
36.4004076912855581
 30
0.0
 40
2.0116846174288847
100
AcDbArc
 50
36.1783906951826921
 51
203.821609304817315
  0
ARC
  5
F8
100
AcDbEntity
  8
0
 62
256
370
-1
 48
1.0
  6
BYLAYER
100
AcDbCircle
 10
54.7535439310861634
 20
35.9004076912855581
 30
0.0
 40
2.0116846174288847
100
AcDbArc
 50
36.1783906951826921
 51
203.821609304817315
  0
ARC
  5
F9
100
AcDbEntity
  8
0
 62
256
370
-1
 48
1.0
  6
BYLAYER
100
AcDbCircle
 10
55.6195693348706044
 20
35.4004076912855581
 30
0.0
 40
2.0116846174288847
100
AcDbArc
 50
36.1783906951826921
 51
203.821609304817315
  0
ARC
  5
FA
100
AcDbEntity
  8
0
 62
256
370
-1
 48
1.0
  6
BYLAYER
100
AcDbCircle
 10
56.4855947386550454
 20
34.9004076912855581
 30
0.0
 40
2.0116846174288847
100
AcDbArc
 50
36.1783906951826921
 51
203.821609304817315
  0
ARC
  5
FB
100
AcDbEntity
  8
0
 62
256
370
-1
 48
1.0
  6
BYLAYER
100
AcDbCircle
 10
57.3516201424394794
 20
34.4004076912855581
 30
0.0
 40
2.0116846174288847
100
AcDbArc
 50
36.1783906951826921
 51
203.821609304817315
  0
ARC
  5
FC
100
AcDbEntity
  8
0
 62
256
370
-1
 48
1.0
  6
BYLAYER
100
AcDbCircle
 10
58.2176455462239204
 20
33.9004076912855581
 30
0.0
 40
2.0116846174288847
100
AcDbArc
 50
36.1783906951826921
 51
203.821609304817315
  0
ARC
  5
FD
100
AcDbEntity
  8
0
 62
256
370
-1
 48
1.0
  6
BYLAYER
100
AcDbCircle
 10
59.0836709500083614
 20
33.4004076912855581
 30
0.0
 40
2.0116846174288847
100
AcDbArc
 50
36.1783906951826921
 51
203.821609304817315
  0
ARC
  5
FE
100
AcDbEntity
  8
0
 62
256
370
-1
 48
1.0
  6
BYLAYER
100
AcDbCircle
 10
59.9496963537927954
 20
32.9004076912855581
 30
0.0
 40
2.0116846174288847
100
AcDbArc
 50
36.1783906951826921
 51
203.821609304817315
  0
ARC
  5
FF
100
AcDbEntity
  8
0
 62
256
370
-1
 48
1.0
  6
BYLAYER
100
AcDbCircle
 10
60.8157217575772364
 20
32.4004076912855581
 30
0.0
 40
2.0116846174288847
100
AcDbArc
 50
36.1783906951826921
 51
203.821609304817315
  0
ARC
  5
100
100
AcDbEntity
  8
0
 62
256
370
-1
 48
1.0
  6
BYLAYER
100
AcDbCircle
 10
61.6817471613616775
 20
31.9004076912855581
 30
0.0
 40
2.0116846174288847
100
AcDbArc
 50
36.1783906951826921
 51
203.821609304817315
  0
ARC
  5
101
100
AcDbEntity
  8
0
 62
256
370
-1
 48
1.0
  6
BYLAYER
100
AcDbCircle
 10
62.5477725651461114
 20
31.4004076912855581
 30
0.0
 40
2.0116846174288847
100
AcDbArc
 50
36.1783906951826921
 51
203.821609304817315
  0
ARC
  5
102
100
AcDbEntity
  8
0
 62
256
370
-1
 48
1.0
  6
BYLAYER
100
AcDbCircle
 10
63.4137979689305524
 20
30.9004076912855581
 30
0.0
 40
2.0116846174288847
100
AcDbArc
 50
36.1783906951826921
 51
203.821609304817315
  0
ARC
  5
103
100
AcDbEntity
  8
0
 62
256
370
-1
 48
1.0
  6
BYLAYER
100
AcDbCircle
 10
64.2798233727149864
 20
30.4004076912855581
 30
0.0
 40
2.0116846174288847
100
AcDbArc
 50
36.1783906951826921
 51
203.821609304817315
  0
ARC
  5
104
100
AcDbEntity
  8
0
 62
256
370
-1
 48
1.0
  6
BYLAYER
100
AcDbCircle
 10
65.1458487764994345
 20
29.9004076912855581
 30
0.0
 40
2.0116846174288847
100
AcDbArc
 50
36.1783906951826921
 51
203.821609304817315
  0
ARC
  5
105
100
AcDbEntity
  8
0
 62
256
370
-1
 48
1.0
  6
BYLAYER
100
AcDbCircle
 10
66.0118741802838684
 20
29.4004076912855581
 30
0.0
 40
2.0116846174288847
100
AcDbArc
 50
36.1783906951826921
 51
203.821609304817315
  0
ARC
  5
106
100
AcDbEntity
  8
0
 62
256
370
-1
 48
1.0
  6
BYLAYER
100
AcDbCircle
 10
6.2561213191576019
 20
6.9004076912855581
 30
0.0
 40
2.0116846174288847
100
AcDbArc
 50
36.1783906951826921
 51
203.821609304817315
  0
ARC
  5
107
100
AcDbEntity
  8
0
 62
256
370
-1
 48
1.0
  6
BYLAYER
100
AcDbCircle
 10
266.9297678582744879
 20
-141.599592308714449
 30
0.0
 40
2.0116846174288847
100
AcDbArc
 50
36.1783906951826921
 51
203.821609304817315
  0
ARC
  5
108
100
AcDbEntity
  8
0
 62
256
370
-1
 48
1.0
  6
BYLAYER
100
AcDbCircle
 10
283.3842505301788606
 20
-150.099592308714449
 30
0.0
 40
2.0116846174288847
100
AcDbArc
 50
36.1783906951826921
 51
203.821609304817315
  0
ARC
  5
109
100
AcDbEntity
  8
0
 62
256
370
-1
 48
1.0
  6
BYLAYER
100
AcDbCircle
 10
288.5804029528854926
 20
-130.099592308714449
 30
0.0
 40
2.0116846174288847
100
AcDbArc
 50
36.1783906951826921
 51
203.821609304817315
  0
ARC
  5
10A
100
AcDbEntity
  8
0
 62
256
370
-1
 48
1.0
  6
BYLAYER
100
AcDbCircle
 10
303.3028348172209121
 20
-138.599592308714449
 30
0.0
 40
2.0116846174288847
100
AcDbArc
 50
36.1783906951826921
 51
203.821609304817315
  0
ARC
  5
10B
100
AcDbEntity
  8
0
 62
256
370
-1
 48
1.0
  6
BYLAYER
100
AcDbCircle
 10
7.1221467229420394
 20
6.4004076912855581
 30
0.0
 40
2.0116846174288847
100
AcDbArc
 50
36.1783906951826921
 51
203.821609304817315
  0
ARC
  5
10C
100
AcDbEntity
  8
0
 62
256
370
-1
 48
1.0
  6
BYLAYER
100
AcDbCircle
 10
267.7957932620589645
 20
-142.099592308714449
 30
0.0
 40
2.0116846174288847
100
AcDbArc
 50
36.1783906951826921
 51
203.821609304817315
  0
ARC
  5
10D
100
AcDbEntity
  8
0
 62
256
370
-1
 48
1.0
  6
BYLAYER
100
AcDbCircle
 10
284.2502759339633371
 20
-150.599592308714449
 30
0.0
 40
2.0116846174288847
100
AcDbArc
 50
36.1783906951826921
 51
203.821609304817315
  0
ARC
  5
10E
100
AcDbEntity
  8
0
 62
256
370
-1
 48
1.0
  6
BYLAYER
100
AcDbCircle
 10
289.4464283566699692
 20
-130.599592308714449
 30
0.0
 40
2.0116846174288847
100
AcDbArc
 50
36.1783906951826921
 51
203.821609304817315
  0
ARC
  5
10F
100
AcDbEntity
  8
0
 62
256
370
-1
 48
1.0
  6
BYLAYER
100
AcDbCircle
 10
304.1688602210053887
 20
-139.099592308714449
 30
0.0
 40
2.0116846174288847
100
AcDbArc
 50
36.1783906951826921
 51
203.821609304817315
  0
ARC
  5
110
100
AcDbEntity
  8
0
 62
256
370
-1
 48
1.0
  6
BYLAYER
100
AcDbCircle
 10
7.9881721267264787
 20
5.9004076912855581
 30
0.0
 40
2.0116846174288847
100
AcDbArc
 50
36.1783906951826921
 51
203.821609304817315
  0
ARC
  5
111
100
AcDbEntity
  8
0
 62
256
370
-1
 48
1.0
  6
BYLAYER
100
AcDbCircle
 10
268.6618186658433842
 20
-142.599592308714449
 30
0.0
 40
2.0116846174288847
100
AcDbArc
 50
36.1783906951826921
 51
203.821609304817315
  0
ARC
  5
112
100
AcDbEntity
  8
0
 62
256
370
-1
 48
1.0
  6
BYLAYER
100
AcDbCircle
 10
285.1163013377477569
 20
-151.099592308714449
 30
0.0
 40
2.0116846174288847
100
AcDbArc
 50
36.1783906951826921
 51
203.821609304817315
  0
ARC
  5
113
100
AcDbEntity
  8
0
 62
256
370
-1
 48
1.0
  6
BYLAYER
100
AcDbCircle
 10
290.3124537604543889
 20
-131.099592308714449
 30
0.0
 40
2.0116846174288847
100
AcDbArc
 50
36.1783906951826921
 51
203.821609304817315
  0
ARC
  5
114
100
AcDbEntity
  8
0
 62
256
370
-1
 48
1.0
  6
BYLAYER
100
AcDbCircle
 10
305.0348856247898084
 20
-139.599592308714449
 30
0.0
 40
2.0116846174288847
100
AcDbArc
 50
36.1783906951826921
 51
203.821609304817315
  0
ARC
  5
115
100
AcDbEntity
  8
0
 62
256
370
-1
 48
1.0
  6
BYLAYER
100
AcDbCircle
 10
8.854197530510918
 20
5.4004076912855572
 30
0.0
 40
2.0116846174288847
100
AcDbArc
 50
36.1783906951826921
 51
203.821609304817315
  0
ARC
  5
116
100
AcDbEntity
  8
0
 62
256
370
-1
 48
1.0
  6
BYLAYER
100
AcDbCircle
 10
269.5278440696278039
 20
-143.099592308714449
 30
0.0
 40
2.0116846174288847
100
AcDbArc
 50
36.1783906951826921
 51
203.821609304817315
  0
ARC
  5
117
100
AcDbEntity
  8
0
 62
256
370
-1
 48
1.0
  6
BYLAYER
100
AcDbCircle
 10
285.9823267415321766
 20
-151.599592308714449
 30
0.0
 40
2.0116846174288847
100
AcDbArc
 50
36.1783906951826921
 51
203.821609304817315
  0
ARC
  5
118
100
AcDbEntity
  8
0
 62
256
370
-1
 48
1.0
  6
BYLAYER
100
AcDbCircle
 10
291.1784791642388086
 20
-131.599592308714449
 30
0.0
 40
2.0116846174288847
100
AcDbArc
 50
36.1783906951826921
 51
203.821609304817315
  0
ARC
  5
119
100
AcDbEntity
  8
0
 62
256
370
-1
 48
1.0
  6
BYLAYER
100
AcDbCircle
 10
305.9009110285742281
 20
-140.099592308714449
 30
0.0
 40
2.0116846174288847
100
AcDbArc
 50
36.1783906951826921
 51
203.821609304817315
  0
ARC
  5
11A
100
AcDbEntity
  8
0
 62
256
370
-1
 48
1.0
  6
BYLAYER
100
AcDbCircle
 10
9.720222934295359
 20
4.9004076912855599
 30
0.0
 40
2.0116846174288847
100
AcDbArc
 50
36.1783906951826921
 51
203.821609304817315
  0
ARC
  5
11B
100
AcDbEntity
  8
0
 62
256
370
-1
 48
1.0
  6
BYLAYER
100
AcDbCircle
 10
270.3938694734122805
 20
-143.599592308714449
 30
0.0
 40
2.0116846174288847
100
AcDbArc
 50
36.1783906951826921
 51
203.821609304817315
  0
ARC
  5
11C
100
AcDbEntity
  8
0
 62
256
370
-1
 48
1.0
  6
BYLAYER
100
AcDbCircle
 10
286.8483521453166532
 20
-152.099592308714449
 30
0.0
 40
2.0116846174288847
100
AcDbArc
 50
36.1783906951826921
 51
203.821609304817315
  0
ARC
  5
11D
100
AcDbEntity
  8
0
 62
256
370
-1
 48
1.0
  6
BYLAYER
100
AcDbCircle
 10
292.0445045680232852
 20
-132.099592308714449
 30
0.0
 40
2.0116846174288847
100
AcDbArc
 50
36.1783906951826921
 51
203.821609304817315
  0
ARC
  5
11E
100
AcDbEntity
  8
0
 62
256
370
-1
 48
1.0
  6
BYLAYER
100
AcDbCircle
 10
306.7669364323587047
 20
-140.599592308714449
 30
0.0
 40
2.0116846174288847
100
AcDbArc
 50
36.1783906951826921
 51
203.821609304817315
  0
ARC
  5
11F
100
AcDbEntity
  8
0
 62
256
370
-1
 48
1.0
  6
BYLAYER
100
AcDbCircle
 10
10.5862483380797947
 20
4.4004076912855581
 30
0.0
 40
2.0116846174288847
100
AcDbArc
 50
36.1783906951826921
 51
203.821609304817315
  0
ARC
  5
120
100
AcDbEntity
  8
0
 62
256
370
-1
 48
1.0
  6
BYLAYER
100
AcDbCircle
 10
271.2598948771967002
 20
-144.099592308714449
 30
0.0
 40
2.0116846174288847
100
AcDbArc
 50
36.1783906951826921
 51
203.821609304817315
  0
ARC
  5
121
100
AcDbEntity
  8
0
 62
256
370
-1
 48
1.0
  6
BYLAYER
100
AcDbCircle
 10
287.7143775491010729
 20
-152.599592308714449
 30
0.0
 40
2.0116846174288847
100
AcDbArc
 50
36.1783906951826921
 51
203.821609304817315
  0
ARC
  5
122
100
AcDbEntity
  8
0
 62
256
370
-1
 48
1.0
  6
BYLAYER
100
AcDbCircle
 10
292.9105299718077049
 20
-132.599592308714449
 30
0.0
 40
2.0116846174288847
100
AcDbArc
 50
36.1783906951826921
 51
203.821609304817315
  0
ARC
  5
123
100
AcDbEntity
  8
0
 62
256
370
-1
 48
1.0
  6
BYLAYER
100
AcDbCircle
 10
307.6329618361431244
 20
-141.099592308714449
 30
0.0
 40
2.0116846174288847
100
AcDbArc
 50
36.1783906951826921
 51
203.821609304817315
  0
ARC
  5
124
100
AcDbEntity
  8
0
 62
256
370
-1
 48
1.0
  6
BYLAYER
100
AcDbCircle
 10
11.4522737418642322
 20
3.9004076912855581
 30
0.0
 40
2.0116846174288847
100
AcDbArc
 50
36.1783906951826921
 51
203.821609304817315
  0
ARC
  5
125
100
AcDbEntity
  8
0
 62
256
370
-1
 48
1.0
  6
BYLAYER
100
AcDbCircle
 10
272.12592028098112
 20
-144.599592308714449
 30
0.0
 40
2.0116846174288847
100
AcDbArc
 50
36.1783906951826921
 51
203.821609304817315
  0
ARC
  5
126
100
AcDbEntity
  8
0
 62
256
370
-1
 48
1.0
  6
BYLAYER
100
AcDbCircle
 10
288.5804029528854926
 20
-153.099592308714449
 30
0.0
 40
2.0116846174288847
100
AcDbArc
 50
36.1783906951826921
 51
203.821609304817315
  0
ARC
  5
127
100
AcDbEntity
  8
0
 62
256
370
-1
 48
1.0
  6
BYLAYER
100
AcDbCircle
 10
293.7765553755921246
 20
-133.099592308714449
 30
0.0
 40
2.0116846174288847
100
AcDbArc
 50
36.1783906951826921
 51
203.821609304817315
  0
ARC
  5
128
100
AcDbEntity
  8
0
 62
256
370
-1
 48
1.0
  6
BYLAYER
100
AcDbCircle
 10
308.4989872399275441
 20
-141.599592308714449
 30
0.0
 40
2.0116846174288847
100
AcDbArc
 50
36.1783906951826921
 51
203.821609304817315
  0
ARC
  5
129
100
AcDbEntity
  8
0
 62
256
370
-1
 48
1.0
  6
BYLAYER
100
AcDbCircle
 10
12.3182991456486715
 20
3.4004076912855581
 30
0.0
 40
2.0116846174288847
100
AcDbArc
 50
36.1783906951826921
 51
203.821609304817315
  0
ARC
  5
12A
100
AcDbEntity
  8
0
 62
256
370
-1
 48
1.0
  6
BYLAYER
100
AcDbCircle
 10
272.9919456847655965
 20
-145.099592308714449
 30
0.0
 40
2.0116846174288847
100
AcDbArc
 50
36.1783906951826921
 51
203.821609304817315
  0
ARC
  5
12B
100
AcDbEntity
  8
0
 62
256
370
-1
 48
1.0
  6
BYLAYER
100
AcDbCircle
 10
289.4464283566699692
 20
-153.599592308714449
 30
0.0
 40
2.0116846174288847
100
AcDbArc
 50
36.1783906951826921
 51
203.821609304817315
  0
ARC
  5
12C
100
AcDbEntity
  8
0
 62
256
370
-1
 48
1.0
  6
BYLAYER
100
AcDbCircle
 10
294.6425807793766012
 20
-133.599592308714449
 30
0.0
 40
2.0116846174288847
100
AcDbArc
 50
36.1783906951826921
 51
203.821609304817315
  0
ARC
  5
12D
100
AcDbEntity
  8
0
 62
256
370
-1
 48
1.0
  6
BYLAYER
100
AcDbCircle
 10
309.3650126437120207
 20
-142.099592308714449
 30
0.0
 40
2.0116846174288847
100
AcDbArc
 50
36.1783906951826921
 51
203.821609304817315
  0
ARC
  5
12E
100
AcDbEntity
  8
0
 62
256
370
-1
 48
1.0
  6
BYLAYER
100
AcDbCircle
 10
13.1843245494331089
 20
2.9004076912855581
 30
0.0
 40
2.0116846174288847
100
AcDbArc
 50
36.1783906951826921
 51
203.821609304817315
  0
ARC
  5
12F
100
AcDbEntity
  8
0
 62
256
370
-1
 48
1.0
  6
BYLAYER
100
AcDbCircle
 10
273.8579710885500162
 20
-145.599592308714449
 30
0.0
 40
2.0116846174288847
100
AcDbArc
 50
36.1783906951826921
 51
203.821609304817315
  0
ARC
  5
130
100
AcDbEntity
  8
0
 62
256
370
-1
 48
1.0
  6
BYLAYER
100
AcDbCircle
 10
290.3124537604543889
 20
-154.099592308714449
 30
0.0
 40
2.0116846174288847
100
AcDbArc
 50
36.1783906951826921
 51
203.821609304817315
  0
ARC
  5
131
100
AcDbEntity
  8
0
 62
256
370
-1
 48
1.0
  6
BYLAYER
100
AcDbCircle
 10
295.5086061831610209
 20
-134.099592308714449
 30
0.0
 40
2.0116846174288847
100
AcDbArc
 50
36.1783906951826921
 51
203.821609304817315
  0
ARC
  5
132
100
AcDbEntity
  8
0
 62
256
370
-1
 48
1.0
  6
BYLAYER
100
AcDbCircle
 10
310.2310380474964404
 20
-142.599592308714449
 30
0.0
 40
2.0116846174288847
100
AcDbArc
 50
36.1783906951826921
 51
203.821609304817315
  0
ARC
  5
133
100
AcDbEntity
  8
0
 62
256
370
-1
 48
1.0
  6
BYLAYER
100
AcDbCircle
 10
14.0503499532175482
 20
2.4004076912855581
 30
0.0
 40
2.0116846174288847
100
AcDbArc
 50
36.1783906951826921
 51
203.821609304817315
  0
ARC
  5
134
100
AcDbEntity
  8
0
 62
256
370
-1
 48
1.0
  6
BYLAYER
100
AcDbCircle
 10
274.723996492334436
 20
-146.099592308714449
 30
0.0
 40
2.0116846174288847
100
AcDbArc
 50
36.1783906951826921
 51
203.821609304817315
  0
ARC
  5
135
100
AcDbEntity
  8
0
 62
256
370
-1
 48
1.0
  6
BYLAYER
100
AcDbCircle
 10
291.1784791642388086
 20
-154.599592308714449
 30
0.0
 40
2.0116846174288847
100
AcDbArc
 50
36.1783906951826921
 51
203.821609304817315
  0
ARC
  5
136
100
AcDbEntity
  8
0
 62
256
370
-1
 48
1.0
  6
BYLAYER
100
AcDbCircle
 10
296.3746315869454406
 20
-134.599592308714449
 30
0.0
 40
2.0116846174288847
100
AcDbArc
 50
36.1783906951826921
 51
203.821609304817315
  0
ARC
  5
137
100
AcDbEntity
  8
0
 62
256
370
-1
 48
1.0
  6
BYLAYER
100
AcDbCircle
 10
311.0970634512808601
 20
-143.099592308714449
 30
0.0
 40
2.0116846174288847
100
AcDbArc
 50
36.1783906951826921
 51
203.821609304817315
  0
ARC
  5
138
100
AcDbEntity
  8
0
 62
256
370
-1
 48
1.0
  6
BYLAYER
100
AcDbCircle
 10
14.9163753570019875
 20
1.9004076912855581
 30
0.0
 40
2.0116846174288847
100
AcDbArc
 50
36.1783906951826921
 51
203.821609304817315
  0
ARC
  5
139
100
AcDbEntity
  8
0
 62
256
370
-1
 48
1.0
  6
BYLAYER
100
AcDbCircle
 10
275.5900218961189125
 20
-146.599592308714449
 30
0.0
 40
2.0116846174288847
100
AcDbArc
 50
36.1783906951826921
 51
203.821609304817315
  0
ARC
  5
13A
100
AcDbEntity
  8
0
 62
256
370
-1
 48
1.0
  6
BYLAYER
100
AcDbCircle
 10
292.0445045680232852
 20
-155.099592308714449
 30
0.0
 40
2.0116846174288847
100
AcDbArc
 50
36.1783906951826921
 51
203.821609304817315
  0
ARC
  5
13B
100
AcDbEntity
  8
0
 62
256
370
-1
 48
1.0
  6
BYLAYER
100
AcDbCircle
 10
297.2406569907299172
 20
-135.099592308714449
 30
0.0
 40
2.0116846174288847
100
AcDbArc
 50
36.1783906951826921
 51
203.821609304817315
  0
ARC
  5
13C
100
AcDbEntity
  8
0
 62
256
370
-1
 48
1.0
  6
BYLAYER
100
AcDbCircle
 10
311.9630888550653367
 20
-143.599592308714449
 30
0.0
 40
2.0116846174288847
100
AcDbArc
 50
36.1783906951826921
 51
203.821609304817315
  0
ARC
  5
13D
100
AcDbEntity
  8
0
 62
256
370
-1
 48
1.0
  6
BYLAYER
100
AcDbCircle
 10
15.782400760786425
 20
1.4004076912855581
 30
0.0
 40
2.0116846174288847
100
AcDbArc
 50
36.1783906951826921
 51
203.821609304817315
  0
ARC
  5
13E
100
AcDbEntity
  8
0
 62
256
370
-1
 48
1.0
  6
BYLAYER
100
AcDbCircle
 10
276.4560472999033323
 20
-147.099592308714449
 30
0.0
 40
2.0116846174288847
100
AcDbArc
 50
36.1783906951826921
 51
203.821609304817315
  0
ARC
  5
13F
100
AcDbEntity
  8
0
 62
256
370
-1
 48
1.0
  6
BYLAYER
100
AcDbCircle
 10
292.9105299718077049
 20
-155.599592308714449
 30
0.0
 40
2.0116846174288847
100
AcDbArc
 50
36.1783906951826921
 51
203.821609304817315
  0
ARC
  5
140
100
AcDbEntity
  8
0
 62
256
370
-1
 48
1.0
  6
BYLAYER
100
AcDbCircle
 10
298.1066823945143369
 20
-135.599592308714449
 30
0.0
 40
2.0116846174288847
100
AcDbArc
 50
36.1783906951826921
 51
203.821609304817315
  0
ARC
  5
141
100
AcDbEntity
  8
0
 62
256
370
-1
 48
1.0
  6
BYLAYER
100
AcDbCircle
 10
312.8291142588497564
 20
-144.099592308714449
 30
0.0
 40
2.0116846174288847
100
AcDbArc
 50
36.1783906951826921
 51
203.821609304817315
  0
ARC
  5
142
100
AcDbEntity
  8
0
 62
256
370
-1
 48
1.0
  6
BYLAYER
100
AcDbCircle
 10
15.782400760786425
 20
1.4004076912855581
 30
0.0
 40
2.0116846174288847
100
AcDbArc
 50
36.1783906951826921
 51
203.821609304817315
  0
ARC
  5
143
100
AcDbEntity
  8
0
 62
256
370
-1
 48
1.0
  6
BYLAYER
100
AcDbCircle
 10
276.4560472999033323
 20
-147.099592308714449
 30
0.0
 40
2.0116846174288847
100
AcDbArc
 50
36.1783906951826921
 51
203.821609304817315
  0
ARC
  5
144
100
AcDbEntity
  8
0
 62
256
370
-1
 48
1.0
  6
BYLAYER
100
AcDbCircle
 10
292.9105299718077049
 20
-155.599592308714449
 30
0.0
 40
2.0116846174288847
100
AcDbArc
 50
36.1783906951826921
 51
203.821609304817315
  0
ARC
  5
145
100
AcDbEntity
  8
0
 62
256
370
-1
 48
1.0
  6
BYLAYER
100
AcDbCircle
 10
298.1066823945143369
 20
-135.599592308714449
 30
0.0
 40
2.0116846174288847
100
AcDbArc
 50
36.1783906951826921
 51
203.821609304817315
  0
ARC
  5
146
100
AcDbEntity
  8
0
 62
256
370
-1
 48
1.0
  6
BYLAYER
100
AcDbCircle
 10
312.8291142588497564
 20
-144.099592308714449
 30
0.0
 40
2.0116846174288847
100
AcDbArc
 50
36.1783906951826921
 51
203.821609304817315
  0
ARC
  5
147
100
AcDbEntity
  8
0
 62
256
370
-1
 48
1.0
  6
BYLAYER
100
AcDbCircle
 10
16.6484261645708642
 20
0.9004076912855581
 30
0.0
 40
2.0116846174288847
100
AcDbArc
 50
36.1783906951826921
 51
203.821609304817315
  0
ARC
  5
148
100
AcDbEntity
  8
0
 62
256
370
-1
 48
1.0
  6
BYLAYER
100
AcDbCircle
 10
277.322072703687752
 20
-147.599592308714449
 30
0.0
 40
2.0116846174288847
100
AcDbArc
 50
36.1783906951826921
 51
203.821609304817315
  0
ARC
  5
149
100
AcDbEntity
  8
0
 62
256
370
-1
 48
1.0
  6
BYLAYER
100
AcDbCircle
 10
293.7765553755921246
 20
-156.099592308714449
 30
0.0
 40
2.0116846174288847
100
AcDbArc
 50
36.1783906951826921
 51
203.821609304817315
  0
ARC
  5
14A
100
AcDbEntity
  8
0
 62
256
370
-1
 48
1.0
  6
BYLAYER
100
AcDbCircle
 10
298.9727077982987566
 20
-136.099592308714449
 30
0.0
 40
2.0116846174288847
100
AcDbArc
 50
36.1783906951826921
 51
203.821609304817315
  0
ARC
  5
14B
100
AcDbEntity
  8
0
 62
256
370
-1
 48
1.0
  6
BYLAYER
100
AcDbCircle
 10
313.6951396626341761
 20
-144.599592308714449
 30
0.0
 40
2.0116846174288847
100
AcDbArc
 50
36.1783906951826921
 51
203.821609304817315
  0
ARC
  5
14C
100
AcDbEntity
  8
0
 62
256
370
-1
 48
1.0
  6
BYLAYER
100
AcDbCircle
 10
17.5144515683534969
 20
0.4004076912855599
 30
0.0
 40
2.0116846174288847
100
AcDbArc
 50
36.1783906951826921
 51
203.821609304817315
  0
ARC
  5
14D
100
AcDbEntity
  8
0
 62
256
370
-1
 48
1.0
  6
BYLAYER
100
AcDbCircle
 10
278.1880981074704096
 20
-148.099592308714449
 30
0.0
 40
2.0116846174288847
100
AcDbArc
 50
36.1783906951826921
 51
203.821609304817315
  0
ARC
  5
14E
100
AcDbEntity
  8
0
 62
256
370
-1
 48
1.0
  6
BYLAYER
100
AcDbCircle
 10
294.6425807793747822
 20
-156.599592308714449
 30
0.0
 40
2.0116846174288847
100
AcDbArc
 50
36.1783906951826921
 51
203.821609304817315
  0
ARC
  5
14F
100
AcDbEntity
  8
0
 62
256
370
-1
 48
1.0
  6
BYLAYER
100
AcDbCircle
 10
299.8387332020814142
 20
-136.599592308714449
 30
0.0
 40
2.0116846174288847
100
AcDbArc
 50
36.1783906951826921
 51
203.821609304817315
  0
ARC
  5
150
100
AcDbEntity
  8
0
 62
256
370
-1
 48
1.0
  6
BYLAYER
100
AcDbCircle
 10
314.5611650664168337
 20
-145.099592308714449
 30
0.0
 40
2.0116846174288847
100
AcDbArc
 50
36.1783906951826921
 51
203.821609304817315
  0
ARC
  5
151
100
AcDbEntity
  8
0
 62
256
370
-1
 48
1.0
  6
BYLAYER
100
AcDbCircle
 10
91.1266108900334899
 20
-39.3935461543573098
 30
0.0
 40
2.0116846174288847
100
AcDbArc
 50
36.1783906951826921
 51
203.821609304817315
  0
ARC
  5
152
100
AcDbEntity
  8
0
 62
256
370
-1
 48
1.0
  6
BYLAYER
100
AcDbCircle
 10
91.9926362938179238
 20
-39.8935461543573098
 30
0.0
 40
2.0116846174288847
100
AcDbArc
 50
36.1783906951826921
 51
203.821609304817315
  0
ARC
  5
153
100
AcDbEntity
  8
0
 62
256
370
-1
 48
1.0
  6
BYLAYER
100
AcDbCircle
 10
92.858661697602372
 20
-40.3935461543573098
 30
0.0
 40
2.0116846174288847
100
AcDbArc
 50
36.1783906951826921
 51
203.821609304817315
  0
ARC
  5
154
100
AcDbEntity
  8
0
 62
256
370
-1
 48
1.0
  6
BYLAYER
100
AcDbCircle
 10
93.7246871013868059
 20
-40.8935461543573098
 30
0.0
 40
2.0116846174288847
100
AcDbArc
 50
36.1783906951826921
 51
203.821609304817315
  0
ARC
  5
155
100
AcDbEntity
  8
0
 62
256
370
-1
 48
1.0
  6
BYLAYER
100
AcDbCircle
 10
94.5907125051712399
 20
-41.3935461543573098
 30
0.0
 40
2.0116846174288847
100
AcDbArc
 50
36.1783906951826921
 51
203.821609304817315
  0
ARC
  5
156
100
AcDbEntity
  8
0
 62
256
370
-1
 48
1.0
  6
BYLAYER
100
AcDbCircle
 10
95.456737908955688
 20
-41.8935461543573027
 30
0.0
 40
2.0116846174288847
100
AcDbArc
 50
36.1783906951826921
 51
203.821609304817315
  0
ARC
  5
157
100
AcDbEntity
  8
0
 62
256
370
-1
 48
1.0
  6
BYLAYER
100
AcDbCircle
 10
96.3227633127401219
 20
-42.3935461543573098
 30
0.0
 40
2.0116846174288847
100
AcDbArc
 50
36.1783906951826921
 51
203.821609304817315
  0
ARC
  5
158
100
AcDbEntity
  8
0
 62
256
370
-1
 48
1.0
  6
BYLAYER
100
AcDbCircle
 10
97.1887887165245559
 20
-42.8935461543573098
 30
0.0
 40
2.0116846174288847
100
AcDbArc
 50
36.1783906951826921
 51
203.821609304817315
  0
ARC
  5
159
100
AcDbEntity
  8
0
 62
256
370
-1
 48
1.0
  6
BYLAYER
100
AcDbCircle
 10
98.054814120309004
 20
-43.3935461543573098
 30
0.0
 40
2.0116846174288847
100
AcDbArc
 50
36.1783906951826921
 51
203.821609304817315
  0
ARC
  5
15A
100
AcDbEntity
  8
0
 62
256
370
-1
 48
1.0
  6
BYLAYER
100
AcDbCircle
 10
98.9208395240934379
 20
-43.8935461543573098
 30
0.0
 40
2.0116846174288847
100
AcDbArc
 50
36.1783906951826921
 51
203.821609304817315
  0
ARC
  5
15B
100
AcDbEntity
  8
0
 62
256
370
-1
 48
1.0
  6
BYLAYER
100
AcDbCircle
 10
99.7868649278778719
 20
-44.3935461543573098
 30
0.0
 40
2.0116846174288847
100
AcDbArc
 50
36.1783906951826921
 51
203.821609304817315
  0
ARC
  5
15C
100
AcDbEntity
  8
0
 62
256
370
-1
 48
1.0
  6
BYLAYER
100
AcDbCircle
 10
100.65289033166232
 20
-44.8935461543573098
 30
0.0
 40
2.0116846174288847
100
AcDbArc
 50
36.1783906951826921
 51
203.821609304817315
  0
ARC
  5
15D
100
AcDbEntity
  8
0
 62
256
370
-1
 48
1.0
  6
BYLAYER
100
AcDbCircle
 10
101.518915735446754
 20
-45.3935461543573098
 30
0.0
 40
2.0116846174288847
100
AcDbArc
 50
36.1783906951826921
 51
203.821609304817315
  0
ARC
  5
15E
100
AcDbEntity
  8
0
 62
256
370
-1
 48
1.0
  6
BYLAYER
100
AcDbCircle
 10
101.518915735446754
 20
-45.3935461543573098
 30
0.0
 40
2.0116846174288847
100
AcDbArc
 50
36.1783906951826921
 51
203.821609304817315
  0
ARC
  5
15F
100
AcDbEntity
  8
0
 62
256
370
-1
 48
1.0
  6
BYLAYER
100
AcDbCircle
 10
102.3849411392311879
 20
-45.8935461543573098
 30
0.0
 40
2.0116846174288847
100
AcDbArc
 50
36.1783906951826921
 51
203.821609304817315
  0
ARC
  5
160
100
AcDbEntity
  8
0
 62
256
370
-1
 48
1.0
  6
BYLAYER
100
AcDbCircle
 10
103.250966543013817
 20
-46.3935461543573027
 30
0.0
 40
2.0116846174288847
100
AcDbArc
 50
36.1783906951826921
 51
203.821609304817315
  0
ARC
  5
161
100
AcDbEntity
  8
0
 62
256
370
-1
 48
1.0
  6
BYLAYER
100
AcDbCircle
 10
137.0259572906087442
 20
-12.8935461543573062
 30
0.0
 40
2.0116846174288847
100
AcDbArc
 50
36.1783906951826921
 51
203.821609304817315
  0
ARC
  5
162
100
AcDbEntity
  8
0
 62
256
370
-1
 48
1.0
  6
BYLAYER
100
AcDbCircle
 10
137.8919826943931923
 20
-13.3935461543573062
 30
0.0
 40
2.0116846174288847
100
AcDbArc
 50
36.1783906951826921
 51
203.821609304817315
  0
ARC
  5
163
100
AcDbEntity
  8
0
 62
256
370
-1
 48
1.0
  6
BYLAYER
100
AcDbCircle
 10
138.7580080981776121
 20
-13.8935461543573062
 30
0.0
 40
2.0116846174288847
100
AcDbArc
 50
36.1783906951826921
 51
203.821609304817315
  0
ARC
  5
164
100
AcDbEntity
  8
0
 62
256
370
-1
 48
1.0
  6
BYLAYER
100
AcDbCircle
 10
139.6240335019620602
 20
-14.3935461543573062
 30
0.0
 40
2.0116846174288847
100
AcDbArc
 50
36.1783906951826921
 51
203.821609304817315
  0
ARC
  5
165
100
AcDbEntity
  8
0
 62
256
370
-1
 48
1.0
  6
BYLAYER
100
AcDbCircle
 10
140.4900589057465083
 20
-14.893546154357308
 30
0.0
 40
2.0116846174288847
100
AcDbArc
 50
36.1783906951826921
 51
203.821609304817315
  0
ARC
  5
166
100
AcDbEntity
  8
0
 62
256
370
-1
 48
1.0
  6
BYLAYER
100
AcDbCircle
 10
141.3560843095309281
 20
-15.3935461543573062
 30
0.0
 40
2.0116846174288847
100
AcDbArc
 50
36.1783906951826921
 51
203.821609304817315
  0
ARC
  5
167
100
AcDbEntity
  8
0
 62
256
370
-1
 48
1.0
  6
BYLAYER
100
AcDbCircle
 10
142.2221097133153762
 20
-15.8935461543573062
 30
0.0
 40
2.0116846174288847
100
AcDbArc
 50
36.1783906951826921
 51
203.821609304817315
  0
ARC
  5
168
100
AcDbEntity
  8
0
 62
256
370
-1
 48
1.0
  6
BYLAYER
100
AcDbCircle
 10
143.0881351170998244
 20
-16.3935461543573062
 30
0.0
 40
2.0116846174288847
100
AcDbArc
 50
36.1783906951826921
 51
203.821609304817315
  0
ARC
  5
169
100
AcDbEntity
  8
0
 62
256
370
-1
 48
1.0
  6
BYLAYER
100
AcDbCircle
 10
143.9541605208842441
 20
-16.8935461543573062
 30
0.0
 40
2.0116846174288847
100
AcDbArc
 50
36.1783906951826921
 51
203.821609304817315
  0
ARC
  5
16A
100
AcDbEntity
  8
0
 62
256
370
-1
 48
1.0
  6
BYLAYER
100
AcDbCircle
 10
144.8201859246686922
 20
-17.3935461543573062
 30
0.0
 40
2.0116846174288847
100
AcDbArc
 50
36.1783906951826921
 51
203.821609304817315
  0
ARC
  5
16B
100
AcDbEntity
  8
0
 62
256
370
-1
 48
1.0
  6
BYLAYER
100
AcDbCircle
 10
145.6862113284531404
 20
-17.8935461543573062
 30
0.0
 40
2.0116846174288847
100
AcDbArc
 50
36.1783906951826921
 51
203.821609304817315
  0
ARC
  5
16C
100
AcDbEntity
  8
0
 62
256
370
-1
 48
1.0
  6
BYLAYER
100
AcDbCircle
 10
146.5522367322375601
 20
-18.3935461543573062
 30
0.0
 40
2.0116846174288847
100
AcDbArc
 50
36.1783906951826921
 51
203.821609304817315
  0
ARC
  5
16D
100
AcDbEntity
  8
0
 62
256
370
-1
 48
1.0
  6
BYLAYER
100
AcDbCircle
 10
147.4182621360220082
 20
-18.8935461543573062
 30
0.0
 40
2.0116846174288847
100
AcDbArc
 50
36.1783906951826921
 51
203.821609304817315
  0
ARC
  5
16E
100
AcDbEntity
  8
0
 62
256
370
-1
 48
1.0
  6
BYLAYER
100
AcDbCircle
 10
147.4182621360220082
 20
-18.8935461543573062
 30
0.0
 40
2.0116846174288847
100
AcDbArc
 50
36.1783906951826921
 51
203.821609304817315
  0
ARC
  5
16F
100
AcDbEntity
  8
0
 62
256
370
-1
 48
1.0
  6
BYLAYER
100
AcDbCircle
 10
148.2842875398064564
 20
-19.3935461543573062
 30
0.0
 40
2.0116846174288847
100
AcDbArc
 50
36.1783906951826921
 51
203.821609304817315
  0
ARC
  5
170
100
AcDbEntity
  8
0
 62
256
370
-1
 48
1.0
  6
BYLAYER
100
AcDbCircle
 10
149.1503129435890855
 20
-19.8935461543573062
 30
0.0
 40
2.0116846174288847
100
AcDbArc
 50
36.1783906951826921
 51
203.821609304817315
  0
ARC
  5
171
100
AcDbEntity
  8
0
 62
256
370
-1
 48
1.0
  6
BYLAYER
100
AcDbCircle
 10
129.0155793842967853
 20
107.461538461537998
 30
0.0
 40
157.5753850459722969
100
AcDbArc
 50
218.2072171518730386
 51
261.7927828481268762
  0
ARC
  5
172
100
AcDbEntity
  8
0
 62
256
370
-1
 48
1.0
  6
BYLAYER
100
AcDbCircle
 10
174.8519862496000883
 20
133.6537789845112627
 30
0.0
 40
155.5421541500164722
100
AcDbArc
 50
218.0666275335164528
 51
261.0628699032519648
  0
ARC
  5
173
100
AcDbEntity
  8
0
 62
256
370
-1
 48
1.0
  6
BYLAYER
100
AcDbCircle
 10
108.4552480672703041
 20
-0.8499999999976159
 30
0.0
 40
46.3720102360633533
100
AcDbArc
 50
264.3912047151231945
 51
335.6087952848768055
  0
LINE
  5
174
100
AcDbEntity
  8
0
 62
256
370
-1
 48
1.0
  6
BYLAYER
100
AcDbLine
 10
5.1961524227063416
 20
10.000000000000167
 30
0.0
 11
51.9615242270663202
 21
37.0000000000000142
 31
0.0
  0
LINE
  5
175
100
AcDbEntity
  8
0
 62
256
370
-1
 48
1.0
  6
BYLAYER
100
AcDbLine
 10
5.1961524227063487
 20
10.0000000000001705
 30
0.0
 11
5.1961524227066311
 21
0.0
 31
0.0
  0
LINE
  5
176
100
AcDbEntity
  8
0
 62
256
370
-1
 48
1.0
  6
BYLAYER
100
AcDbLine
 10
90.9326673973666715
 20
-36.7939538456426973
 30
0.0
 11
90.9326673973669557
 21
-46.7939538456428679
 31
0.0
  0
LINE
  5
177
100
AcDbEntity
  8
0
 62
256
370
-1
 48
1.0
  6
BYLAYER
100
AcDbLine
 10
136.8320137979419258
 20
-10.2939538456426938
 30
0.0
 11
136.83201379794221
 21
-20.2939538456428643
 31
0.0
  0
LINE
  5
178
100
AcDbEntity
  8
0
 62
256
370
-1
 48
1.0
  6
BYLAYER
100
AcDbLine
 10
51.9615242270663131
 20
26.9999999999999964
 30
0.0
 11
150.6884202584923287
 21
-30.0
 31
0.0
  0
LINE
  5
179
100
AcDbEntity
  8
0
 62
256
370
-1
 48
1.0
  6
BYLAYER
100
AcDbLine
 10
5.196152422706632
 20
-0.0000000000000005
 30
0.0
 11
51.9615242270663131
 21
26.9999999999999964
 31
0.0
  0
LINE
  5
17A
100
AcDbEntity
  8
0
 62
256
370
-1
 48
1.0
  6
BYLAYER
100
AcDbLine
 10
51.9615242270663131
 20
36.9812871585252623
 30
0.0
 11
51.9615242270663131
 21
26.9999999999999964
 31
0.0
  0
LINE
  5
17B
100
AcDbEntity
  8
0
 62
256
370
-1
 48
1.0
  6
BYLAYER
100
AcDbLine
 10
103.9230484541326263
 20
-47.0
 30
0.0
 11
150.6884202584923287
 21
-20.0
 31
0.0
  0
LINE
  5
17C
100
AcDbEntity
  8
0
 62
256
370
-1
 48
1.0
  6
BYLAYER
100
AcDbLine
 10
103.9230484541326121
 20
-57.0
 30
0.0
 11
150.6884202584923287
 21
-30.0
 31
0.0
  0
LINE
  5
17D
100
AcDbEntity
  8
0
 62
256
370
-1
 48
1.0
  6
BYLAYER
100
AcDbLine
 10
150.6884202584930676
 20
-20.0000000000004192
 30
0.0
 11
150.6884202584923287
 21
-30.0
 31
0.0
  0
LINE
  5
17E
100
AcDbEntity
  8
0
 62
256
370
-1
 48
1.0
  6
BYLAYER
100
AcDbLine
 10
103.9230484541326263
 20
-47.0000000000000071
 30
0.0
 11
103.9230484541326121
 21
-57.0
 31
0.0
  0
ARC
  5
17F
100
AcDbEntity
  8
0
 62
256
370
-1
 48
1.0
  6
BYLAYER
100
AcDbCircle
 10
9.9592921435210435
 20
13.0
 30
0.0
 40
2.3848480035423645
100
AcDbArc
 50
335.2087191028551274
 51
123.0044915988830923
  0
ARC
  5
180
100
AcDbEntity
  8
0
 62
256
370
-1
 48
1.0
  6
BYLAYER
100
AcDbCircle
 10
43.5899453238167496
 20
32.5
 30
0.0
 40
2.5166114784235782
100
AcDbArc
 50
336.5867755536294226
 51
96.5867755536295931
  0
LINE
  5
181
100
AcDbEntity
  8
0
 62
256
370
-1
 48
1.0
  6
BYLAYER
100
AcDbLine
 10
12.1243556529821408
 20
12.0
 30
0.0
 11
45.8993464005752472
 21
31.5
 31
0.0
  0
ARC
  5
182
100
AcDbEntity
  8
0
 62
256
370
-1
 48
1.0
  6
BYLAYER
100
AcDbCircle
 10
40.992518851662453
 20
1.9746061165428295
 30
0.0
 40
36.6849669006356081
100
AcDbArc
 50
72.6021214999792051
 51
167.3634827740052629
  0
ARC
  5
183
100
AcDbEntity
  8
0
 62
256
370
-1
 48
1.0
  6
BYLAYER
100
AcDbCircle
 10
38.071410724942055
 20
7.1838312362449388
 30
0.0
 40
32.8758822321490385
100
AcDbArc
 50
65.0073737408521168
 51
180.352994153934759
  0
LINE
  5
184
100
AcDbEntity
  8
0
 62
256
370
-1
 48
1.0
  6
BYLAYER
100
AcDbLine
 10
19.9185842870420871
 20
8.5
 30
0.0
 11
118.6454803184680884
 21
-48.5
 31
0.0
  0
LINE
  5
185
100
AcDbEntity
  8
0
 62
256
370
-1
 48
1.0
  6
BYLAYER
100
AcDbLine
 10
45.8993464005752472
 20
23.5
 30
0.0
 11
144.6262424320012485
 21
-33.5
 31
0.0
  0
LINE
  5
186
100
AcDbEntity
  8
0
 62
256
370
-1
 48
1.0
  6
BYLAYER
100
AcDbLine
 10
23.3826859021798406
 20
10.5
 30
0.0
 11
122.1095819336058383
 21
-46.5
 31
0.0
  0
LINE
  5
187
100
AcDbEntity
  8
0
 62
256
370
-1
 48
1.0
  6
BYLAYER
100
AcDbLine
 10
42.4352447854374901
 20
21.5
 30
0.0
 11
141.1621408168634844
 21
-35.5
 31
0.0
  0
LINE
  5
188
100
AcDbEntity
  8
0
 62
256
370
-1
 48
1.0
  6
BYLAYER
100
AcDbLine
 10
104.7748642771892946
 20
-60.70427486696844
 30
0.0
 11
104.7890738579170744
 21
-89.5
 31
0.0
  0
LINE
  5
189
100
AcDbEntity
  8
0
 62
256
370
-1
 48
1.0
  6
BYLAYER
100
AcDbLine
 10
155.0043376966867186
 20
-31.3356758803069724
 30
0.0
 11
155.0185472774145126
 21
-60.1314010133385324
 31
0.0
  0
LINE
  5
18A
100
AcDbEntity
  8
0
 62
256
370
-1
 48
1.0
  6
BYLAYER
100
AcDbLine
 10
103.0428134696204268
 20
-60.70427486696844
 30
0.0
 11
103.0428134696204268
 21
-88.7042748669684329
 31
0.0
  0
LINE
  5
18B
100
AcDbEntity
  8
0
 62
256
370
-1
 48
1.0
  6
BYLAYER
100
AcDbLine
 10
153.2722868891178791
 20
-31.3356758803069724
 30
0.0
 11
153.2722868891178791
 21
-59.3356758803069653
 31
0.0
  0
ELLIPSE
  5
18C
100
AcDbEntity
  8
0
 62
256
370
-1
 48
1.0
  6
BYLAYER
100
AcDbEllipse
 10
103.9230530101558259
 20
-60.7542802354511338
 30
0.0
 11
0.8660254037844339
 21
0.0
 31
0.0
 40
0.3200114019855587
 41
0.0
 42
6.2831853071795862
  0
ELLIPSE
  5
18D
100
AcDbEntity
  8
0
 62
256
370
-1
 48
1.0
  6
BYLAYER
100
AcDbEllipse
 10
103.9230480675613961
 20
-60.654278121345726
 30
0.0
 11
0.8660254037844339
 21
0.0
 31
0.0
 40
0.3200114019855587
 41
0.0
 42
6.2831853071795862
  0
ELLIPSE
  5
18E
100
AcDbEntity
  8
0
 62
256
370
-1
 48
1.0
  6
BYLAYER
100
AcDbEllipse
 10
103.9230480675613961
 20
-60.5542781213457317
 30
0.0
 11
0.8660254037844339
 21
0.0
 31
0.0
 40
0.3200114019855587
 41
0.0
 42
6.2831853071795862
  0
ELLIPSE
  5
18F
100
AcDbEntity
  8
0
 62
256
370
-1
 48
1.0
  6
BYLAYER
100
AcDbEllipse
 10
103.9230480675613961
 20
-60.4771401177255683
 30
0.0
 11
0.8660254037844339
 21
0.0
 31
0.0
 40
0.3200114019855587
 41
0.0
 42
6.2831853071795862
  0
ELLIPSE
  5
190
100
AcDbEntity
  8
0
 62
256
370
-1
 48
1.0
  6
BYLAYER
100
AcDbEllipse
 10
103.9230482572107093
 20
-60.3771380036201606
 30
0.0
 11
0.8660254037844339
 21
0.0
 31
0.0
 40
0.3200114019855587
 41
0.0
 42
6.2831853071795862
  0
ELLIPSE
  5
191
100
AcDbEntity
  8
0
 62
256
370
-1
 48
1.0
  6
BYLAYER
100
AcDbEllipse
 10
103.9230484541326263
 20
-60.2771380036201663
 30
0.0
 11
0.8660254037844339
 21
0.0
 31
0.0
 40
0.3200114019855587
 41
0.0
 42
6.2831853071795862
  0
ELLIPSE
  5
192
100
AcDbEntity
  8
0
 62
256
370
-1
 48
1.0
  6
BYLAYER
100
AcDbEllipse
 10
103.9230486104910653
 20
-60.2000000000000028
 30
0.0
 11
0.8660254037844339
 21
0.0
 31
0.0
 40
0.3200114019855587
 41
0.0
 42
6.2831853071795862
  0
ELLIPSE
  5
193
100
AcDbEntity
  8
0
 62
256
370
-1
 48
1.0
  6
BYLAYER
100
AcDbEllipse
 10
103.9230488136958854
 20
-60.0999978858945951
 30
0.0
 11
0.8660254037844339
 21
0.0
 31
0.0
 40
0.3200114019855587
 41
0.0
 42
6.2831853071795862
  0
ELLIPSE
  5
194
100
AcDbEntity
  8
0
 62
256
370
-1
 48
1.0
  6
BYLAYER
100
AcDbEllipse
 10
103.9230490171373162
 20
-59.9999978858946008
 30
0.0
 11
0.8660254037844339
 21
0.0
 31
0.0
 40
0.3200114019855587
 41
0.0
 42
6.2831853071795862
  0
ELLIPSE
  5
195
100
AcDbEntity
  8
0
 62
256
370
-1
 48
1.0
  6
BYLAYER
100
AcDbEllipse
 10
103.9230491740847668
 20
-59.9228598822744374
 30
0.0
 11
0.8660254037844339
 21
0.0
 31
0.0
 40
0.3200114019855587
 41
0.0
 42
6.2831853071795862
  0
ELLIPSE
  5
196
100
AcDbEntity
  8
0
 62
256
370
-1
 48
1.0
  6
BYLAYER
100
AcDbEllipse
 10
103.9230493775623501
 20
-59.8228577681690297
 30
0.0
 11
0.8660254037844339
 21
0.0
 31
0.0
 40
0.3200114019855587
 41
0.0
 42
6.2831853071795862
  0
ELLIPSE
  5
197
100
AcDbEntity
  8
0
 62
256
370
-1
 48
1.0
  6
BYLAYER
100
AcDbEllipse
 10
103.9230495810368495
 20
-59.7228577681690354
 30
0.0
 11
0.8660254037844339
 21
0.0
 31
0.0
 40
0.3200114019855587
 41
0.0
 42
6.2831853071795862
  0
ELLIPSE
  5
198
100
AcDbEntity
  8
0
 62
256
370
-1
 48
1.0
  6
BYLAYER
100
AcDbEllipse
 10
103.9230497379932672
 20
-59.6457197645488719
 30
0.0
 11
0.8660254037844339
 21
0.0
 31
0.0
 40
0.3200114019855587
 41
0.0
 42
6.2831853071795862
  0
ELLIPSE
  5
199
100
AcDbEntity
  8
0
 62
256
370
-1
 48
1.0
  6
BYLAYER
100
AcDbEllipse
 10
103.9230499414724562
 20
-59.5457176504434642
 30
0.0
 11
0.8660254037844339
 21
0.0
 31
0.0
 40
0.3200114019855587
 41
0.0
 42
6.2831853071795862
  0
ELLIPSE
  5
19A
100
AcDbEntity
  8
0
 62
256
370
-1
 48
1.0
  6
BYLAYER
100
AcDbEllipse
 10
103.9230501449473536
 20
-59.4457176504434699
 30
0.0
 11
0.8660254037844339
 21
0.0
 31
0.0
 40
0.3200114019855587
 41
0.0
 42
6.2831853071795862
  0
ELLIPSE
  5
19B
100
AcDbEntity
  8
0
 62
256
370
-1
 48
1.0
  6
BYLAYER
100
AcDbEllipse
 10
103.9230503019038281
 20
-59.3685796468233065
 30
0.0
 11
0.8660254037844339
 21
0.0
 31
0.0
 40
0.3200114019855587
 41
0.0
 42
6.2831853071795862
  0
ELLIPSE
  5
19C
100
AcDbEntity
  8
0
 62
256
370
-1
 48
1.0
  6
BYLAYER
100
AcDbEllipse
 10
154.1525264296532782
 20
-31.3856812487896661
 30
0.0
 11
0.8660254037844339
 21
0.0
 31
0.0
 40
0.3200114019855587
 41
0.0
 42
6.2831853071795862
  0
ELLIPSE
  5
19D
100
AcDbEntity
  8
0
 62
256
370
-1
 48
1.0
  6
BYLAYER
100
AcDbEllipse
 10
154.1525214870588343
 20
-31.2856791346842584
 30
0.0
 11
0.8660254037844339
 21
0.0
 31
0.0
 40
0.3200114019855587
 41
0.0
 42
6.2831853071795862
  0
ELLIPSE
  5
19E
100
AcDbEntity
  8
0
 62
256
370
-1
 48
1.0
  6
BYLAYER
100
AcDbEllipse
 10
154.1525214870588343
 20
-31.1856791346842641
 30
0.0
 11
0.8660254037844339
 21
0.0
 31
0.0
 40
0.3200114019855587
 41
0.0
 42
6.2831853071795862
  0
ELLIPSE
  5
19F
100
AcDbEntity
  8
0
 62
256
370
-1
 48
1.0
  6
BYLAYER
100
AcDbEllipse
 10
154.1525214870588343
 20
-31.1085411310641007
 30
0.0
 11
0.8660254037844339
 21
0.0
 31
0.0
 40
0.3200114019855587
 41
0.0
 42
6.2831853071795862
  0
ELLIPSE
  5
1A0
100
AcDbEntity
  8
0
 62
256
370
-1
 48
1.0
  6
BYLAYER
100
AcDbEllipse
 10
154.1525216767081474
 20
-31.008539016958693
 30
0.0
 11
0.8660254037844339
 21
0.0
 31
0.0
 40
0.3200114019855587
 41
0.0
 42
6.2831853071795862
  0
ELLIPSE
  5
1A1
100
AcDbEntity
  8
0
 62
256
370
-1
 48
1.0
  6
BYLAYER
100
AcDbEllipse
 10
154.1525218736300644
 20
-30.9085390169586987
 30
0.0
 11
0.8660254037844339
 21
0.0
 31
0.0
 40
0.3200114019855587
 41
0.0
 42
6.2831853071795862
  0
ELLIPSE
  5
1A2
100
AcDbEntity
  8
0
 62
256
370
-1
 48
1.0
  6
BYLAYER
100
AcDbEllipse
 10
154.1525220299885177
 20
-30.8314010133385352
 30
0.0
 11
0.8660254037844339
 21
0.0
 31
0.0
 40
0.3200114019855587
 41
0.0
 42
6.2831853071795862
  0
ELLIPSE
  5
1A3
100
AcDbEntity
  8
0
 62
256
370
-1
 48
1.0
  6
BYLAYER
100
AcDbEllipse
 10
154.1525222331933378
 20
-30.7313988992331275
 30
0.0
 11
0.8660254037844339
 21
0.0
 31
0.0
 40
0.3200114019855587
 41
0.0
 42
6.2831853071795862
  0
ELLIPSE
  5
1A4
100
AcDbEntity
  8
0
 62
256
370
-1
 48
1.0
  6
BYLAYER
100
AcDbEllipse
 10
154.1525224366347402
 20
-30.6313988992331332
 30
0.0
 11
0.8660254037844339
 21
0.0
 31
0.0
 40
0.3200114019855587
 41
0.0
 42
6.2831853071795862
  0
ELLIPSE
  5
1A5
100
AcDbEntity
  8
0
 62
256
370
-1
 48
1.0
  6
BYLAYER
100
AcDbEllipse
 10
154.152522593582205
 20
-30.5542608956129698
 30
0.0
 11
0.8660254037844339
 21
0.0
 31
0.0
 40
0.3200114019855587
 41
0.0
 42
6.2831853071795862
  0
ELLIPSE
  5
1A6
100
AcDbEntity
  8
0
 62
256
370
-1
 48
1.0
  6
BYLAYER
100
AcDbEllipse
 10
154.1525227970597882
 20
-30.454258781507562
 30
0.0
 11
0.8660254037844339
 21
0.0
 31
0.0
 40
0.3200114019855587
 41
0.0
 42
6.2831853071795862
  0
ELLIPSE
  5
1A7
100
AcDbEntity
  8
0
 62
256
370
-1
 48
1.0
  6
BYLAYER
100
AcDbEllipse
 10
154.1525230005343019
 20
-30.3542587815075677
 30
0.0
 11
0.8660254037844339
 21
0.0
 31
0.0
 40
0.3200114019855587
 41
0.0
 42
6.2831853071795862
  0
ELLIPSE
  5
1A8
100
AcDbEntity
  8
0
 62
256
370
-1
 48
1.0
  6
BYLAYER
100
AcDbEllipse
 10
154.1525231574906911
 20
-30.2771207778874043
 30
0.0
 11
0.8660254037844339
 21
0.0
 31
0.0
 40
0.3200114019855587
 41
0.0
 42
6.2831853071795862
  0
ELLIPSE
  5
1A9
100
AcDbEntity
  8
0
 62
256
370
-1
 48
1.0
  6
BYLAYER
100
AcDbEllipse
 10
154.1525233609698944
 20
-30.1771186637819966
 30
0.0
 11
0.8660254037844339
 21
0.0
 31
0.0
 40
0.3200114019855587
 41
0.0
 42
6.2831853071795862
  0
ELLIPSE
  5
1AA
100
AcDbEntity
  8
0
 62
256
370
-1
 48
1.0
  6
BYLAYER
100
AcDbEllipse
 10
154.1525235644447775
 20
-30.0771186637820023
 30
0.0
 11
0.8660254037844339
 21
0.0
 31
0.0
 40
0.3200114019855587
 41
0.0
 42
6.2831853071795862
  0
ELLIPSE
  5
1AB
100
AcDbEntity
  8
0
 62
256
370
-1
 48
1.0
  6
BYLAYER
100
AcDbEllipse
 10
154.1525237214012805
 20
-29.9999806601618388
 30
0.0
 11
0.8660254037844339
 21
0.0
 31
0.0
 40
0.3200114019855587
 41
0.0
 42
6.2831853071795862
  0
CIRCLE
  5
1AC
100
AcDbEntity
  8
0
 62
256
370
-1
 48
1.0
  6
BYLAYER
100
AcDbCircle
 10
154.1525218736300644
 20
-59.6314010133385324
 30
0.0
 40
1.0
  0
ELLIPSE
  5
1AD
100
AcDbEntity
  8
0
 62
256
370
-1
 48
1.0
  6
BYLAYER
100
AcDbEllipse
 10
103.9230484541326263
 20
-89.0
 30
0.0
 11
0.9172627377688082
 21
-0.3982826507656179
 31
0.0
 40
0.9160482025832523
 41
0.0
 42
6.2831853071795862
  0
ELLIPSE
  5
1AE
100
AcDbEntity
  8
0
 62
256
370
-1
 48
1.0
  6
BYLAYER
100
AcDbEllipse
 10
103.9230484541326263
 20
-89.0
 30
0.0
 11
3.4641016151377642
 21
-2.0
 31
0.0
 40
0.7645395678160493
 41
0.0
 42
6.2831853071795862
  0
ELLIPSE
  5
1AF
100
AcDbEntity
  8
0
 62
256
370
-1
 48
1.0
  6
BYLAYER
100
AcDbEllipse
 10
154.1525218736300644
 20
-60.0
 30
0.0
 11
3.4641016151377642
 21
-2.0
 31
0.0
 40
0.8062860547890097
 41
0.0
 42
6.2831853071795862
  0
LINE
  5
1B0
100
AcDbEntity
  8
0
 62
256
370
-1
 48
1.0
  6
BYLAYER
100
AcDbLine
 10
259.8076211353315443
 20
-150.0
 30
0.0
 11
259.8076211353316012
 21
-140.0
 31
0.0
  0
LINE
  5
1B1
100
AcDbEntity
  8
0
 62
256
370
-1
 48
1.0
  6
BYLAYER
100
AcDbLine
 10
259.8076211353316012
 20
-140.0
 30
0.0
 11
294.4486372867091291
 21
-160.0
 31
0.0
  0
LINE
  5
1B2
100
AcDbEntity
  8
0
 62
256
370
-1
 48
1.0
  6
BYLAYER
100
AcDbLine
 10
294.4486372867091291
 20
-160.0
 30
0.0
 11
320.4293994002422892
 21
-145.0
 31
0.0
  0
LINE
  5
1B3
100
AcDbEntity
  8
0
 62
256
370
-1
 48
1.0
  6
BYLAYER
100
AcDbLine
 10
320.4293994002422892
 20
-145.0
 30
0.0
 11
285.7883832488647613
 21
-125.0
 31
0.0
  0
LINE
  5
1B4
100
AcDbEntity
  8
0
 62
256
370
-1
 48
1.0
  6
BYLAYER
100
AcDbLine
 10
285.7883832488647613
 20
-125.0
 30
0.0
 11
259.8076211353316012
 21
-140.0000000000000284
 31
0.0
  0
LINE
  5
1B5
100
AcDbEntity
  8
0
 62
256
370
-1
 48
1.0
  6
BYLAYER
100
AcDbLine
 10
259.8076211353315443
 20
-150.0
 30
0.0
 11
294.4486372867091291
 21
-170.0
 31
0.0
  0
LINE
  5
1B6
100
AcDbEntity
  8
0
 62
256
370
-1
 48
1.0
  6
BYLAYER
100
AcDbLine
 10
294.4486372867091291
 20
-170.0
 30
0.0
 11
320.4293994002422892
 21
-155.0
 31
0.0
  0
LINE
  5
1B7
100
AcDbEntity
  8
0
 62
256
370
-1
 48
1.0
  6
BYLAYER
100
AcDbLine
 10
320.4293994002422892
 20
-155.0
 30
0.0
 11
285.7883832488647045
 21
-135.0
 31
0.0
  0
LINE
  5
1B8
100
AcDbEntity
  8
0
 62
256
370
-1
 48
1.0
  6
BYLAYER
100
AcDbLine
 10
285.7883832488647045
 20
-135.0
 30
0.0
 11
259.8076211353316012
 21
-150.0
 31
0.0
  0
LINE
  5
1B9
100
AcDbEntity
  8
0
 62
256
370
-1
 48
1.0
  6
BYLAYER
100
AcDbLine
 10
285.7883832488647613
 20
-124.9999999999999716
 30
0.0
 11
285.7883832488646476
 21
-134.9999999999999716
 31
0.0
  0
LINE
  5
1BA
100
AcDbEntity
  8
0
 62
256
370
-1
 48
1.0
  6
BYLAYER
100
AcDbLine
 10
320.4293994002422323
 20
-145.0
 30
0.0
 11
320.4293994002422892
 21
-155.0
 31
0.0
  0
LINE
  5
1BB
100
AcDbEntity
  8
0
 62
256
370
-1
 48
1.0
  6
BYLAYER
100
AcDbLine
 10
294.4486372867090722
 20
-160.0
 30
0.0
 11
294.4486372867091291
 21
-169.9999999999999716
 31
0.0
  0
LINE
  5
1BC
100
AcDbEntity
  8
0
 62
256
370
-1
 48
1.0
  6
BYLAYER
100
AcDbLine
 10
259.8076211353315443
 20
-149.9999999999999716
 30
0.0
 11
261.5396719429004406
 21
-141.0
 31
0.0
  0
LINE
  5
1BD
100
AcDbEntity
  8
0
 62
256
370
-1
 48
1.0
  6
BYLAYER
100
AcDbLine
 10
261.5396719429004406
 20
-141.0
 30
0.0
 11
262.4056973466849172
 21
-151.5
 31
0.0
  0
LINE
  5
1BE
100
AcDbEntity
  8
0
 62
256
370
-1
 48
1.0
  6
BYLAYER
100
AcDbLine
 10
262.4056973466849172
 20
-151.5
 30
0.0
 11
265.8697989618226529
 21
-143.5
 31
0.0
  0
LINE
  5
1BF
100
AcDbEntity
  8
0
 62
256
370
-1
 48
1.0
  6
BYLAYER
100
AcDbLine
 10
265.8697989618226529
 20
-143.5
 30
0.0
 11
265.0037735580382332
 21
-153.0
 31
0.0
  0
LINE
  5
1C0
100
AcDbEntity
  8
0
 62
256
370
-1
 48
1.0
  6
BYLAYER
100
AcDbLine
 10
265.0037735580382332
 20
-153.0
 30
0.0
 11
269.3339005769604455
 21
-145.5
 31
0.0
  0
LINE
  5
1C1
100
AcDbEntity
  8
0
 62
256
370
-1
 48
1.0
  6
BYLAYER
100
AcDbLine
 10
269.3339005769604455
 20
-145.5
 30
0.0
 11
268.4678751731759689
 21
-155.0
 31
0.0
  0
LINE
  5
1C2
100
AcDbEntity
  8
0
 62
256
370
-1
 48
1.0
  6
BYLAYER
100
AcDbLine
 10
268.4678751731759689
 20
-154.9999999999999716
 30
0.0
 11
274.5300529996670207
 21
-148.5
 31
0.0
  0
LINE
  5
1C3
100
AcDbEntity
  8
0
 62
256
370
-1
 48
1.0
  6
BYLAYER
100
AcDbLine
 10
274.5300529996670207
 20
-148.5
 30
0.0
 11
271.9319767883137047
 21
-157.0
 31
0.0
  0
LINE
  5
1C4
100
AcDbEntity
  8
0
 62
256
370
-1
 48
1.0
  6
BYLAYER
100
AcDbLine
 10
271.9319767883137047
 20
-157.0
 30
0.0
 11
277.9941546148047564
 21
-150.5
 31
0.0
  0
LINE
  5
1C5
100
AcDbEntity
  8
0
 62
256
370
-1
 48
1.0
  6
BYLAYER
100
AcDbLine
 10
277.9941546148048133
 20
-150.5
 30
0.0
 11
274.5300529996670207
 21
-158.5
 31
0.0
  0
LINE
  5
1C6
100
AcDbEntity
  8
0
 62
256
370
-1
 48
1.0
  6
BYLAYER
100
AcDbLine
 10
274.5300529996670207
 20
-158.5
 30
0.0
 11
280.5922308261581293
 21
-152.0
 31
0.0
  0
LINE
  5
1C7
100
AcDbEntity
  8
0
 62
256
370
-1
 48
1.0
  6
BYLAYER
100
AcDbLine
 10
280.5922308261581293
 20
-152.0
 30
0.0
 11
277.1281292110203367
 21
-160.0
 31
0.0
  0
LINE
  5
1C8
100
AcDbEntity
  8
0
 62
256
370
-1
 48
1.0
  6
BYLAYER
100
AcDbLine
 10
277.1281292110203367
 20
-160.0
 30
0.0
 11
284.056332441295865
 21
-154.0
 31
0.0
  0
LINE
  5
1C9
100
AcDbEntity
  8
0
 62
256
370
-1
 48
1.0
  6
BYLAYER
100
AcDbLine
 10
284.056332441295865
 20
-154.0
 30
0.0
 11
279.7262054223736527
 21
-161.5
 31
0.0
  0
LINE
  5
1CA
100
AcDbEntity
  8
0
 62
256
370
-1
 48
1.0
  6
BYLAYER
100
AcDbLine
 10
279.7262054223736527
 20
-161.5
 30
0.0
 11
286.654408652649181
 21
-155.5
 31
0.0
  0
LINE
  5
1CB
100
AcDbEntity
  8
0
 62
256
370
-1
 48
1.0
  6
BYLAYER
100
AcDbLine
 10
286.654408652649181
 20
-155.5
 30
0.0
 11
282.3242816337269687
 21
-163.0
 31
0.0
  0
LINE
  5
1CC
100
AcDbEntity
  8
0
 62
256
370
-1
 48
1.0
  6
BYLAYER
100
AcDbLine
 10
282.3242816337269687
 20
-163.0
 30
0.0
 11
289.252484864002497
 21
-157.0
 31
0.0
  0
LINE
  5
1CD
100
AcDbEntity
  8
0
 62
256
370
-1
 48
1.0
  6
BYLAYER
100
AcDbLine
 10
289.252484864002497
 20
-157.0
 30
0.0
 11
285.7883832488647613
 21
-165.0
 31
0.0
  0
LINE
  5
1CE
100
AcDbEntity
  8
0
 62
256
370
-1
 48
1.0
  6
BYLAYER
100
AcDbLine
 10
285.7883832488647613
 20
-165.0
 30
0.0
 11
290.9845356715713933
 21
-158.0
 31
0.0
  0
LINE
  5
1CF
100
AcDbEntity
  8
0
 62
256
370
-1
 48
1.0
  6
BYLAYER
100
AcDbLine
 10
290.9845356715713933
 20
-158.0
 30
0.0
 11
288.3864594602180773
 21
-166.5
 31
0.0
  0
LINE
  5
1D0
100
AcDbEntity
  8
0
 62
256
370
-1
 48
1.0
  6
BYLAYER
100
AcDbLine
 10
288.3864594602180773
 20
-166.5
 30
0.0
 11
292.7165864791402328
 21
-159.0
 31
0.0
  0
LINE
  5
1D1
100
AcDbEntity
  8
0
 62
256
370
-1
 48
1.0
  6
BYLAYER
100
AcDbLine
 10
292.7165864791402328
 20
-159.0
 30
0.0
 11
290.9845356715713933
 21
-168.0
 31
0.0
  0
LINE
  5
1D2
100
AcDbEntity
  8
0
 62
256
370
-1
 48
1.0
  6
BYLAYER
100
AcDbLine
 10
290.9845356715713933
 20
-168.0
 30
0.0
 11
294.4486372867091291
 21
-159.9999999999999716
 31
0.0
  0
CIRCLE
  5
1D3
100
AcDbEntity
  8
0
 62
256
370
-1
 48
1.0
  6
BYLAYER
100
AcDbCircle
 10
259.8076211353316012
 20
-149.9999999999998863
 30
0.0
 40
0.3605551275463997
  0
CIRCLE
  5
1D4
100
AcDbEntity
  8
0
 62
256
370
-1
 48
1.0
  6
BYLAYER
100
AcDbCircle
 10
262.4056973466849172
 20
-151.5000000000000568
 30
0.0
 40
0.3605551275463997
  0
CIRCLE
  5
1D5
100
AcDbEntity
  8
0
 62
256
370
-1
 48
1.0
  6
BYLAYER
100
AcDbCircle
 10
261.5396719429004975
 20
-141.0000000000000284
 30
0.0
 40
0.3605551275463997
  0
CIRCLE
  5
1D6
100
AcDbEntity
  8
0
 62
256
370
-1
 48
1.0
  6
BYLAYER
100
AcDbCircle
 10
265.8697989618226529
 20
-143.4999999999999432
 30
0.0
 40
0.3605551275463997
  0
CIRCLE
  5
1D7
100
AcDbEntity
  8
0
 62
256
370
-1
 48
1.0
  6
BYLAYER
100
AcDbCircle
 10
269.3339005769603887
 20
-145.5000000000000284
 30
0.0
 40
0.3605551275463997
  0
CIRCLE
  5
1D8
100
AcDbEntity
  8
0
 62
256
370
-1
 48
1.0
  6
BYLAYER
100
AcDbCircle
 10
268.4678751731759121
 20
-154.9999999999999716
 30
0.0
 40
0.3605551275463997
  0
CIRCLE
  5
1D9
100
AcDbEntity
  8
0
 62
256
370
-1
 48
1.0
  6
BYLAYER
100
AcDbCircle
 10
274.5300529996670775
 20
-148.5
 30
0.0
 40
0.3605551275463997
  0
CIRCLE
  5
1DA
100
AcDbEntity
  8
0
 62
256
370
-1
 48
1.0
  6
BYLAYER
100
AcDbCircle
 10
271.9319767883137047
 20
-156.9999999999999432
 30
0.0
 40
0.3605551275463997
  0
CIRCLE
  5
1DB
100
AcDbEntity
  8
0
 62
256
370
-1
 48
1.0
  6
BYLAYER
100
AcDbCircle
 10
277.9941546148047564
 20
-150.5
 30
0.0
 40
0.3605551275463997
  0
CIRCLE
  5
1DC
100
AcDbEntity
  8
0
 62
256
370
-1
 48
1.0
  6
BYLAYER
100
AcDbCircle
 10
274.5300529996670207
 20
-158.4999999999999147
 30
0.0
 40
0.3605551275463997
  0
CIRCLE
  5
1DD
100
AcDbEntity
  8
0
 62
256
370
-1
 48
1.0
  6
BYLAYER
100
AcDbCircle
 10
280.5922308261581861
 20
-151.9999999999999147
 30
0.0
 40
0.3605551275463997
  0
CIRCLE
  5
1DE
100
AcDbEntity
  8
0
 62
256
370
-1
 48
1.0
  6
BYLAYER
100
AcDbCircle
 10
277.1281292110203935
 20
-160.0
 30
0.0
 40
0.3605551275463997
  0
CIRCLE
  5
1DF
100
AcDbEntity
  8
0
 62
256
370
-1
 48
1.0
  6
BYLAYER
100
AcDbCircle
 10
284.0563324412958082
 20
-154.0
 30
0.0
 40
0.3605551275463997
  0
CIRCLE
  5
1E0
100
AcDbEntity
  8
0
 62
256
370
-1
 48
1.0
  6
BYLAYER
100
AcDbCircle
 10
279.7262054223737096
 20
-161.5
 30
0.0
 40
0.3605551275463997
  0
CIRCLE
  5
1E1
100
AcDbEntity
  8
0
 62
256
370
-1
 48
1.0
  6
BYLAYER
100
AcDbCircle
 10
286.6544086526491242
 20
-155.5
 30
0.0
 40
0.3605551275463997
  0
CIRCLE
  5
1E2
100
AcDbEntity
  8
0
 62
256
370
-1
 48
1.0
  6
BYLAYER
100
AcDbCircle
 10
282.3242816337269687
 20
-162.9999999999999716
 30
0.0
 40
0.3605551275463997
  0
CIRCLE
  5
1E3
100
AcDbEntity
  8
0
 62
256
370
-1
 48
1.0
  6
BYLAYER
100
AcDbCircle
 10
289.2524848640026107
 20
-157.0
 30
0.0
 40
0.3605551275463997
  0
CIRCLE
  5
1E4
100
AcDbEntity
  8
0
 62
256
370
-1
 48
1.0
  6
BYLAYER
100
AcDbCircle
 10
285.7883832488647613
 20
-165.0000000000000853
 30
0.0
 40
0.3605551275463997
  0
CIRCLE
  5
1E5
100
AcDbEntity
  8
0
 62
256
370
-1
 48
1.0
  6
BYLAYER
100
AcDbCircle
 10
290.9845356715713365
 20
-158.0
 30
0.0
 40
0.3605551275463997
  0
CIRCLE
  5
1E6
100
AcDbEntity
  8
0
 62
256
370
-1
 48
1.0
  6
BYLAYER
100
AcDbCircle
 10
288.3864594602180773
 20
-166.4999999999998295
 30
0.0
 40
0.3605551275463997
  0
CIRCLE
  5
1E7
100
AcDbEntity
  8
0
 62
256
370
-1
 48
1.0
  6
BYLAYER
100
AcDbCircle
 10
292.7165864791401759
 20
-159.0
 30
0.0
 40
0.3605551275463997
  0
CIRCLE
  5
1E8
100
AcDbEntity
  8
0
 62
256
370
-1
 48
1.0
  6
BYLAYER
100
AcDbCircle
 10
290.9845356715713933
 20
-167.9999999999999432
 30
0.0
 40
0.3605551275463997
  0
CIRCLE
  5
1E9
100
AcDbEntity
  8
0
 62
256
370
-1
 48
1.0
  6
BYLAYER
100
AcDbCircle
 10
294.4486372867090722
 20
-160.0000000000000284
 30
0.0
 40
0.3605551275463997
  0
CIRCLE
  5
1EA
100
AcDbEntity
  8
0
 62
256
370
-1
 48
1.0
  6
BYLAYER
100
AcDbCircle
 10
285.7883832488645908
 20
-135.0
 30
0.0
 40
0.3605551275463997
  0
CIRCLE
  5
1EB
100
AcDbEntity
  8
0
 62
256
370
-1
 48
1.0
  6
BYLAYER
100
AcDbCircle
 10
289.6238469326073641
 20
-127.371162631526758
 30
0.0
 40
0.3605551275463997
  0
CIRCLE
  5
1EC
100
AcDbEntity
  8
0
 62
256
370
-1
 48
1.0
  6
BYLAYER
100
AcDbCircle
 10
293.5826118829245956
 20
-129.5000000000001421
 30
0.0
 40
0.3605551275463997
  0
CIRCLE
  5
1ED
100
AcDbEntity
  8
0
 62
256
370
-1
 48
1.0
  6
BYLAYER
100
AcDbCircle
 10
289.2524848640024402
 20
-137.0
 30
0.0
 40
0.3605551275463997
  0
CIRCLE
  5
1EE
100
AcDbEntity
  8
0
 62
256
370
-1
 48
1.0
  6
BYLAYER
100
AcDbCircle
 10
291.850561075355813
 20
-138.4999999999999716
 30
0.0
 40
0.3605551275463997
  0
CIRCLE
  5
1EF
100
AcDbEntity
  8
0
 62
256
370
-1
 48
1.0
  6
BYLAYER
100
AcDbCircle
 10
297.0467134980624451
 20
-131.5
 30
0.0
 40
0.3605551275463997
  0
CIRCLE
  5
1F0
100
AcDbEntity
  8
0
 62
256
370
-1
 48
1.0
  6
BYLAYER
100
AcDbCircle
 10
294.4486372867091859
 20
-140.0000000000000284
 30
0.0
 40
0.3605551275463997
  0
CIRCLE
  5
1F1
100
AcDbEntity
  8
0
 62
256
370
-1
 48
1.0
  6
BYLAYER
100
AcDbCircle
 10
300.5108151132002376
 20
-133.5
 30
0.0
 40
0.3605551275463997
  0
CIRCLE
  5
1F2
100
AcDbEntity
  8
0
 62
256
370
-1
 48
1.0
  6
BYLAYER
100
AcDbCircle
 10
297.0467134980624451
 20
-141.5000000000000284
 30
0.0
 40
0.3605551275463997
  0
CIRCLE
  5
1F3
100
AcDbEntity
  8
0
 62
256
370
-1
 48
1.0
  6
BYLAYER
100
AcDbCircle
 10
303.1088913245535537
 20
-135.0000000000000284
 30
0.0
 40
0.3605551275463997
  0
CIRCLE
  5
1F4
100
AcDbEntity
  8
0
 62
256
370
-1
 48
1.0
  6
BYLAYER
100
AcDbCircle
 10
299.6447897094157611
 20
-143.0000000000000284
 30
0.0
 40
0.3605551275463997
  0
CIRCLE
  5
1F5
100
AcDbEntity
  8
0
 62
256
370
-1
 48
1.0
  6
BYLAYER
100
AcDbCircle
 10
306.5729929396912326
 20
-136.9999999999999716
 30
0.0
 40
0.3605551275463997
  0
CIRCLE
  5
1F6
100
AcDbEntity
  8
0
 62
256
370
-1
 48
1.0
  6
BYLAYER
100
AcDbCircle
 10
303.1088913245534968
 20
-145.0
 30
0.0
 40
0.3605551275463997
  0
CIRCLE
  5
1F7
100
AcDbEntity
  8
0
 62
256
370
-1
 48
1.0
  6
BYLAYER
100
AcDbCircle
 10
310.0370945548289114
 20
-139.0000000000000853
 30
0.0
 40
0.3605551275463997
  0
CIRCLE
  5
1F8
100
AcDbEntity
  8
0
 62
256
370
-1
 48
1.0
  6
BYLAYER
100
AcDbCircle
 10
306.1560777975733458
 20
-146.603380949313987
 30
0.0
 40
0.3605551275463997
  0
CIRCLE
  5
1F9
100
AcDbEntity
  8
0
 62
256
370
-1
 48
1.0
  6
BYLAYER
100
AcDbCircle
 10
312.6351707661823411
 20
-140.5
 30
0.0
 40
0.3605551275463997
  0
CIRCLE
  5
1FA
100
AcDbEntity
  8
0
 62
256
370
-1
 48
1.0
  6
BYLAYER
100
AcDbCircle
 10
309.1710691510445486
 20
-148.5
 30
0.0
 40
0.3605551275463997
  0
CIRCLE
  5
1FB
100
AcDbEntity
  8
0
 62
256
370
-1
 48
1.0
  6
BYLAYER
100
AcDbCircle
 10
316.0992723813200769
 20
-142.5
 30
0.0
 40
0.3605551275463997
  0
CIRCLE
  5
1FC
100
AcDbEntity
  8
0
 62
256
370
-1
 48
1.0
  6
BYLAYER
100
AcDbCircle
 10
312.6351707661822843
 20
-150.4999999999999716
 30
0.0
 40
0.3605551275463997
  0
CIRCLE
  5
1FD
100
AcDbEntity
  8
0
 62
256
370
-1
 48
1.0
  6
BYLAYER
100
AcDbCircle
 10
318.6973485926733929
 20
-144.0
 30
0.0
 40
0.3605551275463997
  0
CIRCLE
  5
1FE
100
AcDbEntity
  8
0
 62
256
370
-1
 48
1.0
  6
BYLAYER
100
AcDbCircle
 10
316.0992723813200769
 20
-152.4999999999999432
 30
0.0
 40
0.3605551275463997
  0
CIRCLE
  5
1FF
100
AcDbEntity
  8
0
 62
256
370
-1
 48
1.0
  6
BYLAYER
100
AcDbCircle
 10
320.4293994002422323
 20
-145.0000000000000284
 30
0.0
 40
0.3605551275463997
  0
ELLIPSE
  5
200
100
AcDbEntity
  8
0
 62
256
370
-1
 48
1.0
  6
BYLAYER
100
AcDbEllipse
 10
263.2717227504693369
 20
-150.0
 30
0.0
 11
1.7320508075688963
 21
1.0
 31
0.0
 40
0.8660254037844268
 41
0.0
 42
6.2831853071795862
  0
ELLIPSE
  5
201
100
AcDbEntity
  8
0
 62
256
370
-1
 48
1.0
  6
BYLAYER
100
AcDbEllipse
 10
286.6266947153636124
 20
-136.5763717071453698
 30
0.0
 11
1.7320508075688963
 21
1.0
 31
0.0
 40
0.8660254037844268
 41
0.0
 42
6.2831853071795862
  0
CIRCLE
  5
202
100
AcDbEntity
  8
0
 62
256
370
-1
 48
1.0
  6
BYLAYER
100
AcDbCircle
 10
263.2717227504693369
 20
-150.0
 30
0.0
 40
0.9999999999999836
  0
CIRCLE
  5
203
100
AcDbEntity
  8
0
 62
256
370
-1
 48
1.0
  6
BYLAYER
100
AcDbCircle
 10
286.6266947153636124
 20
-136.5763717071453698
 30
0.0
 40
0.9999999999999836
  0
LINE
  5
204
100
AcDbEntity
  8
0
 62
256
370
-1
 48
1.0
  6
BYLAYER
100
AcDbLine
 10
265.2226590996540949
 20
-150.5989010989011092
 30
0.0
 11
293.5826118829247093
 21
-167.5
 31
0.0
  0
LINE
  5
205
100
AcDbEntity
  8
0
 62
256
370
-1
 48
1.0
  6
BYLAYER
100
AcDbLine
 10
288.5776310645483704
 20
-137.175272806046479
 30
0.0
 11
316.9375838478189849
 21
-154.0763717071453698
 31
0.0
  0
LINE
  5
206
100
AcDbEntity
  8
0
 62
256
370
-1
 48
1.0
  6
BYLAYER
100
AcDbLine
 10
264.1377481542537566
 20
-151.5
 30
0.0
 11
292.7165864791402328
 21
-168.0
 31
0.0
  0
LINE
  5
207
100
AcDbEntity
  8
0
 62
256
370
-1
 48
1.0
  6
BYLAYER
100
AcDbLine
 10
287.4927201191480322
 20
-138.0763717071453698
 30
0.0
 11
316.0715584440345083
 21
-154.5763717071453698
 31
0.0
  0
LINE
  5
208
100
AcDbEntity
  8
0
 62
256
370
-1
 48
1.0
  6
BYLAYER
100
AcDbLine
 10
285.7883832488646476
 20
-134.9999999999999716
 30
0.0
 11
289.623846932607421
 21
-127.3711626315268148
 31
0.0
  0
LINE
  5
209
100
AcDbEntity
  8
0
 62
256
370
-1
 48
1.0
  6
BYLAYER
100
AcDbLine
 10
289.623846932607421
 20
-127.3711626315268148
 30
0.0
 11
289.252484864002497
 21
-137.0
 31
0.0
  0
LINE
  5
20A
100
AcDbEntity
  8
0
 62
256
370
-1
 48
1.0
  6
BYLAYER
100
AcDbLine
 10
289.252484864002497
 20
-137.0
 30
0.0
 11
293.5826118829247093
 21
-129.5
 31
0.0
  0
LINE
  5
20B
100
AcDbEntity
  8
0
 62
256
370
-1
 48
1.0
  6
BYLAYER
100
AcDbLine
 10
293.5826118829247093
 20
-129.5
 30
0.0
 11
291.850561075355813
 21
-138.5
 31
0.0
  0
LINE
  5
20C
100
AcDbEntity
  8
0
 62
256
370
-1
 48
1.0
  6
BYLAYER
100
AcDbLine
 10
291.850561075355813
 20
-138.5
 30
0.0
 11
297.0467134980624451
 21
-131.5
 31
0.0
  0
LINE
  5
20D
100
AcDbEntity
  8
0
 62
256
370
-1
 48
1.0
  6
BYLAYER
100
AcDbLine
 10
297.0467134980624451
 20
-131.5
 30
0.0
 11
294.4486372867091291
 21
-140.0
 31
0.0
  0
LINE
  5
20E
100
AcDbEntity
  8
0
 62
256
370
-1
 48
1.0
  6
BYLAYER
100
AcDbLine
 10
294.4486372867091291
 20
-140.0
 30
0.0
 11
300.5108151132001808
 21
-133.5
 31
0.0
  0
LINE
  5
20F
100
AcDbEntity
  8
0
 62
256
370
-1
 48
1.0
  6
BYLAYER
100
AcDbLine
 10
300.5108151132001808
 20
-133.5
 30
0.0
 11
297.0467134980624451
 21
-141.5
 31
0.0
  0
LINE
  5
210
100
AcDbEntity
  8
0
 62
256
370
-1
 48
1.0
  6
BYLAYER
100
AcDbLine
 10
297.0467134980624451
 20
-141.5
 30
0.0
 11
303.1088913245534968
 21
-135.0
 31
0.0
  0
LINE
  5
211
100
AcDbEntity
  8
0
 62
256
370
-1
 48
1.0
  6
BYLAYER
100
AcDbLine
 10
303.1088913245534968
 20
-135.0
 30
0.0
 11
299.6447897094157611
 21
-143.0
 31
0.0
  0
LINE
  5
212
100
AcDbEntity
  8
0
 62
256
370
-1
 48
1.0
  6
BYLAYER
100
AcDbLine
 10
299.6447897094157611
 20
-143.0
 30
0.0
 11
306.5729929396912894
 21
-137.0
 31
0.0
  0
LINE
  5
213
100
AcDbEntity
  8
0
 62
256
370
-1
 48
1.0
  6
BYLAYER
100
AcDbLine
 10
306.5729929396912894
 20
-137.0
 30
0.0
 11
303.1088913245534968
 21
-145.0
 31
0.0
  0
LINE
  5
214
100
AcDbEntity
  8
0
 62
256
370
-1
 48
1.0
  6
BYLAYER
100
AcDbLine
 10
303.1088913245534968
 20
-145.0
 30
0.0
 11
310.0370945548290251
 21
-139.0
 31
0.0
  0
LINE
  5
215
100
AcDbEntity
  8
0
 62
256
370
-1
 48
1.0
  6
BYLAYER
100
AcDbLine
 10
310.0370945548290251
 20
-139.0
 30
0.0
 11
306.1560777975734027
 21
-146.6033809493139302
 31
0.0
  0
LINE
  5
216
100
AcDbEntity
  8
0
 62
256
370
-1
 48
1.0
  6
BYLAYER
100
AcDbLine
 10
306.1560777975734027
 20
-146.6033809493139302
 30
0.0
 11
312.6351707661823411
 21
-140.5
 31
0.0
  0
LINE
  5
217
100
AcDbEntity
  8
0
 62
256
370
-1
 48
1.0
  6
BYLAYER
100
AcDbLine
 10
312.6351707661823411
 20
-140.5
 30
0.0
 11
309.1710691510446054
 21
-148.5
 31
0.0
  0
LINE
  5
218
100
AcDbEntity
  8
0
 62
256
370
-1
 48
1.0
  6
BYLAYER
100
AcDbLine
 10
309.1710691510446054
 20
-148.5
 30
0.0
 11
316.0992723813200769
 21
-142.5
 31
0.0
  0
LINE
  5
219
100
AcDbEntity
  8
0
 62
256
370
-1
 48
1.0
  6
BYLAYER
100
AcDbLine
 10
316.0992723813200769
 20
-142.5
 30
0.0
 11
312.6351707661823411
 21
-150.5
 31
0.0
  0
LINE
  5
21A
100
AcDbEntity
  8
0
 62
256
370
-1
 48
1.0
  6
BYLAYER
100
AcDbLine
 10
312.6351707661823411
 20
-150.5
 30
0.0
 11
318.6973485926733929
 21
-144.0
 31
0.0
  0
LINE
  5
21B
100
AcDbEntity
  8
0
 62
256
370
-1
 48
1.0
  6
BYLAYER
100
AcDbLine
 10
318.6973485926733929
 20
-144.0
 30
0.0
 11
316.0992723813200769
 21
-152.5
 31
0.0
  0
LINE
  5
21C
100
AcDbEntity
  8
0
 62
256
370
-1
 48
1.0
  6
BYLAYER
100
AcDbLine
 10
316.0992723813200769
 20
-152.5
 30
0.0
 11
320.4293994002422323
 21
-145.0
 31
0.0
  0
LINE
  5
21D
100
AcDbEntity
  8
0
 62
256
370
-1
 48
1.0
  6
BYLAYER
100
AcDbLine
 10
265.0037735580382332
 20
-140.0
 30
0.0
 11
294.4486372867091291
 21
-157.0
 31
0.0
  0
LINE
  5
21E
100
AcDbEntity
  8
0
 62
256
370
-1
 48
1.0
  6
BYLAYER
100
AcDbLine
 10
294.4486372867091291
 20
-157.0
 30
0.0
 11
315.2332469775356572
 21
-145.0
 31
0.0
  0
LINE
  5
21F
100
AcDbEntity
  8
0
 62
256
370
-1
 48
1.0
  6
BYLAYER
100
AcDbLine
 10
315.2332469775356572
 20
-145.0
 30
0.0
 11
285.7883832488647613
 21
-128.0
 31
0.0
  0
LINE
  5
220
100
AcDbEntity
  8
0
 62
256
370
-1
 48
1.0
  6
BYLAYER
100
AcDbLine
 10
285.7883832488647613
 20
-128.0
 30
0.0
 11
265.0037735580382332
 21
-140.0
 31
0.0
  0
LINE
  5
221
100
AcDbEntity
  8
0
 62
256
370
-1
 48
1.0
  6
BYLAYER
100
AcDbLine
 10
265.0037735580382332
 20
-140.0
 30
0.0
 11
265.0037735580382332
 21
-150.0
 31
0.0
  0
LINE
  5
222
100
AcDbEntity
  8
0
 62
256
370
-1
 48
1.0
  6
BYLAYER
100
AcDbLine
 10
265.0037735580382332
 20
-150.0
 30
0.0
 11
294.4486372867091291
 21
-167.0
 31
0.0
  0
LINE
  5
223
100
AcDbEntity
  8
0
 62
256
370
-1
 48
1.0
  6
BYLAYER
100
AcDbLine
 10
294.4486372867091291
 20
-167.0
 30
0.0
 11
315.2332469775356572
 21
-155.0
 31
0.0
  0
LINE
  5
224
100
AcDbEntity
  8
0
 62
256
370
-1
 48
1.0
  6
BYLAYER
100
AcDbLine
 10
315.2332469775356572
 20
-155.0
 30
0.0
 11
285.7883832488647613
 21
-138.0
 31
0.0
  0
LINE
  5
225
100
AcDbEntity
  8
0
 62
256
370
-1
 48
1.0
  6
BYLAYER
100
AcDbLine
 10
285.7883832488647613
 20
-138.0
 30
0.0
 11
265.0037735580381764
 21
-150.0
 31
0.0
  0
ELLIPSE
  5
226
100
AcDbEntity
  8
0
 62
256
370
-1
 48
1.0
  6
BYLAYER
100
AcDbEllipse
 10
293.1495991810324426
 20
-167.75
 30
0.0
 11
-0.4330127018922099
 21
-0.25
 31
0.0
 40
0.1334528869308344
 41
0.0
 42
6.2831853071795862
  0
ELLIPSE
  5
227
100
AcDbEntity
  8
0
 62
256
370
-1
 48
1.0
  6
BYLAYER
100
AcDbEllipse
 10
293.2362026193453062
 20
-167.799995835756107
 30
0.0
 11
-0.4330127018922099
 21
-0.25
 31
0.0
 40
0.1334528869308344
 41
0.0
 42
6.2831853071795862
  0
ELLIPSE
  5
228
100
AcDbEntity
  8
0
 62
256
370
-1
 48
1.0
  6
BYLAYER
100
AcDbEllipse
 10
293.322805159723714
 20
-167.8499958357561184
 30
0.0
 11
-0.4330127018922099
 21
-0.25
 31
0.0
 40
0.1334528869308344
 41
0.0
 42
6.2831853071795862
  0
ELLIPSE
  5
229
100
AcDbEntity
  8
0
 62
256
370
-1
 48
1.0
  6
BYLAYER
100
AcDbEllipse
 10
293.4094077001021788
 20
-167.8999958357561013
 30
0.0
 11
-0.4330127018922099
 21
-0.25
 31
0.0
 40
0.1334528869308344
 41
0.0
 42
6.2831853071795862
  0
ELLIPSE
  5
22A
100
AcDbEntity
  8
0
 62
256
370
-1
 48
1.0
  6
BYLAYER
100
AcDbEllipse
 10
293.4960102404805866
 20
-167.9499958357561127
 30
0.0
 11
-0.4330127018922099
 21
-0.25
 31
0.0
 40
0.1334528869308344
 41
0.0
 42
6.2831853071795862
  0
ELLIPSE
  5
22B
100
AcDbEntity
  8
0
 62
256
370
-1
 48
1.0
  6
BYLAYER
100
AcDbEllipse
 10
293.5826127808590513
 20
-167.9999958357561241
 30
0.0
 11
-0.4330127018922099
 21
-0.25
 31
0.0
 40
0.1334528869308344
 41
0.0
 42
6.2831853071795862
  0
ELLIPSE
  5
22C
100
AcDbEntity
  8
0
 62
256
370
-1
 48
1.0
  6
BYLAYER
100
AcDbEllipse
 10
293.669215321237516
 20
-168.049995835756107
 30
0.0
 11
-0.4330127018922099
 21
-0.25
 31
0.0
 40
0.1334528869308344
 41
0.0
 42
6.2831853071795862
  0
ELLIPSE
  5
22D
100
AcDbEntity
  8
0
 62
256
370
-1
 48
1.0
  6
BYLAYER
100
AcDbEllipse
 10
293.7558178616159239
 20
-168.0999958357561184
 30
0.0
 11
-0.4330127018922099
 21
-0.25
 31
0.0
 40
0.1334528869308344
 41
0.0
 42
6.2831853071795862
  0
ELLIPSE
  5
22E
100
AcDbEntity
  8
0
 62
256
370
-1
 48
1.0
  6
BYLAYER
100
AcDbEllipse
 10
293.8424204019943886
 20
-168.1499958357561013
 30
0.0
 11
-0.4330127018922099
 21
-0.25
 31
0.0
 40
0.1334528869308344
 41
0.0
 42
6.2831853071795862
  0
ELLIPSE
  5
22F
100
AcDbEntity
  8
0
 62
256
370
-1
 48
1.0
  6
BYLAYER
100
AcDbEllipse
 10
293.9290229423728533
 20
-168.1999958357561127
 30
0.0
 11
-0.4330127018922099
 21
-0.25
 31
0.0
 40
0.1334528869308344
 41
0.0
 42
6.2831853071795862
  0
ELLIPSE
  5
230
100
AcDbEntity
  8
0
 62
256
370
-1
 48
1.0
  6
BYLAYER
100
AcDbEllipse
 10
294.0156254827512612
 20
-168.2499958357561241
 30
0.0
 11
-0.4330127018922099
 21
-0.25
 31
0.0
 40
0.1334528869308344
 41
0.0
 42
6.2831853071795862
  0
ELLIPSE
  5
231
100
AcDbEntity
  8
0
 62
256
370
-1
 48
1.0
  6
BYLAYER
100
AcDbEllipse
 10
294.1022280231297259
 20
-168.299995835756107
 30
0.0
 11
-0.4330127018922099
 21
-0.25
 31
0.0
 40
0.1334528869308344
 41
0.0
 42
6.2831853071795862
  0
ELLIPSE
  5
232
100
AcDbEntity
  8
0
 62
256
370
-1
 48
1.0
  6
BYLAYER
100
AcDbEllipse
 10
294.1888305635081338
 20
-168.3499958357561184
 30
0.0
 11
-0.4330127018922099
 21
-0.25
 31
0.0
 40
0.1334528869308344
 41
0.0
 42
6.2831853071795862
  0
ELLIPSE
  5
233
100
AcDbEntity
  8
0
 62
256
370
-1
 48
1.0
  6
BYLAYER
100
AcDbEllipse
 10
316.5045711459267181
 20
-154.3263717071453698
 30
0.0
 11
-0.4330127018922099
 21
-0.25
 31
0.0
 40
0.1334528869308344
 41
0.0
 42
6.2831853071795862
  0
ELLIPSE
  5
234
100
AcDbEntity
  8
0
 62
256
370
-1
 48
1.0
  6
BYLAYER
100
AcDbEllipse
 10
316.5911745842395817
 20
-154.3763675429014768
 30
0.0
 11
-0.4330127018922099
 21
-0.25
 31
0.0
 40
0.1334528869308344
 41
0.0
 42
6.2831853071795862
  0
ELLIPSE
  5
235
100
AcDbEntity
  8
0
 62
256
370
-1
 48
1.0
  6
BYLAYER
100
AcDbEllipse
 10
316.6777771246179896
 20
-154.4263675429014882
 30
0.0
 11
-0.4330127018922099
 21
-0.25
 31
0.0
 40
0.1334528869308344
 41
0.0
 42
6.2831853071795862
  0
ELLIPSE
  5
236
100
AcDbEntity
  8
0
 62
256
370
-1
 48
1.0
  6
BYLAYER
100
AcDbEllipse
 10
316.7643796649964543
 20
-154.4763675429014711
 30
0.0
 11
-0.4330127018922099
 21
-0.25
 31
0.0
 40
0.1334528869308344
 41
0.0
 42
6.2831853071795862
  0
ELLIPSE
  5
237
100
AcDbEntity
  8
0
 62
256
370
-1
 48
1.0
  6
BYLAYER
100
AcDbEllipse
 10
316.8509822053748621
 20
-154.5263675429014825
 30
0.0
 11
-0.4330127018922099
 21
-0.25
 31
0.0
 40
0.1334528869308344
 41
0.0
 42
6.2831853071795862
  0
ELLIPSE
  5
238
100
AcDbEntity
  8
0
 62
256
370
-1
 48
1.0
  6
BYLAYER
100
AcDbEllipse
 10
316.9375847457533268
 20
-154.5763675429014938
 30
0.0
 11
-0.4330127018922099
 21
-0.25
 31
0.0
 40
0.1334528869308344
 41
0.0
 42
6.2831853071795862
  0
ELLIPSE
  5
239
100
AcDbEntity
  8
0
 62
256
370
-1
 48
1.0
  6
BYLAYER
100
AcDbEllipse
 10
317.0241872861317916
 20
-154.6263675429014768
 30
0.0
 11
-0.4330127018922099
 21
-0.25
 31
0.0
 40
0.1334528869308344
 41
0.0
 42
6.2831853071795862
  0
ELLIPSE
  5
23A
100
AcDbEntity
  8
0
 62
256
370
-1
 48
1.0
  6
BYLAYER
100
AcDbEllipse
 10
317.1107898265101994
 20
-154.6763675429014882
 30
0.0
 11
-0.4330127018922099
 21
-0.25
 31
0.0
 40
0.1334528869308344
 41
0.0
 42
6.2831853071795862
  0
ELLIPSE
  5
23B
100
AcDbEntity
  8
0
 62
256
370
-1
 48
1.0
  6
BYLAYER
100
AcDbEllipse
 10
317.1973923668886641
 20
-154.7263675429014711
 30
0.0
 11
-0.4330127018922099
 21
-0.25
 31
0.0
 40
0.1334528869308344
 41
0.0
 42
6.2831853071795862
  0
ELLIPSE
  5
23C
100
AcDbEntity
  8
0
 62
256
370
-1
 48
1.0
  6
BYLAYER
100
AcDbEllipse
 10
317.2839949072671288
 20
-154.7763675429014825
 30
0.0
 11
-0.4330127018922099
 21
-0.25
 31
0.0
 40
0.1334528869308344
 41
0.0
 42
6.2831853071795862
  0
ELLIPSE
  5
23D
100
AcDbEntity
  8
0
 62
256
370
-1
 48
1.0
  6
BYLAYER
100
AcDbEllipse
 10
317.3705974476455367
 20
-154.8263675429014938
 30
0.0
 11
-0.4330127018922099
 21
-0.25
 31
0.0
 40
0.1334528869308344
 41
0.0
 42
6.2831853071795862
  0
ELLIPSE
  5
23E
100
AcDbEntity
  8
0
 62
256
370
-1
 48
1.0
  6
BYLAYER
100
AcDbEllipse
 10
317.4571999880240014
 20
-154.8763675429014768
 30
0.0
 11
-0.4330127018922099
 21
-0.25
 31
0.0
 40
0.1334528869308344
 41
0.0
 42
6.2831853071795862
  0
ELLIPSE
  5
23F
100
AcDbEntity
  8
0
 62
256
370
-1
 48
1.0
  6
BYLAYER
100
AcDbEllipse
 10
317.5438025284024093
 20
-154.9263675429014882
 30
0.0
 11
-0.4330127018922099
 21
-0.25
 31
0.0
 40
0.1334528869308344
 41
0.0
 42
6.2831853071795862
  0
LINE
  5
240
100
AcDbEntity
  8
0
 62
256
370
-1
 48
1.0
  6
BYLAYER
100
AcDbLine
 10
292.9763941002755701
 20
-167.8499999999999943
 30
0.0
 11
294.3620347463306643
 21
-168.6499999999999773
 31
0.0
  0
LINE
  5
241
100
AcDbEntity
  8
0
 62
256
370
-1
 48
1.0
  6
BYLAYER
100
AcDbLine
 10
316.3313660651698456
 20
-154.4263717071453641
 30
0.0
 11
317.7170067112249399
 21
-155.226371707145347
 31
0.0
  0
LINE
  5
242
100
AcDbEntity
  8
0
 62
256
370
-1
 48
1.0
  6
BYLAYER
100
AcDbLine
 10
294.3620347463306643
 20
-168.6499999999999773
 30
0.0
 11
294.3620347463306643
 21
-168.3499999999999943
 31
0.0
  0
LINE
  5
243
100
AcDbEntity
  8
0
 62
256
370
-1
 48
1.0
  6
BYLAYER
100
AcDbLine
 10
317.7170067112249399
 20
-155.226371707145347
 30
0.0
 11
317.7170067112249399
 21
-154.9263717071453641
 31
0.0
  0
LINE
  5
244
100
AcDbEntity
  8
0
 62
256
370
-1
 48
1.0
  6
BYLAYER
100
AcDbLine
 10
293.3228042617893152
 20
-167.6499999999999773
 30
0.0
 11
294.7084449078444095
 21
-168.4499999999999886
 31
0.0
  0
LINE
  5
245
100
AcDbEntity
  8
0
 62
256
370
-1
 48
1.0
  6
BYLAYER
100
AcDbLine
 10
316.6777762266835907
 20
-154.226371707145347
 30
0.0
 11
318.063416872738685
 21
-155.0263717071453584
 31
0.0
  0
LINE
  5
246
100
AcDbEntity
  8
0
 62
256
370
-1
 48
1.0
  6
BYLAYER
100
AcDbLine
 10
294.7084449078444095
 20
-168.4499999999999886
 30
0.0
 11
294.7084449078444095
 21
-168.25
 31
0.0
  0
LINE
  5
247
100
AcDbEntity
  8
0
 62
256
370
-1
 48
1.0
  6
BYLAYER
100
AcDbLine
 10
318.063416872738685
 20
-155.0263717071453584
 30
0.0
 11
318.063416872738685
 21
-154.8263717071453698
 31
0.0
  0
LINE
  5
248
100
AcDbEntity
  8
0
 62
256
370
-1
 48
1.0
  6
BYLAYER
100
AcDbLine
 10
262.4056973466849172
 20
-139.5
 30
0.0
 11
278.860180018589233
 21
-149.0
 31
0.0
  0
LINE
  5
249
100
AcDbEntity
  8
0
 62
256
370
-1
 48
1.0
  6
BYLAYER
100
AcDbLine
 10
278.860180018589233
 20
-149.0
 30
0.0
 11
295.3146626904935488
 21
-158.5
 31
0.0
  0
LINE
  5
24A
100
AcDbEntity
  8
0
 62
256
370
-1
 48
1.0
  6
BYLAYER
100
AcDbLine
 10
260.9871784060518394
 20
-139.5525332158001959
 30
0.0
 11
295.3146626904935488
 21
-159.5
 31
0.0
  0
LINE
  5
24B
100
AcDbEntity
  8
0
 62
256
370
-1
 48
1.0
  6
BYLAYER
100
AcDbLine
 10
283.1903070375114453
 20
-150.5
 30
0.0
 11
280.5922308261581861
 21
-151.9999999999999147
 31
0.0
  0
LINE
  5
24C
100
AcDbEntity
  8
0
 62
256
370
-1
 48
1.0
  6
BYLAYER
100
AcDbLine
 10
303.9749167283379734
 20
-138.5
 30
0.0
 11
306.5729929396912326
 21
-136.9999999999999432
 31
0.0
  0
LINE
  5
24D
100
AcDbEntity
  8
0
 62
256
370
-1
 48
1.0
  6
BYLAYER
100
AcDbLine
 10
285.7883832488647613
 20
-127.0
 30
0.0
 11
316.9652977851045534
 21
-145.0
 31
0.0
  0
LINE
  5
24E
100
AcDbEntity
  8
0
 62
256
370
-1
 48
1.0
  6
BYLAYER
100
AcDbLine
 10
285.7883832488647613
 20
-126.0
 30
0.0
 11
318.6973485926733929
 21
-145.0
 31
0.0
  0
ARC
  5
24F
100
AcDbEntity
  8
0
 62
256
370
-1
 48
1.0
  6
BYLAYER
100
AcDbCircle
 10
260.9104808746326398
 20
-193.726527265271244
 30
0.0
 40
46.8442148811879591
100
AcDbArc
 50
37.8238073627828015
 51
79.8800556648908184
  0
ARC
  5
250
100
AcDbEntity
  8
0
 62
256
370
-1
 48
1.0
  6
BYLAYER
100
AcDbCircle
 10
226.4124603861135938
 20
-251.9617305728333747
 30
0.0
 40
115.39516432330133
100
AcDbArc
 50
50.0493893796980487
 51
66.7264724525116435
  0
ARC
  5
251
100
AcDbEntity
  8
0
 62
256
370
-1
 48
1.0
  6
BYLAYER
100
AcDbCircle
 10
250.7398257309959604
 20
-214.7941176470643256
 30
0.0
 40
77.2608431825231889
100
AcDbArc
 50
44.6470756766828032
 51
69.3439411255499749
  0
ARC
  5
252
100
AcDbEntity
  8
0
 62
256
370
-1
 48
1.0
  6
BYLAYER
100
AcDbCircle
 10
211.3101985234145559
 20
-277.9999999999816396
 30
0.0
 40
153.52198539620764
100
AcDbArc
 50
50.8171177059332493
 51
63.1738990963003602
  0
LINE
  5
253
100
AcDbEntity
  8
0
 62
256
370
-1
 48
1.0
  6
BYLAYER
100
AcDbLine
 10
116.9134295108992063
 20
-42.5
 30
0.0
 11
114.3153532995458903
 21
-41.0
 31
0.0
  0
LINE
  5
254
100
AcDbEntity
  8
0
 62
256
370
-1
 48
1.0
  6
BYLAYER
100
AcDbLine
 10
115.1813787033303385
 20
-42.5
 30
0.0
 11
124.7076581449591544
 21
-37.0
 31
0.0
  0
LINE
  5
255
100
AcDbEntity
  8
0
 62
256
370
-1
 48
1.0
  6
BYLAYER
100
AcDbLine
 10
124.7076581449591544
 20
-37.0
 30
0.0
 11
122.9756073373902865
 21
-36.0
 31
0.0
  0
LINE
  5
256
100
AcDbEntity
  8
0
 62
256
370
-1
 48
1.0
  6
BYLAYER
100
AcDbLine
 10
134.2339375865879845
 20
-32.5
 30
0.0
 11
131.6358613752346685
 21
-31.0
 31
0.0
  0
LINE
  5
257
100
AcDbEntity
  8
0
 62
256
370
-1
 48
1.0
  6
BYLAYER
100
AcDbLine
 10
134.2339375865879845
 20
-31.5
 30
0.0
 11
132.5018867790191166
 21
-30.5000000000000036
 31
0.0
  0
SPLINE
  5
258
100
AcDbEntity
  8
0
 62
256
370
-1
 48
1.0
  6
BYLAYER
100
AcDbSpline
 70
8
 71
3
 72
19
 73
15
 74
0
 40
0.0
 40
0.0
 40
0.0
 40
0.0
 40
1.0
 40
2.0
 40
3.0
 40
4.0
 40
5.0
 40
6.0
 40
7.0
 40
8.0
 40
9.0
 40
10.0
 40
11.0
 40
12.0
 40
12.0
 40
12.0
 40
12.0
 10
285.7883832488645908
 20
-135.0
 30
0.0
 10
285.7883832488647045
 20
-128.0000000000000568
 30
0.0
 10
290.1185102677869168
 20
-130.5
 30
0.0
 10
289.252484864002497
 20
-137.0000000000000568
 30
0.0
 10
294.4486372867091291
 20
-133.0
 30
0.0
 10
294.4486372867091291
 20
-139.0
 30
0.0
 10
299.4715846286588885
 20
-135.8999999999999773
 30
0.0
 10
299.7880597892980177
 20
-142.6691319232525927
 30
0.0
 10
303.9749167283379734
 20
-138.5
 30
0.0
 10
303.1088913245534968
 20
-145.0
 30
0.0
 10
308.854348988939762
 20
-141.3171415291509732
 30
0.0
 10
307.4390183434757091
 20
-147.5
 30
0.0
 10
312.6351707661823411
 20
-144.5
 30
0.0
 10
314.3672215737512374
 20
-151.5
 30
0.0
 10
318.6973485926733929
 20
-147.0
 30
0.0
  0
SPLINE
  5
259
100
AcDbEntity
  8
0
 62
256
370
-1
 48
1.0
  6
BYLAYER
100
AcDbSpline
 70
8
 71
3
 72
19
 73
15
 74
0
 40
0.0
 40
0.0
 40
0.0
 40
0.0
 40
1.0
 40
2.0
 40
3.0
 40
4.0
 40
5.0
 40
6.0
 40
7.0
 40
8.0
 40
9.0
 40
10.0
 40
11.0
 40
12.0
 40
12.0
 40
12.0
 40
12.0
 10
265.0037735580381764
 20
-150.0731160683701546
 30
0.0
 10
265.00377355803829
 20
-143.0731160683702115
 30
0.0
 10
269.3339005769605023
 20
-145.5731160683701546
 30
0.0
 10
268.4678751731760826
 20
-152.0731160683702115
 30
0.0
 10
273.6640275958827146
 20
-148.0731160683701546
 30
0.0
 10
273.6640275958827146
 20
-154.0731160683701546
 30
0.0
 10
278.6869749378324741
 20
-150.9731160683701319
 30
0.0
 10
279.0034500984716033
 20
-157.7422479916227473
 30
0.0
 10
283.190307037511559
 20
-153.5731160683701546
 30
0.0
 10
282.3242816337270824
 20
-160.0731160683701546
 30
0.0
 10
288.0697392981133476
 20
-156.3902575975211278
 30
0.0
 10
286.6544086526492947
 20
-162.5731160683701546
 30
0.0
 10
291.8505610753559267
 20
-159.5731160683701546
 30
0.0
 10
293.582611882924823
 20
-166.5731160683701546
 30
0.0
 10
294.4486372867091291
 20
-164.0
 30
0.0
  0
LINE
  5
25A
100
AcDbEntity
  8
0
 62
256
370
-1
 48
1.0
  6
BYLAYER
100
AcDbLine
 10
265.0037735580381764
 20
-150.0731160683701546
 30
0.0
 11
285.7883832488646476
 21
-134.9999999999999716
 31
0.0
  0
LINE
  5
25B
100
AcDbEntity
  8
0
 62
256
370
-1
 48
1.0
  6
BYLAYER
100
AcDbLine
 10
294.4486372867091291
 20
-164.0
 30
0.0
 11
318.6973485926733929
 21
-147.0
 31
0.0
  0
LINE
  5
25C
100
AcDbEntity
  8
0
 62
256
370
-1
 48
1.0
  6
BYLAYER
100
AcDbLine
 10
124.7076581449591401
 20
-36.9999999999999929
 30
0.0
 11
134.2339375865879845
 21
-31.5
 31
0.0
  0
LINE
  5
25D
100
AcDbEntity
  8
0
 62
256
370
-1
 48
1.0
  6
BYLAYER
100
AcDbLine
 10
265.0037735580382332
 20
-139.0
 30
0.0
 11
284.056332441295865
 21
-128.0
 31
0.0
  0
LINE
  5
25E
100
AcDbEntity
  8
0
 62
256
370
-1
 48
1.0
  6
BYLAYER
100
AcDbLine
 10
275.3960784034514973
 20
-134.0
 30
0.0
 11
272.7980021920981812
 21
-132.5
 31
0.0
  0
LINE
  5
25F
100
AcDbEntity
  8
0
 62
256
370
-1
 48
1.0
  6
BYLAYER
100
AcDbLine
 10
296.1806880942780253
 20
-157.0
 30
0.0
 11
314.6985477551220924
 21
-146.3431654215863489
 31
0.0
  0
LINE
  5
260
100
AcDbEntity
  8
0
 62
256
370
-1
 48
1.0
  6
BYLAYER
100
AcDbLine
 10
304.8409421321223931
 20
-151.0
 30
0.0
 11
307.4390183434757091
 21
-152.5
 31
0.0
  0
ARC
  5
261
100
AcDbEntity
  8
0
 62
256
370
-1
 48
1.0
  6
BYLAYER
100
AcDbCircle
 10
265.6200043422118711
 20
-138.8653139452465837
 30
0.0
 40
2.015233379989664
100
AcDbArc
 50
336.7104669121548568
 51
137.351666051461649
  0
ARC
  5
262
100
AcDbEntity
  8
0
 62
256
370
-1
 48
1.0
  6
BYLAYER
100
AcDbCircle
 10
282.9016319029165629
 20
-129.0
 30
0.0
 40
2.0816659994661633
100
AcDbArc
 50
346.1021137519862805
 51
106.1021137519851862
  0
LINE
  5
263
100
AcDbEntity
  8
0
 62
256
370
-1
 48
1.0
  6
BYLAYER
100
AcDbLine
 10
267.4710337356397645
 20
-139.662092308714449
 30
0.0
 11
284.9223578450802847
 21
-129.5
 31
0.0
  0
MTEXT
  5
264
100
AcDbEntity
  8
0
 62
256
370
-1
 48
1.0
  6
BYLAYER
100
AcDbMText
 10
17.320508075688771
 20
90.0
 30
0.0
 40
1.0
 41
0.0
 71
1
 72
1
  1
\H18;Expanded
  7
textstyle0
 50
0.0
 73
2
 44
1.0
  0
ENDSEC
  0
SECTION
  2
OBJECTS
  0
DICTIONARY
  5
C
100
AcDbDictionary
280
0
281
1
  3
ACAD_GROUP
350
D
  3
ACAD_LAYOUT
350
1A
  3
ACAD_MLINESTYLE
350
17
  3
ACAD_PLOTSETTINGS
350
19
  3
ACAD_PLOTSTYLENAME
350
E
  3
AcDbVariableDictionary
350
265
  3
QCAD_OBJECTS
350
266
  0
DICTIONARY
  5
D
100
AcDbDictionary
280
0
281
1
  0
ACDBDICTIONARYWDFLT
  5
E
100
AcDbDictionary
281
1
  3
Normal
350
F
100
AcDbDictionaryWithDefault
340
F
  0
ACDBPLACEHOLDER
  5
F
  0
DICTIONARY
  5
17
100
AcDbDictionary
280
0
281
1
  3
Standard
350
18
  0
MLINESTYLE
  5
18
100
AcDbMlineStyle
  2
STANDARD
 70
0
  3

 62
256
 51
90.0
 52
90.0
 71
2
 49
0.5
 62
256
  6
BYLAYER
 49
-0.5
 62
256
  6
BYLAYER
  0
DICTIONARY
  5
19
100
AcDbDictionary
280
0
281
1
  0
DICTIONARY
  5
1A
100
AcDbDictionary
281
1
  3
Layout1
350
1E
  3
Layout2
350
26
  3
Model
350
22
  0
LAYOUT
  5
1E
100
AcDbPlotSettings
  1

  2
none_device
  4

  6

 40
0.0
 41
0.0
 42
0.0
 43
0.0
 44
0.0
 45
0.0
 46
0.0
 47
0.0
 48
0.0
 49
0.0
140
0.0
141
0.0
142
1.0
143
1.0
 70
688
 72
0
 73
0
 74
5
  7

 75
16
147
1.0
148
0.0
149
0.0
100
AcDbLayout
  1
Layout1
 70
1
 71
1
 10
0.0
 20
0.0
 11
420.0
 21
297.0
 12
0.0
 22
0.0
 32
0.0
 14
100000000000000000000.0
 24
100000000000000000000.0
 34
100000000000000000000.0
 15
-100000000000000000000.0
 25
-100000000000000000000.0
 35
-100000000000000000000.0
146
0.0
 13
0.0
 23
0.0
 33
0.0
 16
1.0
 26
0.0
 36
0.0
 17
0.0
 27
1.0
 37
0.0
 76
0
330
1B
  0
LAYOUT
  5
22
100
AcDbPlotSettings
  1

  2
none_device
  4

  6

 40
0.0
 41
0.0
 42
0.0
 43
0.0
 44
0.0
 45
0.0
 46
0.0
 47
0.0
 48
0.0
 49
0.0
140
0.0
141
0.0
142
1.0
143
1.0
 70
1712
 72
0
 73
0
 74
0
  7

 75
0
147
1.0
148
0.0
149
0.0
100
AcDbLayout
  1
Model
 70
1
 71
0
 10
0.0
 20
0.0
 11
12.0
 21
9.0
 12
0.0
 22
0.0
 32
0.0
 14
0.0
 24
0.0
 34
0.0
 15
0.0
 25
0.0
 35
0.0
146
0.0
 13
0.0
 23
0.0
 33
0.0
 16
1.0
 26
0.0
 36
0.0
 17
0.0
 27
1.0
 37
0.0
 76
0
330
1F
  0
LAYOUT
  5
26
100
AcDbPlotSettings
  1

  2
none_device
  4

  6

 40
0.0
 41
0.0
 42
0.0
 43
0.0
 44
0.0
 45
0.0
 46
0.0
 47
0.0
 48
0.0
 49
0.0
140
0.0
141
0.0
142
1.0
143
1.0
 70
688
 72
0
 73
0
 74
5
  7

 75
16
147
1.0
148
0.0
149
0.0
100
AcDbLayout
  1
Layout2
 70
1
 71
2
 10
0.0
 20
0.0
 11
12.0
 21
9.0
 12
0.0
 22
0.0
 32
0.0
 14
0.0
 24
0.0
 34
0.0
 15
0.0
 25
0.0
 35
0.0
146
0.0
 13
0.0
 23
0.0
 33
0.0
 16
1.0
 26
0.0
 36
0.0
 17
0.0
 27
1.0
 37
0.0
 76
0
330
23
  0
DICTIONARY
  5
265
100
AcDbDictionary
281
1
  3
DIMASSOC
350
268
  3
HIDETEXT
350
267
  0
DICTIONARYVAR
  5
267
100
DictionaryVariables
280
0
  1
2
  0
DICTIONARYVAR
  5
268
100
DictionaryVariables
280
0
  1
1
  0
DICTIONARY
  5
266
100
AcDbDictionary
281
1
  3
ColorSettings/BackgroundColor
350
269
  3
ColorSettings/ColorMode
350
26A
  3
Grid/DisplayGrid00
350
26B
  3
Grid/DisplayGrid01
350
26C
  3
Grid/DisplayGrid02
350
26D
  3
Grid/DisplayGrid03
350
26E
  3
Grid/GridSpacingX00
350
26F
  3
Grid/GridSpacingX01
350
270
  3
Grid/GridSpacingX02
350
271
  3
Grid/GridSpacingX03
350
272
  3
Grid/GridSpacingY00
350
273
  3
Grid/GridSpacingY01
350
274
  3
Grid/GridSpacingY02
350
275
  3
Grid/GridSpacingY03
350
276
  3
Grid/IsometricGrid00
350
277
  3
Grid/IsometricGrid01
350
278
  3
Grid/IsometricGrid02
350
279
  3
Grid/IsometricGrid03
350
27A
  3
Grid/IsometricProjection00
350
27B
  3
Grid/IsometricProjection01
350
27C
  3
Grid/IsometricProjection02
350
27D
  3
Grid/IsometricProjection03
350
27E
  3
Grid/MetaGridSpacingX00
350
27F
  3
Grid/MetaGridSpacingX01
350
280
  3
Grid/MetaGridSpacingX02
350
281
  3
Grid/MetaGridSpacingX03
350
282
  3
Grid/MetaGridSpacingY00
350
283
  3
Grid/MetaGridSpacingY01
350
284
  3
Grid/MetaGridSpacingY02
350
285
  3
Grid/MetaGridSpacingY03
350
286
  3
LinetypeSettings/PSLTSCALE
350
287
  3
MultiPageSettings/Columns
350
288
  3
MultiPageSettings/GlueMarginsBottom
350
289
  3
MultiPageSettings/GlueMarginsLeft
350
28A
  3
MultiPageSettings/GlueMarginsRight
350
28B
  3
MultiPageSettings/GlueMarginsTop
350
28C
  3
MultiPageSettings/PrintCropMarks
350
28D
  3
MultiPageSettings/Rows
350
28E
  3
PageSettings/OffsetX
350
28F
  3
PageSettings/OffsetY
350
290
  3
PageSettings/PageOrientation
350
291
  3
PageSettings/PaperHeight
350
292
  3
PageSettings/PaperSizeName
350
293
  3
PageSettings/PaperWidth
350
294
  3
PageSettings/PointSize
350
295
  3
PageSettings/Scale
350
296
  3
PageSettings/ShowPaperBorders
350
297
  3
PageTagSettings/EnablePageTags
350
298
  3
PageTagSettings/TagAlignment
350
299
  3
PageTagSettings/TagFont
350
29A
  3
PageTagSettings/TagPosition
350
29B
  3
QCADVersion
350
29C
  3
UnitSettings/Measurement
350
29D
  3
UnitSettings/PaperUnit
350
29E
  3
ViewportCenter
350
29F
  3
ViewportHeight
350
2A0
  3
ViewportWidth
350
2A1
  0
XRECORD
  5
269
330
266
100
AcDbXrecord
280
1
1000
White
  0
XRECORD
  5
26A
330
266
100
AcDbXrecord
280
1
1000
FullColor
  0
XRECORD
  5
26B
330
266
100
AcDbXrecord
280
1
290
1
  0
XRECORD
  5
26C
330
266
100
AcDbXrecord
280
1
290
1
  0
XRECORD
  5
26D
330
266
100
AcDbXrecord
280
1
290
1
  0
XRECORD
  5
26E
330
266
100
AcDbXrecord
280
1
290
1
  0
XRECORD
  5
26F
330
266
100
AcDbXrecord
280
1
1000
auto
  0
XRECORD
  5
270
330
266
100
AcDbXrecord
280
1
1000
auto
  0
XRECORD
  5
271
330
266
100
AcDbXrecord
280
1
1000
auto
  0
XRECORD
  5
272
330
266
100
AcDbXrecord
280
1
1000
auto
  0
XRECORD
  5
273
330
266
100
AcDbXrecord
280
1
1000
auto
  0
XRECORD
  5
274
330
266
100
AcDbXrecord
280
1
1000
auto
  0
XRECORD
  5
275
330
266
100
AcDbXrecord
280
1
1000
auto
  0
XRECORD
  5
276
330
266
100
AcDbXrecord
280
1
1000
auto
  0
XRECORD
  5
277
330
266
100
AcDbXrecord
280
1
290
1
  0
XRECORD
  5
278
330
266
100
AcDbXrecord
280
1
290
0
  0
XRECORD
  5
279
330
266
100
AcDbXrecord
280
1
290
0
  0
XRECORD
  5
27A
330
266
100
AcDbXrecord
280
1
290
0
  0
XRECORD
  5
27B
330
266
100
AcDbXrecord
280
1
 90
65537
  0
XRECORD
  5
27C
330
266
100
AcDbXrecord
280
1
 90
65537
  0
XRECORD
  5
27D
330
266
100
AcDbXrecord
280
1
 90
65537
  0
XRECORD
  5
27E
330
266
100
AcDbXrecord
280
1
 90
65537
  0
XRECORD
  5
27F
330
266
100
AcDbXrecord
280
1
1000
auto
  0
XRECORD
  5
280
330
266
100
AcDbXrecord
280
1
1000
auto
  0
XRECORD
  5
281
330
266
100
AcDbXrecord
280
1
1000
auto
  0
XRECORD
  5
282
330
266
100
AcDbXrecord
280
1
1000
auto
  0
XRECORD
  5
283
330
266
100
AcDbXrecord
280
1
1000
auto
  0
XRECORD
  5
284
330
266
100
AcDbXrecord
280
1
1000
auto
  0
XRECORD
  5
285
330
266
100
AcDbXrecord
280
1
1000
auto
  0
XRECORD
  5
286
330
266
100
AcDbXrecord
280
1
1000
auto
  0
XRECORD
  5
287
330
266
100
AcDbXrecord
280
1
290
0
  0
XRECORD
  5
288
330
266
100
AcDbXrecord
280
1
 90
1
  0
XRECORD
  5
289
330
266
100
AcDbXrecord
280
1
 40
10.0
  0
XRECORD
  5
28A
330
266
100
AcDbXrecord
280
1
 40
10.0
  0
XRECORD
  5
28B
330
266
100
AcDbXrecord
280
1
 40
10.0
  0
XRECORD
  5
28C
330
266
100
AcDbXrecord
280
1
 40
10.0
  0
XRECORD
  5
28D
330
266
100
AcDbXrecord
280
1
290
0
  0
XRECORD
  5
28E
330
266
100
AcDbXrecord
280
1
 90
1
  0
XRECORD
  5
28F
330
266
100
AcDbXrecord
280
1
 40
0.0
  0
XRECORD
  5
290
330
266
100
AcDbXrecord
280
1
 40
0.0
  0
XRECORD
  5
291
330
266
100
AcDbXrecord
280
1
1000
Landscape
  0
XRECORD
  5
292
330
266
100
AcDbXrecord
280
1
1000
29.7
  0
XRECORD
  5
293
330
266
100
AcDbXrecord
280
1
1000
ISO A4
  0
XRECORD
  5
294
330
266
100
AcDbXrecord
280
1
1000
21
  0
XRECORD
  5
295
330
266
100
AcDbXrecord
280
1
1000
0.5
  0
XRECORD
  5
296
330
266
100
AcDbXrecord
280
1
1000
1:1
  0
XRECORD
  5
297
330
266
100
AcDbXrecord
280
1
290
1
  0
XRECORD
  5
298
330
266
100
AcDbXrecord
280
1
290
0
  0
XRECORD
  5
299
330
266
100
AcDbXrecord
280
1
1000
Inside
  0
XRECORD
  5
29A
330
266
100
AcDbXrecord
280
1
1000
Arial,10,-1,5,50,0,0,0,0,0
  0
XRECORD
  5
29B
330
266
100
AcDbXrecord
280
1
1000
TopLeft
  0
XRECORD
  5
29C
330
266
100
AcDbXrecord
280
1
1000
3.26.4.10
  0
XRECORD
  5
29D
330
266
100
AcDbXrecord
280
1
 90
1
  0
XRECORD
  5
29E
330
266
100
AcDbXrecord
280
1
 90
5
  0
XRECORD
  5
2A0
330
266
100
AcDbXrecord
280
1
 40
304.732502180164829
  0
XRECORD
  5
2A1
330
266
100
AcDbXrecord
280
1
 40
603.1031567156497886
  0
ENDSEC
  0
EOF
